<?xml version="1.0" encoding="UTF-8"?>
<svg version="1.1" xmlns="http://www.w3.org/2000/svg" width="1280" height="256">
<path d="M0 0 C0.96457626 -0.00953201 1.92915253 -0.01906403 2.92295837 -0.02888489 C4.47618553 -0.02751778 4.47618553 -0.02751778 6.06079102 -0.02612305 C7.13087906 -0.03040817 8.2009671 -0.0346933 9.30348206 -0.03910828 C11.56543267 -0.04484851 13.82740174 -0.0453541 16.08935547 -0.04101562 C19.54825362 -0.03785681 23.00629554 -0.06131546 26.46508789 -0.08666992 C28.66365452 -0.08894306 30.86222345 -0.08964634 33.06079102 -0.08862305 C34.09425156 -0.09783279 35.1277121 -0.10704254 36.19248962 -0.11653137 C41.34479157 -0.08336855 44.93060974 -0.05942277 49.12719727 3.2746582 C50.45328548 3.95562242 51.78406328 4.62796406 53.12719727 5.2746582 C53.72532227 4.6352832 54.32344727 3.9959082 54.93969727 3.3371582 C58.08930565 0.36752744 60.62206194 0.14780534 64.77880859 0.11352539 C65.72021194 0.10391785 66.6616153 0.0943103 67.63154602 0.08441162 C69.15499886 0.0780368 69.15499886 0.0780368 70.70922852 0.0715332 C71.75616379 0.06583313 72.80309906 0.06013306 73.88175964 0.05426025 C76.09840891 0.04481054 78.31507222 0.03827639 80.53173828 0.03442383 C83.91602217 0.02472604 87.29969675 -0.00629493 90.68383789 -0.0378418 C92.83813116 -0.04437278 94.99242877 -0.04962288 97.14672852 -0.0534668 C98.15629105 -0.0658136 99.16585358 -0.0781604 100.20600891 -0.09088135 C105.52053267 -0.07410768 109.69868176 -0.00879751 114.12719727 3.2746582 C117.99107441 8.4897948 117.57867147 14.14343404 117.56079102 20.3684082 C117.56603287 21.43329468 117.57127472 22.49818115 117.57667542 23.59533691 C117.58308335 25.84113698 117.58177459 28.08697067 117.57324219 30.33276367 C117.56472566 33.76322266 117.59352313 37.19201949 117.62524414 40.62231445 C117.62685617 42.80851187 117.62627858 44.99471223 117.62329102 47.1809082 C117.63452499 48.20293335 117.64575897 49.2249585 117.65733337 50.2779541 C117.59955236 56.19835295 117.17660699 59.81402825 113.12719727 64.2746582 C112.46719727 64.2746582 111.80719727 64.2746582 111.12719727 64.2746582 C111.93157227 65.2234082 112.73594727 66.1721582 113.56469727 67.1496582 C116.45277686 70.55611106 117.25297576 72.51410068 117.28833008 77.01220703 C117.29793762 77.99695511 117.30754517 78.98170319 117.31744385 79.99629211 C117.32381866 81.5978138 117.32381866 81.5978138 117.33032227 83.23168945 C117.33602234 84.32680344 117.34172241 85.42191742 117.34759521 86.55021667 C117.35705439 88.87119579 117.36358283 91.19218839 117.36743164 93.51318359 C117.37712899 97.06216941 117.40814098 100.61057423 117.43969727 104.15942383 C117.44622799 106.41267559 117.45147819 108.6659315 117.45532227 110.91918945 C117.46766907 111.98079788 117.48001587 113.04240631 117.49273682 114.13618469 C117.46503533 123.31313929 117.46503533 123.31313929 114.12719727 127.2746582 C110.32413971 130.70967793 106.84107838 131.39395488 101.82104492 131.41992188 C100.97982086 131.42630173 100.1385968 131.43268158 99.2718811 131.43925476 C98.37077606 131.44036758 97.46967102 131.44148041 96.54125977 131.44262695 C95.60671967 131.44595535 94.67217957 131.44928375 93.70932007 131.45271301 C91.73403413 131.45777098 89.75873967 131.46012169 87.78344727 131.45996094 C84.77028228 131.46214509 81.75748489 131.48030642 78.74438477 131.49926758 C76.82251101 131.50220224 74.90063553 131.50418655 72.97875977 131.50512695 C71.6331749 131.51590523 71.6331749 131.51590523 70.26040649 131.52690125 C63.76363904 131.5033172 58.10889325 130.87314681 53.12719727 126.2746582 C53.12719727 125.6146582 53.12719727 124.9546582 53.12719727 124.2746582 C52.46719727 124.2746582 51.80719727 124.2746582 51.12719727 124.2746582 C50.94157227 124.8727832 50.75594727 125.4709082 50.56469727 126.0871582 C48.47170038 129.27215347 45.67231496 130.25404435 42.12719727 131.2746582 C38.68337126 131.68958571 35.27649244 131.69574133 31.81079102 131.6730957 C30.83610367 131.67596588 29.86141632 131.67883606 28.85719299 131.68179321 C26.80566829 131.68382649 24.75412388 131.67834839 22.70263672 131.66577148 C19.57092825 131.6496902 16.44050686 131.6656545 13.30883789 131.68481445 C11.3094861 131.68283223 9.3101351 131.67898899 7.31079102 131.6730957 C5.91370155 131.68220474 5.91370155 131.68220474 4.48838806 131.6914978 C-2.01586131 131.62143488 -6.12131019 130.58796388 -11.21679688 126.30395508 C-13.78720597 121.60195949 -13.42405834 117.07988615 -13.36889648 111.8059082 C-13.37035172 110.69284302 -13.37180695 109.57977783 -13.37330627 108.4329834 C-13.37164842 106.08281839 -13.36009993 103.7326424 -13.33935547 101.38256836 C-13.31040642 97.78753489 -13.31874891 94.19397681 -13.33178711 90.59887695 C-13.32554935 88.31371354 -13.31715812 86.02855479 -13.30639648 83.7434082 C-13.30933212 82.66933716 -13.31226776 81.59526611 -13.31529236 80.48864746 C-13.23411869 74.05997671 -12.67556463 70.28503209 -8.18530273 65.4621582 C-7.75217773 65.0702832 -7.31905273 64.6784082 -6.87280273 64.2746582 C-7.49155273 64.0271582 -8.11030273 63.7796582 -8.74780273 63.5246582 C-11.32476844 62.00879602 -11.78161963 61.02456299 -12.87280273 58.2746582 C-13.14022827 55.93582153 -13.14022827 55.93582153 -13.16333008 53.32592773 C-13.17608978 52.34455841 -13.18884949 51.36318909 -13.20199585 50.3520813 C-13.2042215 49.2978598 -13.20644714 48.24363831 -13.20874023 47.1574707 C-13.21539703 46.06755829 -13.22205383 44.97764587 -13.22891235 43.85470581 C-13.23903397 41.54988288 -13.24372953 39.24503068 -13.2434082 36.94018555 C-13.24777789 33.41967294 -13.28409475 29.9004175 -13.32202148 26.38012695 C-13.32789044 24.13924582 -13.33185931 21.89835874 -13.33374023 19.6574707 C-13.34811127 18.60729767 -13.3624823 17.55712463 -13.37728882 16.47512817 C-13.3397641 10.4519504 -13.02309478 6.78441718 -8.87280273 2.2746582 C-5.84156403 0.40118621 -3.53817986 0.01925749 0 0 Z M52.12719727 59.2746582 C51.87969727 59.8934082 51.63219727 60.5121582 51.37719727 61.1496582 C49.92091087 63.62534507 48.7490722 64.22590823 46.12719727 65.2746582 C47.77719727 66.9246582 49.42719727 68.5746582 51.12719727 70.2746582 C54.01157506 68.98166126 55.99939148 67.61524457 58.12719727 65.2746582 C56.48550198 63.25411016 54.81807948 61.25422763 53.12719727 59.2746582 C52.79719727 59.2746582 52.46719727 59.2746582 52.12719727 59.2746582 Z " fill="#B8F205" transform="translate(37.872802734375,62.725341796875)"/>
<path d="M0 0 C0.96457626 -0.00953201 1.92915253 -0.01906403 2.92295837 -0.02888489 C4.47618553 -0.02751778 4.47618553 -0.02751778 6.06079102 -0.02612305 C7.13087906 -0.03040817 8.2009671 -0.0346933 9.30348206 -0.03910828 C11.56543267 -0.04484851 13.82740174 -0.0453541 16.08935547 -0.04101562 C19.54825362 -0.03785681 23.00629554 -0.06131546 26.46508789 -0.08666992 C28.66365452 -0.08894306 30.86222345 -0.08964634 33.06079102 -0.08862305 C34.09425156 -0.09783279 35.1277121 -0.10704254 36.19248962 -0.11653137 C41.34479157 -0.08336855 44.93060974 -0.05942277 49.12719727 3.2746582 C50.45328548 3.95562242 51.78406328 4.62796406 53.12719727 5.2746582 C53.72532227 4.6352832 54.32344727 3.9959082 54.93969727 3.3371582 C58.08930565 0.36752744 60.62206194 0.14780534 64.77880859 0.11352539 C65.72021194 0.10391785 66.6616153 0.0943103 67.63154602 0.08441162 C69.15499886 0.0780368 69.15499886 0.0780368 70.70922852 0.0715332 C71.75616379 0.06583313 72.80309906 0.06013306 73.88175964 0.05426025 C76.09840891 0.04481054 78.31507222 0.03827639 80.53173828 0.03442383 C83.91602217 0.02472604 87.29969675 -0.00629493 90.68383789 -0.0378418 C92.83813116 -0.04437278 94.99242877 -0.04962288 97.14672852 -0.0534668 C98.15629105 -0.0658136 99.16585358 -0.0781604 100.20600891 -0.09088135 C105.52053267 -0.07410768 109.69868176 -0.00879751 114.12719727 3.2746582 C117.99107441 8.4897948 117.57867147 14.14343404 117.56079102 20.3684082 C117.56603287 21.43329468 117.57127472 22.49818115 117.57667542 23.59533691 C117.58308335 25.84113698 117.58177459 28.08697067 117.57324219 30.33276367 C117.56472566 33.76322266 117.59352313 37.19201949 117.62524414 40.62231445 C117.62685617 42.80851187 117.62627858 44.99471223 117.62329102 47.1809082 C117.63452499 48.20293335 117.64575897 49.2249585 117.65733337 50.2779541 C117.59915405 56.23916462 117.12913611 59.7468729 113.12719727 64.2746582 C110.61189633 65.53230867 108.83787495 65.42900186 106.02246094 65.4675293 C104.95762985 65.48359222 103.89279877 65.49965515 102.79570007 65.51620483 C97.92370181 65.56059014 93.05184057 65.60171673 88.1796875 65.62475586 C85.60830642 65.64132341 83.03697155 65.66862349 80.46582031 65.70678711 C76.76285859 65.76148374 73.06097702 65.78341979 69.35766602 65.7980957 C68.20856247 65.82076508 67.05945892 65.84343445 65.87553406 65.86679077 C56.99382269 65.84322799 56.99382269 65.84322799 53.86279297 62.74194336 C53.29004639 61.92773926 52.7172998 61.11353516 52.12719727 60.2746582 C51.55227539 61.08596191 50.97735352 61.89726563 50.38500977 62.7331543 C46.90063593 66.18389577 43.1489897 65.89991129 38.45581055 65.96939087 C37.31611816 65.95926971 36.17642578 65.94914856 35.00219727 65.9387207 C33.23271729 65.94589615 33.23271729 65.94589615 31.42749023 65.95321655 C28.93610295 65.95661547 26.44467107 65.94741386 23.95336914 65.92651367 C20.14050827 65.89975163 16.33059159 65.92626563 12.51782227 65.95825195 C10.09594077 65.95494786 7.6740611 65.94854164 5.25219727 65.9387207 C3.54265869 65.95390244 3.54265869 65.95390244 1.79858398 65.96939087 C-6.99549879 65.83919998 -6.99549879 65.83919998 -10.06811523 62.8581543 C-12.48406247 59.39961078 -13.00249779 57.71317817 -13.04980469 53.55297852 C-13.06263992 52.57145813 -13.07547516 51.58993774 -13.08869934 50.57867432 C-13.09608627 49.51413025 -13.10347321 48.44958618 -13.11108398 47.3527832 C-13.11915573 46.26004089 -13.12722748 45.16729858 -13.13554382 44.04144287 C-13.14939293 41.72466625 -13.16011137 39.40786915 -13.16796875 37.09106445 C-13.18516543 33.5529086 -13.22904351 30.01569085 -13.27319336 26.4777832 C-13.28332151 24.22779008 -13.29183723 21.97778901 -13.29858398 19.7277832 C-13.31609207 18.67133606 -13.33360016 17.61488892 -13.35163879 16.52642822 C-13.33384935 10.48144598 -13.04643505 6.79704798 -8.87280273 2.2746582 C-5.84125823 0.40159137 -3.53831716 0.01925824 0 0 Z " fill="#FE0496" transform="translate(37.872802734375,62.725341796875)"/>
<path d="M0 0 C6.42076087 5.75096927 10.32384949 11.6153657 11.23828125 20.25 C11.68519705 33.79860524 6.12559066 44.2194995 -2.9140625 53.96875 C-5 56 -5 56 -8 58 C-7.33613281 58.35191406 -6.67226563 58.70382813 -5.98828125 59.06640625 C2.32088865 63.71226329 6.20462971 67.5639262 8.875 76.75 C11.27363336 87.89740591 9.12172229 96.42225069 3 106 C-3.86217194 115.09352406 -14.4312969 120.09584376 -25.390625 122.53125 C-30.16405092 123.15117544 -34.87722929 123.32212605 -39.6875 123.375 C-40.56656006 123.38901855 -41.44562012 123.40303711 -42.35131836 123.41748047 C-47.89651276 123.37683343 -54.32102361 123.26848666 -59 120 C-67.37511711 104.26164749 -64.27795339 82.35309514 -64.19561768 64.97039795 C-64.18478684 62.09126933 -64.1851501 59.21218858 -64.18575573 56.3330431 C-64.18548061 53.50932028 -64.17994614 50.68562664 -64.17275429 47.86191368 C-64.16814423 45.90646589 -64.16631537 43.95101216 -64.16459656 41.99555969 C-64.01130866 12.632398 -64.01130866 12.632398 -60 7 C-56.57146593 4.40669655 -52.93639791 2.6951991 -49 1 C-47.76830078 0.43152344 -47.76830078 0.43152344 -46.51171875 -0.1484375 C-31.92282894 -6.49973814 -13.91934741 -9.69970273 0 0 Z M-32 29 C-34.83503387 32.78004516 -34.22198724 37.25128426 -34.125 41.75 C-34.11597656 42.54277344 -34.10695313 43.33554688 -34.09765625 44.15234375 C-34.07417012 46.10169281 -34.03830137 48.05088575 -34 50 C-29.47207891 49.53377427 -27.72019513 48.12386697 -24.8125 44.6875 C-24.13832031 43.90761719 -23.46414063 43.12773438 -22.76953125 42.32421875 C-19.00343563 37.37758101 -18.50526023 34.13477317 -19 28 C-23.99104626 24.67263583 -27.18801787 26.0709674 -32 29 Z M-34 78 C-34 82.95 -34 87.9 -34 93 C-27.26045982 91.07441709 -24.24655343 90.02122702 -20.1875 84.5625 C-18.88415469 81.75001801 -18.58648167 80.06003565 -19 77 C-20.91554238 74.66033656 -20.91554238 74.66033656 -24.25 74.6875 C-28.55321736 74.81237034 -28.55321736 74.81237034 -34 78 Z " fill="#12ACF6" transform="translate(615,64)"/>
<path d="M0 0 C4.41261248 4.18632466 6.08573588 8.64514664 6.25396729 14.64080811 C6.2658347 16.54012474 6.26665333 18.43952976 6.25878906 20.33886719 C6.2622937 21.37852631 6.26579834 22.41818542 6.26940918 23.48934937 C6.2782089 26.92525925 6.27238172 30.36096302 6.265625 33.796875 C6.26697256 36.18955525 6.26891386 38.58223524 6.27142334 40.97491455 C6.27437257 45.9917664 6.27008487 51.00854705 6.26074219 56.02539062 C6.2493725 62.44215979 6.25589274 68.85876119 6.26788712 75.27552414 C6.27513215 80.21874238 6.27280521 85.16192122 6.26763153 90.10514069 C6.26630107 92.47012604 6.26792154 94.83511501 6.27259064 97.20009613 C6.27769652 100.5146779 6.26988746 103.82899268 6.25878906 107.14355469 C6.26283752 108.11322174 6.26688599 109.08288879 6.27105713 110.0819397 C6.22118514 118.16342912 5.99635421 126.00364579 0 132 C-3.06429776 133.53214888 -5.6165642 133.22938548 -9 133 C-13.16675387 131.20071992 -15.02342579 129.05717865 -17 125 C-17 124.34 -17 123.68 -17 123 C-17.66 123 -18.32 123 -19 123 C-19.20625 123.556875 -19.4125 124.11375 -19.625 124.6875 C-22.84570278 130.10413649 -28.11279364 133.16627998 -34 135 C-40.28052395 135.66833564 -45.64767822 135.69565075 -51 132 C-61.94090381 122.74231216 -68.01332255 108.68286673 -69.20678711 94.55151367 C-69.87283983 76.85873132 -68.55400073 59.04721595 -57.12890625 44.640625 C-53.39777624 40.75704021 -50.29820847 38.26887907 -44.828125 37.62890625 C-37.17792418 37.48692654 -31.83056581 37.78626987 -26 43 C-24.98849367 43.98835973 -23.98500999 44.9852314 -23 46 C-22.17602115 42.30399992 -21.78606805 38.73567691 -21.5703125 34.95703125 C-21.49683594 33.80009766 -21.42335938 32.64316406 -21.34765625 31.45117188 C-21.20043803 29.04531626 -21.05970188 26.63905432 -20.92578125 24.23242188 C-19.82972048 7.46640759 -19.82972048 7.46640759 -14.5 0.9375 C-9.58629756 -2.87061939 -5.54735592 -2.04006024 0 0 Z M-43 72 C-46.23749303 81.7124791 -44.97630366 94.97217472 -40.97265625 104.19921875 C-40.12918824 105.9661816 -40.12918824 105.9661816 -39 107 C-33.44539774 107.97205539 -30.33942945 105.62664784 -25.953125 102.60546875 C-22.93595359 100.12535385 -22.05219759 98.44217379 -21.59375 94.55859375 C-21.25813593 85.66806889 -21.81583265 78.95894914 -28 72 C-30.62620456 69.48568887 -32.99897311 68.19067179 -36.625 67.5 C-39.81009087 68.17054545 -40.99045274 69.48806593 -43 72 Z " fill="#12ACF6" transform="translate(928,52)"/>
<path d="M0 0 C8.78174183 7.04292773 13.05872206 16.55826543 14.78515625 27.5078125 C15.0843425 30.86808343 15.15499586 34.19799486 15.16015625 37.5703125 C15.18464844 38.41658203 15.20914063 39.26285156 15.234375 40.13476562 C15.26761473 47.3200866 13.41776137 52.57433823 8.59765625 57.9453125 C4.19204144 60.39287628 -0.28600445 61.19496326 -5.24609375 60.03125 C-9.0234888 58.57471208 -11.10334661 56.88953372 -13.21484375 53.5078125 C-13.83081055 51.21777344 -13.83081055 51.21777344 -14.1640625 48.7421875 C-14.28974609 47.85273437 -14.41542969 46.96328125 -14.54492188 46.046875 C-14.66287109 45.12648437 -14.78082031 44.20609375 -14.90234375 43.2578125 C-15.03189453 42.32195312 -15.16144531 41.38609375 -15.29492188 40.421875 C-15.61223488 38.11841761 -15.91846481 35.81404094 -16.21484375 33.5078125 C-19.00323679 33.00515558 -19.00323679 33.00515558 -22.21484375 33.5078125 C-26.60308907 37.57898807 -28.35517957 41.71117698 -29.96484375 47.3828125 C-30.17238281 48.05183594 -30.37992188 48.72085938 -30.59375 49.41015625 C-33.11055882 57.83740643 -33.41908841 66.14354188 -33.46484375 74.8828125 C-33.48546875 75.85992187 -33.50609375 76.83703125 -33.52734375 77.84375 C-33.56313004 84.57157215 -32.4877569 90.18804154 -30.21484375 96.5078125 C-29.88484375 97.4978125 -29.55484375 98.4878125 -29.21484375 99.5078125 C-22.31915502 101.80637541 -16.03898691 100.61384578 -9.21484375 98.5078125 C-3.51250995 96.77663608 1.83722315 95.2348647 7.78515625 96.5078125 C10.8374271 98.50113224 12.24894175 99.89579657 13.40625 103.375 C14.33740138 108.30914237 13.48374418 112.2605504 10.78515625 116.5078125 C4.35793794 125.36007624 -4.18113171 131.02431454 -14.96484375 133.015625 C-25.3910187 134.29174537 -34.67248893 132.44939304 -43.19140625 126.16015625 C-55.96120033 115.73231282 -61.7612809 101.19679208 -63.8984375 85.04296875 C-66.16767195 59.68917644 -60.67655864 33.13738929 -45.01953125 12.6328125 C-34.47745244 0.29086658 -15.67819976 -10.56273775 0 0 Z " fill="#FE0396" transform="translate(255.21484375,60.4921875)"/>
<path d="M0 0 C7.63052685 6.78269053 8.37924954 19.45724212 9 29 C9.20640843 35.66686876 9.12184717 42.3322523 9 49 C9.89203125 48.22269531 10.7840625 47.44539063 11.703125 46.64453125 C17.82539165 41.55759515 24.72629063 39.28046571 32.68359375 39.69140625 C38.26660503 40.4351801 41.7402717 42.30665783 45.25 46.625 C52.63652053 57.39947128 52.1683915 70.0072691 52.13037109 82.58178711 C52.12505502 84.66592841 52.13032042 86.74984998 52.13671875 88.83398438 C52.15572927 120.95843474 52.15572927 120.95843474 45.625 129.625 C42.83418714 132.15002116 41.72737133 133 38 133 C34.33713834 132.25247721 32.43941153 131.42720565 29.75 128.8125 C23.50185614 118.77084022 24.74362065 105.29840022 24.52319336 93.90600586 C24.48316496 91.92543901 24.43114864 89.94512607 24.37890625 87.96484375 C24.3538501 86.7955835 24.32879395 85.62632324 24.30297852 84.42163086 C23.97121861 80.67496281 23.13854004 77.57391678 22 74 C15.03620331 73.31795555 15.03620331 73.31795555 8.9375 76.25 C5.97014005 80.46173671 5.8409458 84.1130815 5.53515625 89.19921875 C5.45716797 90.40900391 5.37917969 91.61878906 5.29882812 92.86523438 C5.14249383 95.39371542 4.98880561 97.92236159 4.83789062 100.45117188 C3.71084299 117.74173193 3.71084299 117.74173193 -0.375 124.9375 C-0.77460938 125.66839844 -1.17421875 126.39929688 -1.5859375 127.15234375 C-3.23591347 129.30825158 -4.4682495 130.05949981 -7 131 C-13.91891892 131.76876877 -13.91891892 131.76876877 -17.8125 129 C-33.76182891 107.12663464 -24.58544022 58.99308494 -21 34 C-16.87970887 8.14236583 -16.87970887 8.14236583 -9 0 C-5.77839187 -1.61080407 -3.42436421 -0.82657067 0 0 Z " fill="#FE0496" transform="translate(301,57)"/>
<path d="M0 0 C4.22747108 3.14811676 5.67183711 5.98648424 7 11 C7.90724128 31.35477233 -0.5471574 51.06523287 -6.9855957 69.98730469 C-7.248927 70.76353683 -7.5122583 71.53976898 -7.78356934 72.33952332 C-8.28564971 73.81729524 -8.79042758 75.29415409 -9.29821777 76.76997375 C-10.56520011 80.30480052 -10.56520011 80.30480052 -11 84 C-10.67427002 83.51869629 -10.34854004 83.03739258 -10.01293945 82.54150391 C-2.4025578 71.31376833 5.36999757 60.22693173 13.35742188 49.26464844 C15.04597163 46.93661818 16.72003012 44.59875515 18.390625 42.2578125 C45.30006346 4.59471792 45.30006346 4.59471792 57.5625 0.9375 C61 1 61 1 64 2.8125 C66.86413837 7.37722053 65.89954207 10.83363765 65 16 C64.20586794 19.2067742 63.19313149 22.31000662 62.12109375 25.43359375 C61.68895821 26.73599754 61.68895821 26.73599754 61.24809265 28.06471252 C60.63518394 29.90942186 60.01782632 31.75265827 59.39630127 33.59448242 C57.7798065 38.3876791 56.19822862 43.19239251 54.61328125 47.99609375 C54.30013977 48.94253754 53.98699829 49.88898132 53.66436768 50.86410522 C51.02191845 58.87274165 48.51657067 66.91281179 46.125 75 C45.79814209 76.09497803 45.47128418 77.18995605 45.13452148 78.31811523 C43.52891056 83.57494402 43.52891056 83.57494402 43 89 C43.83402344 88.03320312 44.66804688 87.06640625 45.52734375 86.0703125 C50.69778584 80.08433598 55.87154703 74.10089087 61.125 68.1875 C61.80820313 67.41792969 62.49140625 66.64835937 63.1953125 65.85546875 C65.52733545 63.45782611 67.18044131 62.07995695 70.5625 61.75 C73 62 73 62 75 64 C75.15661619 70.42126385 70.92846052 74.39329245 67 79 C66.55124512 79.5269043 66.10249023 80.05380859 65.64013672 80.59667969 C63.61694376 82.96916677 61.58954565 85.33779483 59.55004883 87.69628906 C56.4149406 91.32368701 53.36802472 95.00341232 50.375 98.75 C38.2631095 113.64166864 38.2631095 113.64166864 32 116 C28.68620658 115.86474313 26.73430593 115.58744474 24.125 113.5 C18.55079271 101.1128727 27.58031926 81.35738683 31.625 69.25 C32.15795638 67.63345983 32.69017376 66.01667585 33.22167969 64.3996582 C34.55041048 60.36466422 35.88943998 56.33318787 37.23278809 52.30303955 C37.96985522 50.09048951 38.70467681 47.8772098 39.43847656 45.66357422 C41.94438864 38.10414525 44.46258032 30.54892099 47 23 C32.7889883 36.78642963 22.49415069 54.75744045 12.0625 71.4375 C-14.58938185 113.9959161 -14.58938185 113.9959161 -25 118 C-27.75 118 -27.75 118 -30 117 C-33.58545471 113.07514545 -33.5572515 110.09053999 -33.40234375 104.94140625 C-31.18323527 83.202761 -23.40033991 62.03904842 -16.8984375 41.29296875 C-16.41576416 39.73932617 -16.41576416 39.73932617 -15.92333984 38.15429688 C-15.33009845 36.2481442 -14.72947456 34.34426485 -14.11962891 32.44335938 C-12.40041152 26.93104712 -11.46587518 21.75938194 -11 16 C-18.82615338 21.73586122 -25.89052729 27.59649337 -32.46484375 34.75 C-35.23277972 37.20659649 -37.44433005 38.08908601 -41 39 C-42.32 37.68 -43.64 36.36 -45 35 C-41.5445775 21.8262017 -32.49916431 11.36135863 -21.05859375 4.14453125 C-13.79420186 0.07221569 -8.29731761 -2.1484126 0 0 Z M-13 85 C-12 87 -12 87 -12 87 Z M41 90 C42 92 42 92 42 92 Z " fill="#E53934" transform="translate(1160,72)"/>
<path d="M0 0 C13.68814675 11.83297668 16.34807299 33.042324 17.62304688 50.20605469 C17.82313818 53.42752477 17.95162946 56.64936011 18.0625 59.875 C18.10375 60.83792969 18.145 61.80085938 18.1875 62.79296875 C18.43472149 73.25352805 18.5780776 85.77958556 11.0625 93.875 C7.03286372 96.56142419 3.79793661 96.67501403 -0.9375 95.875 C-4.68405711 93.89106364 -7.58194094 90.94167719 -8.9375 86.875 C-8.9375 85.885 -8.9375 84.895 -8.9375 83.875 C-9.494375 84.20113281 -10.05125 84.52726562 -10.625 84.86328125 C-13.04025432 86.24634073 -15.4774668 87.57331314 -17.9375 88.875 C-18.87142578 89.37 -18.87142578 89.37 -19.82421875 89.875 C-26.176722 92.74120537 -33.11516078 92.72679731 -39.9375 91.875 C-47.45036138 89.02691059 -52.93198468 82.64293967 -56.9375 75.875 C-59.50426503 70.09977868 -60.06134462 64.39383387 -58.1328125 58.35546875 C-52.56660759 45.86029842 -41.07061791 39.81960241 -28.9375 34.875 C-23.4635253 32.90300911 -17.79104401 30.875 -11.9375 30.875 C-12.36119072 29.2463449 -12.8019623 27.62212622 -13.25 26 C-13.49363281 25.09507813 -13.73726562 24.19015625 -13.98828125 23.2578125 C-14.80419852 20.55386681 -14.80419852 20.55386681 -17.9375 18.875 C-25.47211059 17.59693982 -30.63394276 20.26028893 -36.8984375 24.06640625 C-41.41424902 26.62774599 -44.76930759 27.46257268 -49.9453125 26.53125 C-51.9375 25.875 -51.9375 25.875 -54.5625 23.9375 C-56.62562477 19.34235846 -56.28858314 15.67721943 -54.9375 10.875 C-51.51202817 3.63479817 -44.94621544 -0.6798837 -37.9375 -4.125 C-24.81257647 -8.79237508 -11.65974211 -8.33120087 0 0 Z M-27.625 58.27734375 C-29.15875225 60.14432194 -29.62254966 61.49106818 -29.9375 63.875 C-29.11250647 65.87011774 -29.11250647 65.87011774 -26.9375 66.875 C-20.63636302 66.76820107 -16.40871878 64.9037104 -10.9375 61.875 C-10.9375 58.245 -10.9375 54.615 -10.9375 50.875 C-17.40407289 50.875 -22.89385977 54.17045119 -27.625 58.27734375 Z " fill="#11ACF7" transform="translate(762.9375,94.125)"/>
<path d="M0 0 C6.22321599 6.22321599 9.45199708 12.46466294 9.5625 21.4375 C9.36355081 32.36727129 4.79041397 40.27673361 -2.58984375 48.0625 C-10.2771007 55.35674791 -19.45490564 58.68216633 -29.8125 60.1875 C-29.4622271 62.15183498 -29.4622271 62.15183498 -28.8125 64.1875 C-24.60854282 66.81497324 -19.59823026 67.07206626 -14.8125 66.1875 C-11.24457709 64.50691818 -8.06717411 62.40218718 -4.8125 60.1875 C-1.04371726 57.80662228 1.67460284 56.46955607 6.1875 56.1875 C9.66908687 57.15910564 11.92870214 58.36560239 14.1875 61.1875 C15.21133011 67.01931661 14.53334087 72.27329622 11.1875 77.1875 C4.63889372 85.88687402 -4.84602176 93.9583792 -15.8125 96.1875 C-25.18270972 97.23008244 -32.81583675 95.89422348 -40.4453125 90.234375 C-50.76782735 81.42172053 -57.06894494 70.75762193 -58.8125 57.1875 C-60.16936307 37.87756873 -57.04457296 20.02321035 -44.3125 4.6875 C-32.17640194 -8.15292517 -14.83446906 -9.55999117 0 0 Z M-27 23.3125 C-29.38992894 27.10342177 -30.08733967 30.80791328 -30.8125 35.1875 C-24.49373391 34.55562339 -20.03885969 33.2996874 -15.375 28.875 C-13.5249749 26.24559753 -13.5249749 26.24559753 -13.9375 23 C-14.60541179 20.08450292 -14.60541179 20.08450292 -16.8125 18.1875 C-21.36779377 18.1875 -23.7938982 20.1980011 -27 23.3125 Z " fill="#FE0496" transform="translate(419.8125,89.8125)"/>
<path d="M0 0 C7.43883631 5.21192353 10.84850572 11.14682992 13 20 C13.23192308 22.71835429 13.38114127 25.28684937 13.375 28 C13.37367065 29.05501709 13.37367065 29.05501709 13.37231445 30.13134766 C13.24628926 35.62144007 12.49517944 38.80578468 9 43 C5.58078453 45.27947698 4.09689823 45.32513105 0.0625 45.375 C-0.97777344 45.40335938 -2.01804687 45.43171875 -3.08984375 45.4609375 C-6.68426569 44.89161966 -7.79346875 43.83623738 -10 41 C-11.26875645 37.19373065 -11.31963223 33.58404259 -11.5234375 29.59375 C-12.05354288 26.7085863 -12.73819819 25.79008913 -15 24 C-18.02147171 26.4912413 -18.6949582 28.73238991 -19.5625 32.5 C-19.80742188 33.55703125 -20.05234375 34.6140625 -20.3046875 35.703125 C-21.30621171 40.45192519 -22.19909814 45.21343362 -23 50 C-22.154375 49.95359375 -21.30875 49.9071875 -20.4375 49.859375 C-7.35843239 49.44322285 -7.35843239 49.44322285 -2 54 C-0.23021562 56.82363656 0 57.99394901 0 61.4375 C-1.24308988 65.8660077 -3.14511137 67.75968396 -7 70 C-11.75739926 72.29254201 -15.67296631 74 -21 74 C-20.98428955 75.25546631 -20.9685791 76.51093262 -20.95239258 77.80444336 C-20.89778869 82.49529518 -20.86353969 87.18611931 -20.83520508 91.87719727 C-20.82018755 93.90133399 -20.79976739 95.92543855 -20.77368164 97.94946289 C-20.73698733 100.87133761 -20.72020292 103.79277935 -20.70703125 106.71484375 C-20.69154739 107.60896469 -20.67606354 108.50308563 -20.66011047 109.42430115 C-20.65842831 115.81028955 -21.30548278 122.38536814 -25.23982239 127.66319275 C-27.94621492 130.27915825 -30.39516444 131.32701247 -34.0625 131.5 C-38.03648429 130.99536707 -39.94619078 130.53029907 -43 128 C-52.08795418 115.34177811 -48.10326103 92.68212959 -48 78 C-48.67039307 78.02030273 -49.34078613 78.04060547 -50.03149414 78.06152344 C-50.91957764 78.07731445 -51.80766113 78.09310547 -52.72265625 78.109375 C-53.59929932 78.12967773 -54.47594238 78.14998047 -55.37915039 78.17089844 C-60.4420023 77.84076371 -64.35475967 75.54241281 -68 72.125 C-69.42081548 69.10576711 -69.52918746 67.30742161 -69 64 C-65.69201998 58.83128122 -61.81519407 55.96932991 -56 54 C-53.00156948 53.44594219 -50.04450172 53.14094915 -47 53 C-47.05220703 51.74509766 -47.05220703 51.74509766 -47.10546875 50.46484375 C-47.48756581 34.0346703 -44.37285141 16.81895512 -32.671875 4.39453125 C-23.44041844 -3.30553883 -10.82243818 -6.24371433 0 0 Z " fill="#B8F305" transform="translate(1033,56)"/>
<path d="M0 0 C9.12040781 8.01614319 14.32810815 21.43753922 15.1640625 33.33496094 C16.05484502 52.82082855 13.60947219 72.91638769 0 88 C-2.1484375 89.73046875 -2.1484375 89.73046875 -4.375 91.1875 C-5.10460937 91.67605469 -5.83421875 92.16460937 -6.5859375 92.66796875 C-14.05681779 96.79025059 -23.20598533 97.63159453 -31.44140625 95.3125 C-33.46357709 94.36275244 -35.18960385 93.30659813 -37 92 C-37.59039063 91.59910156 -38.18078125 91.19820313 -38.7890625 90.78515625 C-49.4014591 82.72066984 -54.07943289 69.68586852 -56.08422852 56.9621582 C-58.62684132 38.16475621 -54.68528473 20.47517875 -43.5625 5 C-38.59841236 -1.25906702 -32.4081032 -5.38166691 -24.48046875 -6.7734375 C-14.86468341 -7.6517297 -7.63196188 -6.01803446 0 0 Z M-22 21 C-29.05378328 28.29701719 -29.48066448 37.52678933 -29.42358398 47.16137695 C-29.21101119 54.05233834 -28.23487102 60.82686504 -25 67 C-22.48062063 69.33179011 -22.48062063 69.33179011 -20 71 C-16.3720655 69.33311117 -15.11987953 68.23119624 -13.25 64.625 C-11.15477413 58.54884499 -10.81748638 53.12259175 -10.8125 46.75 C-10.79413086 45.53763672 -10.79413086 45.53763672 -10.77539062 44.30078125 C-10.75596602 36.20719523 -11.48061732 28.30786592 -17 22 C-19.62766389 21.03780298 -19.62766389 21.03780298 -22 21 Z " fill="#12ACF7" transform="translate(686,94)"/>
<path d="M0 0 C3.77774721 2.75673445 4.79734883 5.56619162 6 10 C6.18901435 12.71291189 6.28456712 15.29265342 6.25 18 C6.24613281 18.75055664 6.24226563 19.50111328 6.23828125 20.27441406 C6.16842181 24.85214774 5.75754729 29.22636046 5 33.75 C4.01324949 39.85507508 3.74277321 45.8285332 3.6875 52 C3.67009766 52.89686523 3.65269531 53.79373047 3.63476562 54.71777344 C3.63862805 59.84901012 3.97842375 63.63860242 7 68 C10.91379213 69.23211974 13.0167206 69.41516241 16.8125 67.8125 C20.85914859 64.4595626 21.30322184 61.07067135 22 56 C22.11909916 53.21640343 22.18991834 50.47041012 22.1875 47.6875 C22.18814453 46.90713379 22.18878906 46.12676758 22.18945312 45.32275391 C22.13433886 39.09358988 21.58295798 33.00013109 20.71166992 26.8347168 C19.49767506 18.12270917 19.41410857 12.10299935 24.625 4.6875 C28.24173213 2.11771665 31.5985243 1.47867462 36 2 C41.76950584 4.63814382 44.62881094 10.06318162 46.93359375 15.71484375 C53.29727082 35.31869874 54.08638127 59.82334358 45.0625 78.625 C40.7244864 86.8845779 35.3899638 91.9203801 27 96 C17.60065094 98.729958 7.5848043 98.76852136 -1.75 95.8125 C-13.31416234 89.36325562 -18.64567227 82.01879742 -23.01953125 69.5625 C-28.5586639 49.43624908 -25.72119808 25.37448321 -15.484375 7.328125 C-11.20018831 0.53401076 -8.35208874 -2.08802219 0 0 Z " fill="#B8F205" transform="translate(1062,90)"/>
<path d="M0 0 C1.0447348 -0.0159874 2.0894696 -0.03197479 3.16586304 -0.04844666 C4.29400421 -0.05380936 5.42214539 -0.05917206 6.58447266 -0.06469727 C7.74475983 -0.07372574 8.905047 -0.08275421 10.10049438 -0.09205627 C12.55671604 -0.10657359 15.0129765 -0.11544917 17.46923828 -0.11914062 C21.22706273 -0.13103555 24.98324496 -0.18020916 28.74072266 -0.23071289 C31.1261313 -0.24017697 33.51155004 -0.24741208 35.89697266 -0.25219727 C37.58311172 -0.28149574 37.58311172 -0.28149574 39.30331421 -0.31138611 C47.1165241 -0.26620552 47.1165241 -0.26620552 51.05957031 2.71630859 C53.49151854 6.18879026 54.00181305 7.86383527 54.03466797 12.04394531 C54.04427551 13.02869339 54.05388306 14.01344147 54.06378174 15.0280304 C54.06803162 16.09571152 54.07228149 17.16339264 54.07666016 18.26342773 C54.08236023 19.35854172 54.0880603 20.4536557 54.09393311 21.58195496 C54.10339229 23.90293407 54.10992072 26.22392667 54.11376953 28.54492188 C54.12346688 32.09390769 54.15447887 35.64231251 54.18603516 39.19116211 C54.19256589 41.44441387 54.19781608 43.69766979 54.20166016 45.95092773 C54.21400696 47.01253616 54.22635376 48.07414459 54.23907471 49.16792297 C54.21137322 58.34487758 54.21137322 58.34487758 50.87353516 62.30639648 C47.0704776 65.74141622 43.58741627 66.42569316 38.56738281 66.45166016 C37.72615875 66.45804001 36.88493469 66.46441986 36.01821899 66.47099304 C35.11711395 66.47210587 34.21600891 66.47321869 33.28759766 66.47436523 C31.88578751 66.47935783 31.88578751 66.47935783 30.45565796 66.48445129 C28.48037202 66.48950926 26.50507756 66.49185997 24.52978516 66.49169922 C21.51662017 66.49388338 18.50382278 66.5120447 15.49072266 66.53100586 C13.5688489 66.53394052 11.64697342 66.53592483 9.72509766 66.53686523 C8.37951279 66.54764351 8.37951279 66.54764351 7.00674438 66.55863953 C0.59026762 66.53534695 -5.28243471 65.9710181 -10.12646484 61.30639648 C-11.11116238 58.33277143 -11.26235783 55.56747485 -11.28759766 52.44946289 C-11.2972052 51.48811432 -11.30681274 50.52676575 -11.31671143 49.5362854 C-11.3209613 48.50393768 -11.32521118 47.47158997 -11.32958984 46.40795898 C-11.33528992 45.34024261 -11.34098999 44.27252625 -11.34686279 43.17245483 C-11.3563035 40.91470325 -11.36284308 38.65693795 -11.36669922 36.39916992 C-11.3764087 32.95133379 -11.40744305 29.50409287 -11.43896484 26.05639648 C-11.44549486 23.86108752 -11.45074534 21.6657743 -11.45458984 19.47045898 C-11.46693665 18.44215973 -11.47928345 17.41386047 -11.49200439 16.35440063 C-11.47522825 10.94522141 -11.29476136 6.91963666 -8.12646484 2.30639648 C-4.84213957 0.1168463 -3.8177561 0.04416212 0 0 Z " fill="#FC620A" transform="translate(101.12646484375,127.693603515625)"/>
<path d="M0 0 C1.56615807 -0.00430527 1.56615807 -0.00430527 3.16395569 -0.00869751 C5.36866804 -0.01073595 7.57339857 -0.00522155 9.77807617 0.00732422 C13.14478215 0.02336425 16.51028467 0.00747576 19.87695312 -0.01171875 C22.02213806 -0.00973596 24.16732224 -0.00589156 26.3125 0 C27.31578842 -0.00607269 28.31907684 -0.01214539 29.35276794 -0.0184021 C34.64208491 0.03456073 38.81311215 0.14251573 43.22265625 3.3984375 C47.08653339 8.61357409 46.67413045 14.26721334 46.65625 20.4921875 C46.66149185 21.55707397 46.6667337 22.62196045 46.6721344 23.71911621 C46.67854233 25.96491628 46.67723358 28.21074997 46.66870117 30.45654297 C46.66018464 33.88700196 46.68898212 37.31579879 46.72070312 40.74609375 C46.72231516 42.93229117 46.72173757 45.11849153 46.71875 47.3046875 C46.72998398 48.32671265 46.74121796 49.34873779 46.75279236 50.4017334 C46.69461303 56.36294391 46.2245951 59.87065219 42.22265625 64.3984375 C39.70048156 65.65952485 37.92525134 65.54596106 35.10205078 65.57543945 C34.033992 65.58827469 32.96593323 65.60110992 31.86550903 65.61433411 C30.70719574 65.62172104 29.54888245 65.62910797 28.35546875 65.63671875 C27.16919891 65.6447905 25.98292908 65.65286224 24.76071167 65.66117859 C22.24722764 65.67502707 19.73372474 65.68574579 17.22021484 65.69360352 C13.37040775 65.71083566 9.52145486 65.75471887 5.671875 65.79882812 C3.23307925 65.80895297 0.79427618 65.81746972 -1.64453125 65.82421875 C-2.79879608 65.84172684 -3.95306091 65.85923492 -5.14230347 65.87727356 C-6.21666656 65.87434799 -7.29102966 65.87142242 -8.39794922 65.8684082 C-9.34233856 65.87427444 -10.28672791 65.88014069 -11.25973511 65.88618469 C-14.59977843 65.23910368 -15.74196662 64.09035482 -17.77734375 61.3984375 C-18.7498005 58.16858642 -18.9092524 55.07893892 -18.93847656 51.71923828 C-18.94808411 50.82125519 -18.95769165 49.92327209 -18.96759033 48.99807739 C-18.97184021 48.03964935 -18.97609009 47.08122131 -18.98046875 46.09375 C-18.98616882 45.09640839 -18.9918689 44.09906677 -18.9977417 43.07150269 C-19.00717084 40.96515965 -19.01371738 38.85880201 -19.01757812 36.75244141 C-19.02728843 33.54172916 -19.05833386 30.33165607 -19.08984375 27.12109375 C-19.09637406 25.07031628 -19.10162442 23.01953426 -19.10546875 20.96875 C-19.11781555 20.01437042 -19.13016235 19.05999084 -19.1428833 18.07669067 C-19.12413205 12.42658772 -18.68417798 8.30837357 -15.77734375 3.3984375 C-11.39055478 -0.76765594 -5.69560289 -0.03440487 0 0 Z " fill="#12ACF6" transform="translate(108.77734375,62.6015625)"/>
<path d="M0 0 C2.77243128 3.41222311 3.29471743 5.45437723 3.72265625 9.71875 C3.3299789 12.86016881 2.37011654 14.48402693 0.4375 17 C-1.72369741 18.52063632 -3.77379758 19.84109377 -6.0625 21.125 C-12.36597065 24.4056647 -12.36597065 24.4056647 -16.3203125 29.98046875 C-16.914079 33.54938443 -17.17156535 35.95588797 -15.3046875 39.15625 C-12.44958428 42.4850699 -9.28332453 45.25707505 -5.875 48 C-1.27899358 51.87141081 1.01397825 55.83886858 1.81640625 61.828125 C2.24774541 72.68117492 -1.35726782 80.47904379 -8.29296875 88.67578125 C-16.68028683 97.26520338 -26.71264302 102.42144494 -38.6953125 103.03125 C-44.16407125 102.971645 -48.0005922 102.16312283 -52.5 98.8125 C-55.05249425 95.33182602 -55.5625 93.30993465 -55.5625 89 C-54.25696762 84.46903469 -52.80251708 81.41480701 -48.6484375 78.96875 C-44.65991844 77.11640407 -40.52796708 75.63145738 -36.390625 74.1484375 C-33.48546301 73.18236872 -33.48546301 73.18236872 -31.5625 71 C-30.5885491 66.30732751 -30.9117562 64.10809953 -33.36328125 59.93359375 C-35.30059405 57.10343612 -37.35066167 54.35744683 -39.39941406 51.60742188 C-45.80050834 42.76090535 -48.47549201 35.96933053 -47.5625 25 C-45.48569145 15.44387416 -38.9771346 8.51368877 -31.5 2.5625 C-22.44825892 -2.25225589 -9.27978811 -6.46908306 0 0 Z " fill="#FE0496" transform="translate(486.5625,84)"/>
<path d="M0 0 C1.87090368 3.00971462 1.99785758 4.88216681 2.0625 8.4375 C-0.22645217 16.11222197 -8.23207776 19.54637946 -14.7421875 23.484375 C-17.10673838 24.80233583 -17.10673838 24.80233583 -18 27 C-18.66865615 31.77611534 -18.59958629 35.04440935 -16 39.1875 C-13.85586646 41.41715453 -11.46947149 43.10971894 -8.9375 44.875 C-3.24430997 49.02136104 -1.11945698 53.95446746 0 60.8125 C0.58865777 70.17359435 -4.18529909 78.94206682 -10 86 C-17.08363651 93.51871592 -26.45659739 99.96562143 -37 101 C-49.22642878 101.25565718 -49.22642878 101.25565718 -53.75 97.5625 C-56.92767353 93.94348292 -57.29364833 91.86944753 -57.21484375 87.02734375 C-56.79062514 83.02426271 -54.73087056 80.7780235 -52.0625 77.9375 C-48.1841778 75.48386759 -44.2393516 74.36773614 -39.83984375 73.125 C-36.70071475 71.88143858 -35.12355735 70.60098476 -33 68 C-32.27115451 64.86596441 -32.48508767 62.94238672 -34.03515625 60.10546875 C-35.63851496 57.69819759 -37.32011847 55.35456011 -39 53 C-40.61004255 50.62129197 -42.18279735 48.21958123 -43.75 45.8125 C-44.13857178 45.23048828 -44.52714355 44.64847656 -44.92749023 44.04882812 C-49.26098163 37.40256607 -51.09619482 31.54545614 -49.53515625 23.6484375 C-46.77907426 13.11335485 -41.15795669 5.82779062 -32 0 C-22.21850739 -5.3904708 -9.04470263 -8.14023237 0 0 Z " fill="#FE0496" transform="translate(544,86)"/>
<path d="M0 0 C4.47106095 2.08928082 5.95208676 4.16935355 7.8125 8.6875 C8.23144531 9.68136719 8.65039062 10.67523438 9.08203125 11.69921875 C9.38496094 12.45847656 9.68789063 13.21773437 10 14 C10.50789062 13.45730469 11.01578125 12.91460937 11.5390625 12.35546875 C12.22742188 11.64003906 12.91578125 10.92460938 13.625 10.1875 C14.63433594 9.12595703 14.63433594 9.12595703 15.6640625 8.04296875 C20.64710846 3.68488675 25.29402639 2.43795623 31.8125 2.5 C32.51737549 2.50644531 33.22225098 2.51289062 33.94848633 2.51953125 C40.02926279 2.73222899 44.47150928 3.89044455 49 8 C52.52108303 11.83814738 54.28413409 15.45944022 54.5625 20.6875 C54.30255361 24.87552513 53.19398794 27.15130805 50 30 C46.02201098 32.25777755 42.5155251 32.31687895 38 32 C37.030625 31.67 36.06125 31.34 35.0625 31 C31.26936175 29.76142424 27.9090029 29.16073632 24 30 C17.89850611 33.25495516 14.98496692 38.58750756 13 45 C11.65376584 53.28165489 11.69835583 61.7972583 11.48242188 70.16601562 C11.16967784 79.4008158 10.58374549 88.89784935 4 96 C0.31791128 97.70954119 -1.72964533 98.29543132 -5.6875 97.375 C-11.68481766 93.80902734 -13.27637336 89.51025858 -15 83 C-17.76156446 70.78620815 -17.279971 57.48386908 -17.61254883 45.01049805 C-17.66266972 43.20630909 -17.71804062 41.40225861 -17.77856445 39.59838867 C-18.7215682 11.46840911 -18.7215682 11.46840911 -12 4 C-7.96114646 0.66355577 -5.25552401 -0.78273762 0 0 Z " fill="#11ACF7" transform="translate(806,91)"/>
<path d="M0 0 C2.66597628 3.45008695 3.27796865 5.39039358 3.125 9.75 C0.74960223 13.81116394 -1.18004853 15.85144292 -5.6875 17.25 C-10.09252363 18.04489148 -13.80519286 17.63086705 -17.875 15.75 C-21.07010299 13.52946511 -24.11403232 11.27193535 -25.875 7.75 C-26.37692696 3.31631189 -26.42163334 1.44847593 -23.625 -2.125 C-16.08633029 -7.95033568 -7.11386203 -5.56737028 0 0 Z " fill="#B5F206" transform="translate(966.875,169.25)"/>
<path d="M0 0 C0.33 0.66 0.66 1.32 1 2 C-1.375 3.5625 -1.375 3.5625 -4 5 C-4.66 4.67 -5.32 4.34 -6 4 C-4.02 2.68 -2.04 1.36 0 0 Z M-8 5 C-7.34 5 -6.68 5 -6 5 C-7.38188453 8.21043882 -8.92421903 10.04936365 -11.625 12.25 C-12.57246094 13.03117187 -12.57246094 13.03117187 -13.5390625 13.828125 C-14.02117188 14.21484375 -14.50328125 14.6015625 -15 15 C-13.15014033 11.06048404 -10.92434659 8.21678125 -8 5 Z " fill="#05B1F8" transform="translate(655,89)"/>
</svg>
