<?xml version="1.0" encoding="UTF-8"?>
<svg version="1.1" xmlns="http://www.w3.org/2000/svg" width="1920" height="384">
<path d="M0 0 C633.6 0 1267.2 0 1920 0 C1920 126.72 1920 253.44 1920 384 C1286.4 384 652.8 384 0 384 C0 257.28 0 130.56 0 0 Z " fill="#262421" transform="translate(0,0)"/>
<path d="M0 0 C0.9175708 0.00491455 1.8351416 0.0098291 2.78051758 0.01489258 C15.45003363 0.23323598 27.54443422 3.17086252 36.9375 12.125 C46.71961605 22.61854268 48.11887294 32.26173865 47.8671875 46.171875 C47.24190743 63.39493605 38.26894917 77.10486054 26.12109375 88.703125 C20.01158217 94.3125 20.01158217 94.3125 17.625 94.3125 C17.625 94.9725 17.625 95.6325 17.625 96.3125 C18.8315625 96.4053125 18.8315625 96.4053125 20.0625 96.5 C27.9916709 98.3084074 34.65041061 102.91128272 39.625 109.3125 C46.77325071 120.91655685 48.42323422 133.55681015 45.97265625 146.8515625 C41.52292343 162.85532261 31.77100875 173.28718262 17.625 181.3125 C-1.81067635 192.27621486 -25.83095871 194.19357186 -47.375 189.3125 C-48.1175 189.19068359 -48.86 189.06886719 -49.625 188.94335938 C-52.00266147 188.37735357 -53.45903744 187.84196763 -55.375 186.3125 C-59.51211637 178.08931072 -60.40312752 168.79524869 -61.125 159.75 C-61.18570679 159.03672546 -61.24641357 158.32345093 -61.30895996 157.58856201 C-62.62961437 141.56274556 -62.6377227 125.50792133 -62.625 109.4375 C-62.62431519 108.21110809 -62.62363037 106.98471619 -62.6229248 105.72116089 C-62.47542875 25.46788757 -62.47542875 25.46788757 -54.640625 17.5625 C-38.09756576 7.30323846 -19.66332835 -0.12556869 0 0 Z " fill="#13ACF5" transform="translate(889.375,88.6875)"/>
<path d="M0 0 C0.69974442 -0.00832352 1.39948883 -0.01664703 2.12043762 -0.02522278 C4.43028357 -0.04928647 6.73984673 -0.05809145 9.04980469 -0.06469727 C10.66160158 -0.07366827 12.27339764 -0.0827902 13.88519287 -0.09205627 C17.26446554 -0.10854028 20.64363922 -0.11624497 24.02294922 -0.11914062 C28.33830878 -0.12451568 32.65272837 -0.16216089 36.96782303 -0.20788479 C40.29829235 -0.23773697 43.62853789 -0.24486598 46.95912933 -0.24586678 C48.54906253 -0.25005501 50.13899725 -0.26243298 51.72879791 -0.28338432 C67.82667681 -0.47859821 67.82667681 -0.47859821 73.97167969 5.30639648 C76.49145942 7.98366245 76.97167969 8.59731348 76.97167969 12.30639648 C77.63167969 12.30639648 78.29167969 12.30639648 78.97167969 12.30639648 C79.01292969 11.58452148 79.05417969 10.86264648 79.09667969 10.11889648 C80.36633082 6.03787498 82.54890754 4.82108622 85.97167969 2.30639648 C88.91578268 0.83434499 91.90984492 1.11593322 95.14013672 1.08178711 C95.87860336 1.07039703 96.61707001 1.05900696 97.37791443 1.04727173 C105.11176727 0.93652969 112.84657592 0.88917024 120.58105469 0.84643555 C124.24787357 0.82418435 127.9136708 0.78245434 131.58007812 0.72338867 C136.01103218 0.65214828 140.44102692 0.61558109 144.87252426 0.60331726 C146.55742945 0.59294033 148.24230702 0.57057203 149.9268837 0.53572083 C164.7560584 0.24487074 164.7560584 0.24487074 170.00634766 4.72631836 C173.8286887 8.86582623 174.12735979 11.90794951 174.14868164 17.39892578 C174.15525284 18.12924515 174.16182404 18.85956451 174.16859436 19.61201477 C174.18834281 22.03488261 174.19999531 24.45768833 174.20996094 26.88061523 C174.21403646 27.70851877 174.21811199 28.53642231 174.22231102 29.38941383 C174.24318153 33.77409237 174.25747718 38.15873955 174.2668457 42.54345703 C174.27789303 47.06505851 174.3122704 51.58616553 174.3520174 56.10759258 C174.3782138 59.58983755 174.38654036 63.07196547 174.39012718 66.55430031 C174.39498786 68.22040954 174.40658709 69.88651373 174.42516518 71.55252647 C174.44961476 73.89104214 174.44858127 76.22828915 174.44165039 78.56689453 C174.46086548 79.59041519 174.46086548 79.59041519 174.48046875 80.63461304 C174.42573878 85.72791321 173.23293223 89.44645519 169.97167969 93.30639648 C165.48832438 97.06522372 161.30892477 97.80949157 155.47924805 97.82397461 C154.7660994 97.83098389 154.05295074 97.83799316 153.31819153 97.84521484 C150.9822287 97.86268986 148.6474966 97.8512121 146.31152344 97.83764648 C144.67680124 97.84034415 143.04208062 97.84422885 141.40736389 97.84924316 C137.99041382 97.85512369 134.5738835 97.84662124 131.15698242 97.82788086 C126.78664525 97.80507361 122.41728982 97.81823413 118.04698849 97.84217072 C114.67453161 97.85665264 111.30230599 97.85201214 107.929842 97.84165955 C106.31876063 97.8389998 104.70765796 97.84223549 103.09660149 97.85157776 C100.84207718 97.86178555 98.58912459 97.84618694 96.3347168 97.82397461 C95.05455185 97.82079224 93.7743869 97.81760986 92.45542908 97.81433105 C87.19422712 97.04724191 84.14769968 94.57526016 80.59667969 90.74389648 C78.97167969 88.30639648 78.97167969 88.30639648 78.97167969 85.30639648 C78.31167969 85.30639648 77.65167969 85.30639648 76.97167969 85.30639648 C76.95105469 86.00764648 76.93042969 86.70889648 76.90917969 87.43139648 C75.53298214 91.65173562 72.56575587 93.82664087 68.97167969 96.30639648 C65.49252668 97.46611415 62.72869581 97.46196955 59.05688477 97.49926758 C58.35728638 97.50744507 57.65768799 97.51562256 56.93688965 97.52404785 C54.621672 97.54885732 52.30651562 97.56540887 49.99121094 97.57983398 C48.80224999 97.5878195 48.80224999 97.5878195 47.58926964 97.59596634 C43.39147281 97.6226822 39.19370552 97.64205963 34.99584961 97.65649414 C31.53008536 97.66981713 28.06491217 97.69764074 24.59936523 97.73852539 C20.40721447 97.78797712 16.21559853 97.81263061 12.02316856 97.81972122 C10.43042855 97.82641307 8.8376995 97.84158119 7.24512672 97.86561203 C-7.6906397 98.07807386 -7.6906397 98.07807386 -13.57051086 93.96768188 C-17.67209973 89.29360756 -18.41313829 84.84709404 -18.47998047 78.77563477 C-18.4916626 78.04633759 -18.50334473 77.31704041 -18.51538086 76.56564331 C-18.54880925 74.16919598 -18.55968658 71.77336853 -18.56738281 69.37670898 C-18.57957432 67.70050853 -18.59206068 66.02431019 -18.60482788 64.34811401 C-18.62726295 60.83952963 -18.63685369 57.33116182 -18.63916016 53.82250977 C-18.64444288 49.34093268 -18.69578706 44.86117144 -18.75867653 40.38008308 C-18.79966832 36.91918952 -18.80880327 33.4587303 -18.80927658 29.99761581 C-18.81463992 28.3462441 -18.83141365 26.69486629 -18.8601265 25.0437355 C-19.0911057 10.55466053 -19.0911057 10.55466053 -14.72900391 5.35668945 C-10.04814457 0.92728091 -6.4235263 0.05407793 0 0 Z " fill="#B7F105" transform="translate(57.0283203125,191.693603515625)"/>
<path d="M0 0 C6.4555035 3.1124749 9.95381375 7.90658457 12.37365723 14.57751465 C13.59634063 19.30644706 13.38360299 24.09866514 13.328125 28.953125 C13.32625183 30.08973572 13.32437866 31.22634644 13.32244873 32.3973999 C13.31574935 34.79442288 13.30187719 37.19143532 13.28125 39.58837891 C13.25021857 43.22438948 13.2402834 46.85996405 13.234375 50.49609375 C13.22519786 52.83594269 13.21481985 55.17578729 13.203125 57.515625 C13.19887512 58.58790344 13.19462524 59.66018188 13.19024658 60.76495361 C13.14480784 65.65700124 12.98512332 70.46727355 12.48461914 75.33447266 C11.68829616 84.15393096 11.94123208 93.00740305 12.01653099 101.85309219 C12.04344657 105.19208853 12.06114085 108.53101601 12.07600403 111.87008667 C12.11848975 121.35540993 12.16649592 130.84059606 12.24682617 140.32568359 C12.29547891 146.14909962 12.32437655 151.97233223 12.34057045 157.79592514 C12.35042814 160.00382838 12.36757716 162.21171224 12.39235497 164.41949844 C12.42629737 167.51052294 12.43499843 170.60070597 12.43823242 173.69189453 C12.45418457 174.59086456 12.47013672 175.48983459 12.48657227 176.41604614 C12.45101325 183.9133877 10.75112654 191.52132469 5.375 197.0625 C1.90939662 199.88970276 -0.3331964 200.36358796 -4.84765625 200.265625 C-9.69231988 199.66773548 -12.74920733 197.53531983 -15.734375 193.87109375 C-18.18268996 190.3326957 -20.16665468 187.26362722 -21 183 C-21.67804688 183.79664063 -22.35609375 184.59328125 -23.0546875 185.4140625 C-31.04188735 194.58979933 -39.08804742 201.97073608 -51.74609375 203.28515625 C-60.74600596 203.73228565 -66.67280358 201.55936307 -73.59765625 195.86328125 C-89.77530905 180.71045713 -97.03004477 156.96282481 -98.203125 135.23828125 C-98.47334501 112.60735567 -95.39663419 85.9780244 -79.68359375 68.41015625 C-72.87284234 61.8338908 -66.0571278 57.94357977 -56.5 57.5 C-46.60325693 57.91876205 -38.2218405 62.63840221 -31.39453125 69.6484375 C-28 73.54691877 -28 73.54691877 -28 76 C-27.34 76 -26.68 76 -26 76 C-26.01047363 75.44465576 -26.02094727 74.88931152 -26.03173828 74.31713867 C-26.22234245 62.46228342 -25.99813882 50.70213756 -25.125 38.875 C-25.04652832 37.78727295 -24.96805664 36.6995459 -24.88720703 35.57885742 C-22.93406238 10.92087486 -22.93406238 10.92087486 -15.5 2 C-11.018907 -1.37225111 -5.28764156 -0.78443034 0 0 Z " fill="#13ACF5" transform="translate(1387,77)"/>
<path d="M0 0 C13.97860121 13.81387022 17.50628222 32.63603388 17.7578125 51.54296875 C17.78012939 52.53651367 17.80244629 53.53005859 17.82543945 54.55371094 C17.79665638 63.92921344 15.5935834 72.99105258 8.9453125 79.921875 C4.27018444 83.8665143 -0.56768077 84.76491217 -6.48046875 84.50390625 C-11.63601612 84.00941325 -15.27989866 83.10390053 -18.9296875 79.35546875 C-25.19622136 71.1839086 -25.10135938 60.87261296 -25.46875 51.015625 C-25.62723146 48.21872064 -25.83808712 45.93504207 -26.6796875 43.29296875 C-28.21879486 43.15609161 -29.76156045 43.0601287 -31.3046875 42.98046875 C-32.16320312 42.92246094 -33.02171875 42.86445313 -33.90625 42.8046875 C-37.77447912 43.48571375 -40.09285449 45.47777766 -42.6796875 48.29296875 C-53.6191309 65.02642565 -56.05825676 85.80832503 -55.99536133 105.36181641 C-55.99217814 107.42403044 -56.01586878 109.4848341 -56.04101562 111.546875 C-56.09471942 123.01186473 -55.16496405 135.27254327 -47.1171875 144.10546875 C-42.98846583 147.81073179 -39.93286567 147.67859022 -34.51953125 147.65234375 C-25.66555813 146.82369113 -16.82204728 144.11084896 -8.453125 141.15234375 C-2.61377581 139.34296794 3.22038836 139.30027734 8.7578125 141.91796875 C13.30981965 146.1369022 15.55570581 149.27489729 15.8828125 155.54296875 C15.46718815 165.12830521 10.66820257 171.80870921 3.81640625 178.19921875 C-9.49761308 189.36715985 -24.2799851 194.88456618 -41.59912109 193.50537109 C-58.42536509 191.78760152 -70.00694065 183.26501808 -80.8671875 170.66796875 C-99.01426425 147.05843859 -101.34998029 114.24237104 -98.28857422 85.63867188 C-94.06064507 55.69189847 -83.11328061 23.56158287 -59.44921875 3.36328125 C-41.97378241 -9.700162 -18.00838955 -15.49624743 0 0 Z " fill="#FD0495" transform="translate(386.6796875,95.70703125)"/>
<path d="M0 0 C9.29392966 6.63852118 11.23328278 18.8127156 13.17749023 29.32397461 C14.70286267 38.75259436 14.42168978 48.23093568 14.25 57.75 C14.22986093 59.73045025 14.21162353 61.71092077 14.1953125 63.69140625 C14.15200308 68.46145503 14.08340546 73.23049086 14 78 C14.76062744 77.05672852 15.52125488 76.11345703 16.30493164 75.14160156 C18.92596659 71.89119619 21.84161379 69.90160211 25.4375 67.75 C26.52933594 67.08484375 27.62117188 66.4196875 28.74609375 65.734375 C34.73916413 62.53998935 39.69989502 61.63657317 46.375 61.6875 C47.50663574 61.69487183 47.50663574 61.69487183 48.66113281 61.70239258 C55.44009364 61.8456411 60.18368439 62.72012546 65.625 67.125 C79.51439667 83.93848018 79.33799619 103.07843521 79.26074219 123.98901367 C79.25012161 127.39845988 79.26062843 130.80736773 79.2734375 134.21679688 C79.30435082 182.6231027 79.30435082 182.6231027 69 195 C65.07896001 198.64336977 61.78291185 198.51711636 56.62109375 198.33203125 C52.8243999 197.85107897 51.41892661 196.98808581 49 194 C40.23670261 181.30478326 41.67233033 163.45285817 41.4375 148.625 C41.57295735 129.91131525 41.57295735 129.91131525 37 112 C36.67 111.01 36.34 110.02 36 109 C25.11375814 108.16051595 25.11375814 108.16051595 15.484375 112.50390625 C10.28155953 117.74779658 9.86600219 124.40594225 9.5703125 131.37890625 C9.49899435 132.86388091 9.42702974 134.34882464 9.35449219 135.83374023 C9.29908264 136.99327713 9.29908264 136.99327713 9.24255371 138.17623901 C7.10264258 181.61499059 7.10264258 181.61499059 -3.6875 193.1875 C-7.86363147 196.46068412 -12.1334143 196.52587305 -17.2734375 196.46484375 C-20.34581485 195.94104303 -21.37606804 195.35121805 -23.4375 193.0625 C-24.796875 191.0859375 -24.796875 191.0859375 -26 189 C-26.56460937 188.09121094 -26.56460937 188.09121094 -27.140625 187.1640625 C-34.83049398 172.64513077 -33.44356545 153.55379012 -33.33618164 137.71728516 C-33.3127163 134.03395311 -33.31562756 130.35135622 -33.32226562 126.66796875 C-33.29764469 105.23826363 -31.90893814 83.98968703 -29.0625 62.75 C-28.90587891 61.50605469 -28.74925781 60.26210937 -28.58789062 58.98046875 C-27.48368617 50.54276296 -25.88801684 42.29502186 -24 34 C-23.68087106 32.51825469 -23.36183954 31.03648839 -23.04296875 29.5546875 C-20.62250094 19.1433602 -17.80924543 7.64106669 -8.79296875 0.93359375 C-5.62088774 -0.71809985 -3.45759249 -0.7043244 0 0 Z " fill="#FD0495" transform="translate(449,85)"/>
<path d="M0 0 C10.94613696 9.0271362 18.69876417 22.04626449 22.18359375 35.80078125 C22.374375 36.52394531 22.56515625 37.24710938 22.76171875 37.9921875 C29.12445779 64.12486571 25.26842236 94.61646646 12.3515625 118.13671875 C10.72447602 120.78117739 9.02365733 123.30132443 7.18359375 125.80078125 C6.76464844 126.38988281 6.34570312 126.97898437 5.9140625 127.5859375 C-0.80979559 136.37867501 -11.10730206 141.77427809 -21.81640625 143.80078125 C-30.93789301 144.77101637 -39.89027528 144.83324536 -47.81640625 139.80078125 C-48.54859375 139.38828125 -49.28078125 138.97578125 -50.03515625 138.55078125 C-60.18060004 132.43571924 -66.87853161 123.4034954 -71.81640625 112.80078125 C-72.34234375 111.69089844 -72.86828125 110.58101563 -73.41015625 109.4375 C-83.4624998 86.49943176 -83.96909878 57.24697285 -75.09765625 33.7578125 C-74.67484375 32.78199219 -74.25203125 31.80617187 -73.81640625 30.80078125 C-73.54699219 30.17864746 -73.27757812 29.55651367 -73 28.91552734 C-68.87077212 19.57784156 -64.28851699 11.91707719 -56.81640625 4.80078125 C-56.15769531 4.1459375 -55.49898437 3.49109375 -54.8203125 2.81640625 C-39.42682132 -11.67887317 -16.94255932 -12.17085812 0 0 Z " fill="#13ACF5" transform="translate(1025.81640625,140.19921875)"/>
<path d="M0 0 C15.16123517 10.54093175 21.91968497 28.79349679 25.140625 46.48828125 C26.28659928 53.46752309 27.29512549 60.46630279 28.140625 67.48828125 C28.23923828 68.29918213 28.33785156 69.11008301 28.43945312 69.94555664 C29.30413488 78.06905508 29.36120805 86.19614731 29.38085938 94.35717773 C29.3905659 96.78599301 29.42168976 99.21396006 29.453125 101.64257812 C29.54515747 115.13314684 28.93430505 130.43020098 19.671875 141.1953125 C15.85339151 144.4195932 10.80584645 143.82036551 6.0859375 143.7578125 C2.0077884 143.38461318 0.06945115 142.34567261 -2.859375 139.48828125 C-6.47978657 134.81318395 -8.54418803 130.22727896 -9.859375 124.48828125 C-10.44203125 124.93558594 -11.0246875 125.38289062 -11.625 125.84375 C-24.99642539 135.70412501 -39.37856735 139.51525261 -55.859375 137.48828125 C-66.72638392 134.04388427 -74.03281614 125.52236199 -79.6328125 115.98046875 C-82.52297829 110.10809368 -83.22361959 105.05577076 -83.234375 98.61328125 C-83.25886719 97.84886719 -83.28335937 97.08445312 -83.30859375 96.296875 C-83.35681544 86.82934958 -78.77842317 80.70522679 -72.453125 74 C-58.40675317 60.39786583 -35.98885758 48.77657549 -16.07421875 48.44140625 C-15.34332031 48.456875 -14.61242188 48.47234375 -13.859375 48.48828125 C-13.99592455 38.67711483 -13.99592455 38.67711483 -18.859375 30.48828125 C-23.4094827 27.07570048 -28.11147277 26.8669003 -33.6328125 27.00390625 C-41.61097295 28.2015962 -48.61674476 33.10769471 -55.23828125 37.5078125 C-60.20974649 40.51465052 -66.2677414 40.03988835 -71.859375 39.48828125 C-75.6153527 37.38493374 -77.19687207 35.37223206 -78.859375 31.48828125 C-80.00139904 24.66269572 -78.30342885 18.39237356 -74.859375 12.48828125 C-57.01353054 -10.0461863 -23.94439945 -15.56385964 0 0 Z " fill="#13ABF5" transform="translate(1140.859375,140.51171875)"/>
<path d="M0 0 C4.75166278 3.39404484 7.84274785 7.33196027 9.625 12.875 C10.72927278 22.77858325 9.45855194 32.34078697 7.5625 42.0625 C7.38323975 43.00319336 7.20397949 43.94388672 7.01928711 44.91308594 C2.65150682 65.74430399 -5.41531052 85.96482328 -12.34545898 106.04223633 C-13.47021863 109.30406313 -14.58898449 112.56789848 -15.70703125 115.83203125 C-16.04660355 116.81025345 -16.38617584 117.78847565 -16.73603821 118.79634094 C-18.66744673 124.44781223 -20.19047534 130.01991373 -21.375 135.875 C-20.84326172 134.99714844 -20.84326172 134.99714844 -20.30078125 134.1015625 C-15.97060697 127.11876329 -11.25557041 120.48452829 -6.41943359 113.84643555 C-2.80959325 108.8835484 0.72772953 103.88107005 4.1875 98.8125 C13.02899945 85.87071112 22.1288598 73.11628952 31.33203125 60.4296875 C33.55479896 57.363391 35.75862065 54.28466701 37.94921875 51.1953125 C44.45456104 42.04522566 51.17727279 33.27603629 58.625 24.875 C59.07584961 24.35711914 59.52669922 23.83923828 59.99121094 23.30566406 C77.64841732 3.04185802 77.64841732 3.04185802 86.84375 1.50390625 C90.71071455 1.3913405 92.93085726 1.4009513 96.1875 3.625 C99.95092306 12.13360867 97.31700176 21.62392375 94.5 30.0625 C94.18377686 31.05427246 93.86755371 32.04604492 93.54174805 33.06787109 C91.20434253 40.32874782 88.70874847 47.53429091 86.08203125 54.6953125 C84.4703037 59.19085691 83.11109084 63.76036093 81.72045898 68.328125 C80.60220996 71.94878954 79.43799462 75.55141599 78.2578125 79.15234375 C73.56135427 93.48567826 69.05430171 107.80710524 65.27392578 122.41601562 C64.29380589 126.1299989 63.24144005 129.82385653 62.19116211 133.51855469 C61.50819351 135.95724742 61.50819351 135.95724742 61.625 138.875 C70.07282945 129.0875373 70.07282945 129.0875373 78.3125 119.125 C81.90557323 114.70025701 85.64686287 110.44451591 89.48828125 106.234375 C92.05916237 103.39559585 94.54686645 100.4908666 97.01953125 97.56640625 C100.05574489 94.36767023 101.76463596 92.94916931 106.25 92.5625 C109.625 92.875 109.625 92.875 111.625 94.875 C112.02318047 103.23678993 108.52555349 107.27334561 103.05957031 113.28710938 C100.96780372 115.60243441 98.93907172 117.97076397 96.90234375 120.33447266 C95.23990369 122.26170444 93.56992561 124.18217595 91.8984375 126.1015625 C88.8668385 129.58941625 85.86145284 133.09843836 82.875 136.625 C82.42036377 137.16068604 81.96572754 137.69637207 81.49731445 138.24829102 C79.46022716 140.65885048 77.45749511 143.08754303 75.50390625 145.56640625 C70.77893526 151.55970593 65.68751952 157.02268785 60.3125 162.4375 C59.61809814 163.14108643 58.92369629 163.84467285 58.20825195 164.56958008 C57.545271 165.22853271 56.88229004 165.88748535 56.19921875 166.56640625 C55.60713623 167.15623291 55.01505371 167.74605957 54.4050293 168.35375977 C51.59786204 170.75280779 49.35101507 171.78231722 45.6875 172.25 C41.8881757 171.78477662 40.33861566 170.51108379 37.625 167.875 C29.66583377 151.95666753 43.50676847 120.94184326 48.67651367 105.33178711 C52.44538445 94.03131225 56.31683171 82.76590486 60.1875 71.5 C60.62786842 70.21700768 60.62786842 70.21700768 61.07713318 68.90809631 C62.49487637 64.778392 63.91652546 60.65014706 65.34790039 56.52514648 C70.51859353 42.99570539 70.51859353 42.99570539 72.625 28.875 C67.03913928 34.19154243 62.18841718 39.72748899 57.625 45.9375 C56.99053955 46.79311523 56.3560791 47.64873047 55.70239258 48.53027344 C45.39722337 62.51595028 35.38519293 76.71657702 26.3046875 91.53125 C16.47512954 107.55319927 6.21433206 123.34469781 -4.375 138.875 C-4.8695166 139.60154785 -5.3640332 140.3280957 -5.87353516 141.07666016 C-11.07266019 148.67923305 -16.38553525 156.13120408 -22.3125 163.1875 C-22.74892822 163.70868408 -23.18535645 164.22986816 -23.63500977 164.7668457 C-27.10551988 168.79627442 -31.20316519 173.20175933 -36.375 174.875 C-39.73619523 174.69809499 -42.33525525 174.55621208 -45.1875 172.6875 C-50.10112904 165.18775041 -48.66813078 156.00690853 -47.1875 147.625 C-46.98785645 146.47281982 -46.98785645 146.47281982 -46.78417969 145.29736328 C-41.79823507 117.54004072 -32.76980705 90.72503901 -24.2421875 63.90625 C-22.34865321 57.94916342 -20.45900255 51.99090248 -18.5859375 46.02734375 C-18.38056366 45.37685059 -18.17518982 44.72635742 -17.96359253 44.05615234 C-15.54496024 36.33507996 -14.14116145 28.91969519 -13.375 20.875 C-28.73550385 27.54087903 -41.35661539 41.63268956 -52.90332031 53.48779297 C-55.08369221 55.54301412 -56.28955282 55.86590987 -59.3125 56.1875 C-62.375 55.875 -62.375 55.875 -64.3125 54.3125 C-65.82624535 50.83979009 -65.52649751 48.36830706 -64.375 44.875 C-55.72794261 25.43402959 -38.46206434 9.01162693 -19.125 0.25 C-12.76846085 -1.98538293 -6.38375486 -2.12791829 0 0 Z " fill="#E23834" transform="translate(1739.375,109.125)"/>
<path d="M0 0 C6.36170753 4.64930806 10.510265 10.33657031 14.16015625 17.2734375 C14.54300781 17.99015625 14.92585937 18.706875 15.3203125 19.4453125 C18.40501767 29.83287783 17.61669084 44.08147269 12.7109375 53.671875 C12.19917969 54.53039062 11.68742188 55.38890625 11.16015625 56.2734375 C10.34611328 57.71589844 10.34611328 57.71589844 9.515625 59.1875 C0.50441468 74.28076875 -13.87632756 83.90913357 -30.83984375 88.2734375 C-34.51389339 88.84764267 -38.12305837 89.18999946 -41.83984375 89.2734375 C-40.63683055 95.40880482 -39.03176988 97.74292773 -33.83984375 101.2734375 C-26.73456595 103.47852371 -20.93102392 103.12916482 -14.23461914 99.71289062 C-8.48205533 96.58439141 -2.91338386 93.1997732 2.42578125 89.40234375 C6.85348288 86.52034877 12.07573335 86.54709137 17.16015625 87.2734375 C20.28480811 88.9482509 22.55269817 91.05852135 24.16015625 94.2734375 C25.2071818 104.16010499 22.87431847 111.82359592 17.09765625 119.8359375 C7.24214021 131.67089122 -9.36659261 143.08335677 -25.07421875 144.58203125 C-39.54724536 145.10343941 -51.77942294 139.93835507 -62.46484375 130.2109375 C-77.84165008 113.69101127 -84.63977386 92.03249969 -84.0625 69.81640625 C-83.05965442 45.52133812 -74.61775532 21.2973104 -56.83984375 4.2734375 C-40.29572247 -9.17974535 -18.44475733 -11.21400652 0 0 Z " fill="#FD0495" transform="translate(625.83984375,133.7265625)"/>
<path d="M0 0 C10.93470206 6.91902699 17.60291662 16.71697574 20.703125 29.24609375 C22.1069839 38.66754681 23.49828912 52.02851305 18.265625 60.43359375 C14.56824084 64.53305751 11.16383401 67.25831529 5.48828125 67.6015625 C4.44542969 67.60800781 3.40257812 67.61445313 2.328125 67.62109375 C0.76771484 67.64236328 0.76771484 67.64236328 -0.82421875 67.6640625 C-3.74518186 67.43273791 -5.3154293 67.04084878 -7.734375 65.43359375 C-12.77015846 58.81513549 -12.96661164 53.34097714 -13.07617188 45.27734375 C-13.21659489 41.7765654 -13.4846221 39.76521585 -15.6171875 36.93359375 C-17.65040971 35.1866965 -17.65040971 35.1866965 -20.296875 35.43359375 C-23.92544588 36.92223822 -25.230632 39.30017201 -26.796875 42.82421875 C-30.48233819 54.06488148 -31.49096843 65.7172086 -32.734375 77.43359375 C-31.85523438 77.27246094 -30.97609375 77.11132812 -30.0703125 76.9453125 C-21.12318415 75.57286073 -12.42831264 75.77664792 -4.421875 80.30859375 C0.94136745 84.54929708 0.94136745 84.54929708 1.6171875 88.4765625 C1.87892774 92.58863939 1.52391907 94.96312956 -0.484375 98.62109375 C-6.92751584 105.19200226 -19.13817019 110.36407657 -28.37524414 110.46142578 C-29.15375732 110.45224121 -29.93227051 110.44305664 -30.734375 110.43359375 C-30.72549255 111.30532227 -30.71661011 112.17705078 -30.7074585 113.07519531 C-30.62711762 121.3136895 -30.5663118 129.55205102 -30.52712631 137.79084778 C-30.50630291 142.02593782 -30.47808221 146.26070259 -30.43261719 150.49560547 C-30.38897076 154.58698701 -30.36519847 158.67805682 -30.35486603 162.76965332 C-30.3475082 164.32609968 -30.33314024 165.8825301 -30.31145477 167.43884277 C-30.17758633 177.44965137 -30.46649655 184.39968583 -37.171875 192.30859375 C-41.74199208 196.09844694 -45.68870878 196.91256886 -51.52734375 196.73828125 C-55.15780842 196.23708436 -57.04314887 194.88016296 -59.734375 192.43359375 C-64.60321404 185.99458711 -65.8265217 180.61231459 -66.48828125 172.64453125 C-66.55359039 171.87610901 -66.61889954 171.10768677 -66.68618774 170.315979 C-66.89536624 167.81394163 -67.097164 165.3114038 -67.296875 162.80859375 C-67.3654068 161.96077332 -67.4339386 161.11295288 -67.50454712 160.23944092 C-68.66977379 145.61177421 -69.126133 131.11146006 -68.734375 116.43359375 C-69.7095105 116.45425903 -69.7095105 116.45425903 -70.7043457 116.4753418 C-80.90661775 116.60066757 -89.84087705 115.29750501 -97.734375 108.43359375 C-100.44376264 104.3695123 -100.60245314 101.20404153 -99.734375 96.43359375 C-96.47104065 89.8403264 -89.38692854 85.89779405 -82.734375 83.43359375 C-77.46228817 82.28542823 -72.1075282 81.82461368 -66.734375 81.43359375 C-66.78078125 80.24507813 -66.8271875 79.0565625 -66.875 77.83203125 C-67.49171358 54.67809882 -63.78002651 29.92395276 -48.37890625 11.63671875 C-36.30286789 -1.01971835 -16.80894921 -8.26154136 0 0 Z " fill="#B6F105" transform="translate(1546.734375,83.56640625)"/>
<path d="M0 0 C2.875 2.25 2.875 2.25 5 5 C5.556875 5.598125 6.11375 6.19625 6.6875 6.8125 C9.89783132 12.1630522 10.38653396 18.62907343 10.375 24.75 C10.37693359 25.88731567 10.37693359 25.88731567 10.37890625 27.04760742 C10.25419395 34.24478249 9.1351016 41.21626833 8 48.3125 C6.41834119 58.43761264 5.53730115 68.3737143 5.4375 78.625 C5.41107422 79.81520752 5.38464844 81.00541504 5.35742188 82.23168945 C5.39048082 90.53125518 6.93583714 97.38216109 12.53759766 103.74707031 C15.03510806 105.88684049 17.57005233 105.40272126 20.71875 105.28515625 C25.21159672 104.72355041 28.03150165 102.96849835 31.1875 99.8125 C41.30156926 84.11825459 37.77498148 61.23705992 35.08056641 43.78295898 C33.26972058 31.75881035 31.6991198 19.7746243 38.875 9.25 C42.49248136 5.41972562 45.22908051 3.82604668 50.5 3.625 C56.46855206 3.88107649 59.43431981 6.24095027 63.5 10.4375 C76.18264471 25.62366026 77.23223919 49.10608401 77.25 67.9375 C77.25100708 68.67543793 77.25201416 69.41337585 77.25305176 70.17367554 C77.24299403 81.05451445 76.84603827 91.43423561 74 102 C73.70996094 103.08410156 73.41992188 104.16820312 73.12109375 105.28515625 C68.48707952 120.62199833 60.24743092 132.57957725 46.1875 140.52734375 C37.81664199 144.39476222 30.79809167 145.47496431 21.5625 145.375 C20.49451172 145.38660156 19.42652344 145.39820313 18.32617188 145.41015625 C4.60907992 145.3598798 -7.1085636 140.67162671 -17 131 C-30.98198323 113.26900148 -34.44967886 93.46318877 -34.5 71.25 C-34.50267883 70.54121704 -34.50535767 69.83243408 -34.50811768 69.10217285 C-34.49296861 50.41658572 -31.38754187 31.40991085 -22 15 C-21.49339844 14.06027344 -20.98679687 13.12054688 -20.46484375 12.15234375 C-15.58839459 3.48448654 -10.3559686 -1.61531573 0 0 Z " fill="#B7F105" transform="translate(1591,135)"/>
<path d="M0 0 C0.73846664 -0.01139008 1.47693329 -0.02278015 2.23777771 -0.03451538 C9.97163055 -0.14525741 17.7064392 -0.19261687 25.44091797 -0.23535156 C29.10773685 -0.25760276 32.77353408 -0.29933277 36.43994141 -0.35839844 C40.87089546 -0.42963883 45.3008902 -0.46620602 49.73238754 -0.47846985 C51.41729273 -0.48884678 53.10217031 -0.51121507 54.78674698 -0.54606628 C69.61592168 -0.83691636 69.61592168 -0.83691636 74.86621094 3.64453125 C78.68855198 7.78403912 78.98722307 10.8261624 79.00854492 16.31713867 C79.01511612 17.04745804 79.02168732 17.7777774 79.02845764 18.53022766 C79.04820609 20.9530955 79.05985859 23.37590122 79.06982422 25.79882812 C79.07389975 26.62673166 79.07797527 27.4546352 79.0821743 28.30762672 C79.10304482 32.69230526 79.11734046 37.07695244 79.12670898 41.46166992 C79.13775631 45.9832714 79.17213368 50.50437842 79.21188068 55.02580547 C79.23807708 58.50805044 79.24640364 61.99017836 79.24999046 65.4725132 C79.25485114 67.13862243 79.26645037 68.80472662 79.28502846 70.47073936 C79.30947804 72.80925503 79.30844455 75.14650205 79.30151367 77.48510742 C79.31432373 78.16745453 79.32713379 78.84980164 79.34033203 79.55282593 C79.28560206 84.6461261 78.09279551 88.36466808 74.83154297 92.22460938 C70.34818766 95.98343661 66.16878805 96.72770446 60.33911133 96.7421875 C59.62596268 96.74919678 58.91281403 96.75620605 58.17805481 96.76342773 C55.84209198 96.78090275 53.50735988 96.76942499 51.17138672 96.75585938 C49.53666453 96.75855704 47.9019439 96.76244174 46.26722717 96.76745605 C42.85027711 96.77333659 39.43374678 96.76483413 36.0168457 96.74609375 C31.64650853 96.7232865 27.2771531 96.73644702 22.90685177 96.76038361 C19.53439489 96.77486554 16.16216927 96.77022503 12.78970528 96.75987244 C11.17862391 96.75721269 9.56752124 96.76044838 7.95646477 96.76979065 C5.70194046 96.77999844 3.44898787 96.76439983 1.19458008 96.7421875 C-0.08558487 96.73900513 -1.36574982 96.73582275 -2.68470764 96.73254395 C-7.93261789 95.96739274 -10.986627 93.53420482 -14.48095703 89.66210938 C-17.35129898 85.5160599 -17.3031124 82.21090604 -17.32958984 77.27807617 C-17.33455475 76.5752652 -17.33951965 75.87245422 -17.34463501 75.14834595 C-17.35923827 72.8234967 -17.3660559 70.49871571 -17.37158203 68.17382812 C-17.37733543 66.55581155 -17.38309315 64.93779499 -17.38885498 63.31977844 C-17.39936005 59.92615441 -17.4052058 56.53255402 -17.40869141 53.13891602 C-17.41417209 48.79781157 -17.43819291 44.45702141 -17.46666336 40.11601543 C-17.48532051 36.77278236 -17.49049699 33.42962449 -17.49202728 30.08634377 C-17.4950479 28.48641048 -17.50305648 26.88647834 -17.51621246 25.2865963 C-17.5333362 23.04393235 -17.5313776 20.80202962 -17.52490234 18.55932617 C-17.52854797 17.2848613 -17.5321936 16.01039642 -17.53594971 14.6973114 C-16.99468313 9.58249509 -15.41422149 6.34883584 -11.60595703 2.91210938 C-7.62270541 0.15447364 -4.72528121 0.04994904 0 0 Z " fill="#FC610A" transform="translate(152.16845703125,192.775390625)"/>
<path d="M0 0 C0.71081223 -0.0065712 1.42162445 -0.0131424 2.15397644 -0.01991272 C4.51191308 -0.03965955 6.86978588 -0.0513134 9.2277832 -0.0612793 C10.03362162 -0.06535482 10.83946003 -0.06943035 11.66971779 -0.07362938 C15.93768686 -0.09449938 20.20562373 -0.10879514 24.47363281 -0.11816406 C28.87417217 -0.12921025 33.27420331 -0.16358636 37.67456341 -0.20333576 C41.06416232 -0.22953667 44.45364102 -0.23785912 47.84333229 -0.24144554 C49.46478507 -0.2463052 51.0862327 -0.25790152 52.70758629 -0.27648354 C54.9838464 -0.30094255 57.25880381 -0.29989802 59.53515625 -0.29296875 C61.47469429 -0.30176811 61.47469429 -0.30176811 63.45341492 -0.31074524 C69.27149712 0.46936104 72.67525748 2.53939968 76.49720764 6.96008301 C78.39494881 10.79033895 78.5922286 13.38214171 78.59277344 17.64770508 C78.60087791 18.73183937 78.60087791 18.73183937 78.60914612 19.83787537 C78.6215881 22.21175907 78.605174 24.58441908 78.5871582 26.95825195 C78.5873133 28.61682193 78.58880402 30.27539228 78.59156799 31.93395996 C78.59294995 35.40397229 78.58042835 38.87357028 78.55761719 42.34350586 C78.52923297 46.78212614 78.5319725 51.22005836 78.5447073 55.65872955 C78.55167611 59.08178542 78.54386152 62.50468342 78.53145027 65.92771912 C78.52694744 67.5639129 78.52658873 69.2001237 78.53051567 70.83631897 C78.53343978 73.12666316 78.51686504 75.416073 78.49511719 77.70629883 C78.4897142 79.00724487 78.48431122 80.30819092 78.47874451 81.64855957 C77.91772993 86.75459379 76.35291913 90.00978637 72.59106445 93.48950195 C68.37105722 96.33800683 65.04300338 96.31591769 60.05273438 96.35400391 C59.34016983 96.3605751 58.62760529 96.3671463 57.89344788 96.37391663 C55.53614188 96.3936213 53.17889949 96.4053057 50.8215332 96.4152832 C49.61227897 96.42139649 49.61227897 96.42139649 48.37859535 96.42763329 C44.11177452 96.44848171 39.84498573 96.46278886 35.578125 96.47216797 C31.17639586 96.48323142 26.77517237 96.5176337 22.37362194 96.55733967 C18.98406549 96.58351225 15.59462945 96.59186034 12.20498085 96.59544945 C10.58270158 96.60031357 8.96042763 96.6119227 7.3382473 96.63048744 C5.06428559 96.65489433 2.79163133 96.65391182 0.51757812 96.64697266 C-0.77465164 96.6528389 -2.06688141 96.65870514 -3.39826965 96.66474915 C-8.67461865 95.93169038 -11.71335156 93.50183826 -15.22143555 89.61450195 C-18.0888058 85.47274492 -18.04779949 82.15869971 -18.0859375 77.23046875 C-18.0925087 76.52765778 -18.0990799 75.8248468 -18.10585022 75.10073853 C-18.12555347 72.77589812 -18.137239 70.45112222 -18.1472168 68.1262207 C-18.15129232 67.33108377 -18.15536785 66.53594685 -18.15956688 65.71671486 C-18.18041474 61.50824876 -18.19472211 57.29981514 -18.20410156 53.09130859 C-18.21516466 48.75011041 -18.24956665 44.40942499 -18.28927326 40.06840801 C-18.31544779 36.72517459 -18.3237941 33.38206322 -18.32738304 30.03873634 C-18.3322467 28.43878528 -18.34385449 26.8388396 -18.36242104 25.23898888 C-18.38683211 22.99615468 -18.38584472 20.75464578 -18.37890625 18.51171875 C-18.38477249 17.23725388 -18.39063873 15.962789 -18.39668274 14.64970398 C-17.65560363 9.37330879 -15.214732 6.32734645 -11.28393555 2.86450195 C-7.28383488 0.02232516 -4.92055437 0.03757733 0 0 Z " fill="#13ACF6" transform="translate(152.908935546875,95.822998046875)"/>
<path d="M0 0 C0.71241852 -0.0049649 1.42483704 -0.00992981 2.15884399 -0.01504517 C4.52159586 -0.02967884 6.88428052 -0.03647181 9.24707031 -0.04199219 C10.88893638 -0.04774396 12.53080243 -0.05350169 14.17266846 -0.05926514 C17.61934726 -0.06977945 21.06600272 -0.07561886 24.51269531 -0.07910156 C28.9222078 -0.08457821 33.33141023 -0.10858648 37.74082565 -0.13707352 C41.13467294 -0.15573145 44.52844615 -0.16090724 47.92234039 -0.16243744 C49.54739318 -0.16545888 51.17244483 -0.17347023 52.7974472 -0.18662262 C55.07613913 -0.20374471 57.35408173 -0.20178789 59.6328125 -0.1953125 C60.92805847 -0.19895813 62.22330444 -0.20260376 63.55780029 -0.20635986 C68.02711901 0.26058851 71.41618672 1.61246209 74.71972656 4.69628906 C78.49494189 9.63310911 79.2030177 11.7774728 79.23632812 17.99414062 C79.24377548 19.04813805 79.24377548 19.04813805 79.25137329 20.12342834 C79.26600632 22.45371473 79.27279984 24.78393298 79.27832031 27.11425781 C79.28407216 28.73370363 79.28982989 30.35314943 79.29559326 31.97259521 C79.30610741 35.37219561 79.31194692 38.77177234 79.31542969 42.17138672 C79.3209061 46.52036695 79.34491391 50.86903278 79.37340164 55.21791458 C79.392061 58.56543885 79.39723544 61.91288802 79.39876556 65.2604599 C79.40178672 66.86318424 79.40979711 68.46590742 79.42295074 70.06858063 C79.44007574 72.31614274 79.43811534 74.56294533 79.43164062 76.81054688 C79.43710907 78.72676849 79.43710907 78.72676849 79.44268799 80.68170166 C78.97368168 85.12226676 77.59807312 88.49151939 74.57519531 91.80566406 C69.52670099 95.73665313 66.35081365 96.28994609 60.03686523 96.33813477 C59.32430069 96.34470596 58.61173615 96.35127716 57.87757874 96.35804749 C55.52027273 96.37775216 53.16303035 96.38943656 50.80566406 96.39941406 C49.59640983 96.40552735 49.59640983 96.40552735 48.36272621 96.41176414 C44.09590538 96.43261257 39.82911659 96.44691972 35.56225586 96.45629883 C31.16052672 96.46736227 26.75930323 96.50176456 22.3577528 96.54147053 C18.96819635 96.56764311 15.57876031 96.5759912 12.18911171 96.57958031 C10.56683244 96.58444443 8.94455849 96.59605356 7.32237816 96.6146183 C5.04841645 96.63902519 2.77576219 96.63804268 0.50170898 96.63110352 C-0.79052078 96.63696976 -2.08275055 96.642836 -3.41413879 96.64888 C-8.36010271 95.96172261 -11.47130198 93.81511865 -14.73730469 90.09863281 C-17.17034948 86.12892816 -17.06181803 82.67908847 -17.0859375 78.12280273 C-17.0909024 77.41023819 -17.09586731 76.69767365 -17.10098267 75.96351624 C-17.11558699 73.60620151 -17.12240372 71.2489541 -17.12792969 68.89160156 C-17.13368299 67.25116474 -17.1394407 65.61072793 -17.14520264 63.97029114 C-17.15570799 60.52958869 -17.16155356 57.08890958 -17.16503906 53.64819336 C-17.17051992 49.24655666 -17.19454102 44.84522989 -17.22301102 40.4436903 C-17.24166677 37.05413421 -17.24684458 33.6646523 -17.24837494 30.27504921 C-17.25139585 28.65278747 -17.25940542 27.03052687 -17.27256012 25.40831566 C-17.28968096 23.13452192 -17.28772593 20.86147914 -17.28125 18.58764648 C-17.28489563 17.29541672 -17.28854126 16.00318695 -17.29229736 14.67179871 C-16.7545573 9.53475563 -15.187312 6.30046868 -11.36230469 2.84863281 C-7.30171695 0.03745669 -4.95989565 0.02621092 0 0 Z " fill="#FE0495" transform="translate(55.9248046875,95.8388671875)"/>
<path d="M0 0 C4.14717912 3.93754149 7.12387911 7.41267968 7.3125 13.25 C7.36857422 14.37148437 7.36857422 14.37148437 7.42578125 15.515625 C6.70744914 19.70699402 4.66611056 22.70884208 1.30004883 25.31738281 C-0.68364974 26.61093385 -2.69939253 27.81553615 -4.75 29 C-6.18641103 29.86336954 -7.62132536 30.72923436 -9.0546875 31.59765625 C-9.73756836 32.00902832 -10.42044922 32.42040039 -11.12402344 32.84423828 C-15.77839573 35.71172897 -19.95573631 38.43360447 -23 43 C-23.39493652 45.96183469 -23.39493652 45.96183469 -23.375 49.25 C-23.41753906 50.89742187 -23.41753906 50.89742187 -23.4609375 52.578125 C-22.67863084 58.3857575 -20.24502725 62.22733953 -15.7578125 65.80859375 C-14.55342523 66.69387691 -13.34226071 67.57000283 -12.125 68.4375 C-6.83195165 72.41222317 -2.27484687 76.12490018 1 82 C1.33386719 82.58652344 1.66773438 83.17304688 2.01171875 83.77734375 C5.98745337 92.28649522 4.85574865 102.39279744 2.0625 111.0625 C-4.89803526 128.58181332 -18.03737635 141.250344 -35.0078125 149.15625 C-35.99394531 149.57390625 -35.99394531 149.57390625 -37 150 C-37.69867187 150.2990625 -38.39734375 150.598125 -39.1171875 150.90625 C-47.89009414 154.09639787 -59.83385283 154.77889877 -68.75 151.8125 C-73.34013056 149.25261949 -76.105981 146.3410285 -79 142 C-79.81818043 136.66890856 -79.7481952 131.48896683 -77.125 126.6875 C-71.19748614 118.61949503 -61.59496654 115.95521302 -52.41796875 113.2734375 C-48.30169633 111.739832 -45.33375946 109.77834595 -42.6875 106.25 C-41.32739178 101.79873673 -41.11069605 98.10267628 -42.921875 93.8203125 C-45.67611972 89.00848496 -48.99852823 84.64735343 -52.36132812 80.25317383 C-54.94718529 76.86424299 -57.48456984 73.44143538 -60 70 C-60.76957031 68.95070313 -61.53914062 67.90140625 -62.33203125 66.8203125 C-68.40941141 57.28959412 -68.46553646 46.94102639 -67 36 C-63.7806303 22.68671132 -53.59066965 11.27154729 -42.078125 4.20703125 C-30.3673678 -1.93656547 -12.24286573 -8.18084763 0 0 Z " fill="#FD0494" transform="translate(727,126)"/>
<path d="M0 0 C5.82483157 5.09672762 5.82483157 5.09672762 6.203125 9.20703125 C6.22632813 10.49673828 6.22632813 10.49673828 6.25 11.8125 C6.27578125 12.66457031 6.3015625 13.51664063 6.328125 14.39453125 C5.80340309 18.56107312 4.0835724 21.082198 0.90625 23.7734375 C0.1121875 24.30195313 -0.681875 24.83046875 -1.5 25.375 C-2.38042969 25.96796875 -3.26085937 26.5609375 -4.16796875 27.171875 C-7.0312264 29.02015718 -9.91927558 30.82407546 -12.8125 32.625 C-17.29220223 35.44461456 -21.56890428 38.13780856 -24 43 C-24.49283882 48.39698906 -24.75893103 53.32402731 -22.5 58.3125 C-18.62266377 62.48063645 -14.37753432 66.12112456 -9.9140625 69.6484375 C-3.83377875 74.61050815 0.50044423 80.50133268 3 88 C4.14782629 103.18517725 0.59186716 115.63341065 -9.10546875 127.59765625 C-11.33500918 130.14186504 -13.63283778 132.58377742 -16 135 C-16.88751953 135.94166016 -16.88751953 135.94166016 -17.79296875 136.90234375 C-22.01801641 141.01546962 -26.78380285 143.66515261 -32 146.3125 C-32.99688843 146.81934326 -32.99688843 146.81934326 -34.01391602 147.33642578 C-44.58926996 152.47135486 -58.24182064 154.52396046 -69.6875 150.9375 C-73.89882519 148.47427206 -76.93648452 146.52472667 -79 142 C-79.98399401 135.97569133 -80.42949249 129.3265469 -77.125 123.9375 C-72.42057639 118.67649669 -65.49981659 116.33739135 -58.875 114.5 C-52.97166625 112.84520723 -48.105227 110.36838037 -44 105.75 C-42.46891491 101.539516 -41.88925275 98.41031994 -43 94 C-45.59113172 89.35907629 -48.78093093 85.21255057 -52 81 C-55.43220771 76.40071384 -58.77492127 71.74697863 -62 67 C-62.64839844 66.04867187 -63.29679688 65.09734375 -63.96484375 64.1171875 C-69.64801315 54.51597425 -69.79498316 43.1248235 -67.109375 32.46484375 C-60.67881104 15.85255351 -48.8555094 5.84341012 -32.98803711 -1.21533203 C-22.51235791 -5.35002845 -9.71271818 -6.41328101 0 0 Z " fill="#FD0495" transform="translate(811,127)"/>
<path d="M0 0 C7.25401021 4.43300624 9.75600404 10.55426016 11.75 18.4375 C12.17715854 20.28927772 12.5974369 22.14272024 13 24 C13.40089844 23.443125 13.80179688 22.88625 14.21484375 22.3125 C20.75706076 13.53020415 27.92904634 5.4774162 39 3 C49.96117247 1.76348701 60.28032731 3.42815343 69.4375 9.8125 C73.82824267 13.41656794 77.18490187 17.55470561 79 23 C79.50472286 29.18285504 79.79850034 34.80871621 76 40 C68.93452361 45.44630471 62.68097157 45.63364756 54 45 C51.65429915 44.02936517 49.31979381 43.03101947 47 42 C41.13106188 41.05484892 36.3309696 41.31498895 31.1875 44.4375 C23.28229169 50.4511049 18.10822702 60.37315448 16 70 C15.87154149 72.8772177 15.79112574 75.73491989 15.75390625 78.61328125 C15.72091527 80.35482174 15.68770467 82.09635808 15.65429688 83.83789062 C15.60734409 86.55798932 15.56300376 89.27807816 15.52319336 91.99829102 C14.94068974 130.00054792 14.94068974 130.00054792 4.9375 140.6875 C1.37936392 143.48858585 -0.85205194 143.82339261 -5.25 144.5 C-10.79700443 143.76039941 -13.5681558 141.33496109 -17 137 C-25.82081341 121.50089633 -25.47474662 101.01084922 -25.6875 83.6875 C-25.71782296 81.83202268 -25.74867672 79.97655396 -25.7800293 78.12109375 C-25.84069345 74.31305328 -25.89070375 70.50506884 -25.93261719 66.69677734 C-25.97430305 62.93112762 -26.02950033 59.16612419 -26.09863281 55.40087891 C-26.18038887 50.94237097 -26.24084553 46.48409966 -26.28408813 42.02505493 C-26.3027822 40.36365295 -26.32781567 38.70230816 -26.35971069 37.04110718 C-26.57425342 25.21710014 -25.72780962 14.60121801 -18 5 C-12.44897243 -0.00946391 -7.31843246 -0.99329739 0 0 Z " fill="#13ABF5" transform="translate(1210,138)"/>
<path d="M0 0 C9.4370563 8.76298085 10.70260487 22.15887995 11.29296875 34.34765625 C11.5943253 43.6826645 11.44674537 52.54748221 8.8125 61.5625 C8.61648193 62.2337793 8.42046387 62.90505859 8.21850586 63.59667969 C6.63011148 68.35637931 4.44998585 71.45992235 1 75 C-2.5 76.1875 -2.5 76.1875 -6 76 C-13.97232695 70.25250848 -16.26543511 59.80757317 -18.5703125 50.76171875 C-20.85749823 36.06135228 -20.26311886 16.68747219 -11.69921875 4.0859375 C-7.91818203 -0.62083977 -5.87770431 -1.72873656 0 0 Z " fill="#252523" transform="translate(1003,172)"/>
<path d="M0 0 C8.15901167 3.9163256 14.70936289 12.68003149 18 21 C18.7848312 25.35301395 18.88006367 29.58447919 18.875 34 C18.92785156 35.1240625 18.98070312 36.248125 19.03515625 37.40625 C19.07275681 43.84346564 18.33301224 47.43076395 13.765625 52.12109375 C8.2408191 57.03093751 2.48431602 60.37168072 -4.8125 61.6875 C-8.20822663 60.95508837 -9.8209565 60.07042965 -11.87109375 57.2421875 C-18.57209882 43.93292483 -20.17928845 25.95566202 -17.28125 11.38671875 C-15.95165535 7.42474114 -14.4518195 4.55509253 -11.8125 1.3125 C-7.7800535 -0.56930837 -4.36985236 -0.7451258 0 0 Z " fill="#252624" transform="translate(1342,179)"/>
<path d="M0 0 C2.93039161 1.66450553 4.98690997 3.61540697 7.125 6.20703125 C7.723125 6.78453125 8.32125 7.36203125 8.9375 7.95703125 C10.85848396 11.59679034 10.64386907 15.18579595 10.125 19.20703125 C8.28366581 23.81036673 5.34466689 25.7455589 1.125 28.20703125 C-5.77682999 30.50764125 -11.57455118 29.71174016 -18.125 26.64453125 C-23.82073518 23.55842506 -27.9274852 20.10206085 -30.875 14.20703125 C-31.26701042 10.13012291 -31.12844947 7.72406816 -29.3125 4.01953125 C-21.39973681 -5.11058012 -10.51142992 -4.76720299 0 0 Z " fill="#B5EF05" transform="translate(1442.875,249.79296875)"/>
<path d="M0 0 C2.125 1.625 2.125 1.625 3.125 3.625 C4.27587777 12.40044298 0.99041377 18.42454276 -3.875 25.625 C-11.51253478 34.68496156 -11.51253478 34.68496156 -16.875 36.625 C-18.87476893 36.6554011 -20.87527541 36.65818974 -22.875 36.625 C-22.93343491 32.60422848 -22.9687424 28.58356741 -23 24.5625 C-23.01675781 23.42876953 -23.03351562 22.29503906 -23.05078125 21.12695312 C-23.11528464 10.06462091 -23.11528464 10.06462091 -20.875 4.625 C-14.76638118 -0.39764214 -7.62700856 -3.64769974 0 0 Z " fill="#252625" transform="translate(892.875,135.375)"/>
<path d="M0 0 C2.5 2.5 2.5 2.5 3.25 6.1875 C2.79786246 11.58300797 0.06482648 15.56414056 -3.5 19.5 C-7.71084766 22.964715 -12.26045872 25.89342263 -17.5 27.5 C-19.17568686 27.21546102 -20.84513634 26.887705 -22.5 26.5 C-22.64539953 23.08378212 -22.73409725 19.66836009 -22.8125 16.25 C-22.85439453 15.28191406 -22.89628906 14.31382812 -22.93945312 13.31640625 C-23.06359467 6.11619684 -23.06359467 6.11619684 -20.15625 2.9375 C-19.2796875 2.463125 -18.403125 1.98875 -17.5 1.5 C-16.571875 0.9225 -15.64375 0.345 -14.6875 -0.25 C-9.25740095 -2.37945061 -5.36068184 -2.29743508 0 0 Z " fill="#252625" transform="translate(892.5,208.5)"/>
<path d="M0 0 C1.25167969 0.02191406 2.50335937 0.04382813 3.79296875 0.06640625 C4.9798007 11.90835168 4.9798007 11.90835168 3.79296875 17.06640625 C0.96351409 20.42775452 -2.10008583 21.68085583 -6.20703125 23.06640625 C-7.66109375 23.74703125 -7.66109375 23.74703125 -9.14453125 24.44140625 C-13.77451309 25.3863005 -18.51694663 25.75114388 -23.20703125 25.06640625 C-25.75843561 23.16665928 -26.14595619 22.45903163 -26.64453125 19.25390625 C-26.09873213 15.27736983 -25.02088956 12.85267772 -22.20703125 10.06640625 C-15.71983684 5.26259773 -8.34231173 -0.14605489 0 0 Z " fill="#252523" transform="translate(1125.20703125,216.93359375)"/>
<path d="M0 0 C2.36497439 1.86708505 3.66030715 3.32061431 5 6 C5.37927227 11.02535753 5.15105119 14.0086685 2 18 C-5.0985095 24.92949737 -13.35643407 27.46991438 -23 29 C-22.95710613 19.30598442 -19.58852621 10.37650733 -12.8125 3.3125 C-8.60461221 -0.14731885 -5.35693126 -0.46990625 0 0 Z " fill="#2A2323" transform="translate(605,161)"/>
<path d="M0 0 C0.66 0 1.32 0 2 0 C2.391875 0.9075 2.78375 1.815 3.1875 2.75 C5.40798082 6.73155182 7.93860016 8.96930008 12 11 C14.33786335 11.12128293 16.6791771 11.17754956 19.02001953 11.20532227 C19.74207581 11.21522186 20.46413208 11.22512146 21.20806885 11.23532104 C23.59961648 11.26696031 25.99118399 11.29170299 28.3828125 11.31640625 C30.03905764 11.33697369 31.69529751 11.3579701 33.35153198 11.37937927 C37.71461724 11.43462167 42.07775004 11.48402137 46.44091797 11.53222656 C50.89164469 11.58242577 55.34230223 11.63812007 59.79296875 11.69335938 C68.52858736 11.80096747 77.26426379 11.90240653 86 12 C86 12.33 86 12.66 86 13 C85.07371796 13.00364563 84.14743591 13.00729126 83.19308472 13.01104736 C74.4533501 13.04895216 65.7139877 13.10583328 56.97451591 13.18390274 C52.48169391 13.22337109 47.98906771 13.25556264 43.49609375 13.27099609 C39.15810775 13.28616703 34.82066008 13.32061998 30.48291397 13.36830902 C28.83001516 13.38311838 27.17703949 13.39104076 25.52407455 13.39188385 C23.20410882 13.39425671 20.88562697 13.42135907 18.56591797 13.45410156 C16.58735306 13.46742523 16.58735306 13.46742523 14.56881714 13.48101807 C10.39430614 14.08808077 8.24175483 15.3409447 5 18 C3.11431306 21.10014929 3.11431306 21.10014929 2 24 C1.34 24 0.68 24 0 24 C-0.33 23.113125 -0.66 22.22625 -1 21.3125 C-3.32629968 17.45956616 -5.48184736 16.1719744 -9.35546875 14.078125 C-9.89816406 13.72234375 -10.44085938 13.3665625 -11 13 C-11 12.34 -11 11.68 -11 11 C-10.0925 10.608125 -9.185 10.21625 -8.25 9.8125 C-3.85233823 7.35995786 -1.59097547 4.77292642 0 0 Z " fill="#442F23" transform="translate(134,180)"/>
</svg>
