<?xml version="1.0" encoding="UTF-8"?>
<svg version="1.1" xmlns="http://www.w3.org/2000/svg" width="1280" height="256">
<path d="M0 0 C4.43827616 3.61576993 7.18214592 7.30298393 9.69140625 12.421875 C10.18640625 13.411875 10.18640625 13.411875 10.69140625 14.421875 C11.60282739 27.9138961 10.52721921 38.53758847 1.57421875 49.2734375 C0.95289063 49.98242188 0.3315625 50.69140625 -0.30859375 51.421875 C-0.97117187 52.19273438 -1.63375 52.96359375 -2.31640625 53.7578125 C-3.9651698 55.66023198 -5.62820821 57.54740237 -7.30859375 59.421875 C-6.18130859 59.59009766 -6.18130859 59.59009766 -5.03125 59.76171875 C-0.13462002 60.94899345 3.30687021 64.25567897 5.9921875 68.45703125 C10.29487818 76.82772038 11.21353075 86.05504568 9.0078125 95.28125 C5.26038964 105.29511025 -0.94711646 112.27806863 -10.30859375 117.421875 C-20.13257216 121.60896712 -29.01365109 123.60479236 -39.62109375 123.671875 C-40.42482422 123.6925 -41.22855469 123.713125 -42.05664062 123.734375 C-48.54669173 123.77614524 -55.35174044 123.15841375 -60.30078125 118.578125 C-70.75808284 96.20436346 -64.69639128 58.39035279 -63.93359375 34.046875 C-63.90281738 32.94408203 -63.87204102 31.84128906 -63.84033203 30.70507812 C-63.14731729 11.9677999 -63.14731729 11.9677999 -59.125 6.3984375 C-55.96135619 4.17818262 -52.76599947 2.36715535 -49.24609375 0.796875 C-48.58343506 0.49837646 -47.92077637 0.19987793 -47.23803711 -0.10766602 C-32.45969461 -6.5721916 -14.12693493 -9.65699105 0 0 Z M-33.30859375 30.421875 C-34.3673245 36.77425948 -34.41495301 42.99304833 -34.30859375 49.421875 C-33.64859375 49.751875 -32.98859375 50.081875 -32.30859375 50.421875 C-26.40967116 47.89376532 -21.90069811 42.329196 -18.87109375 36.796875 C-18.18291815 33.8912447 -18.04421344 31.39615347 -18.30859375 28.421875 C-20.16638016 26.14892471 -20.16638016 26.14892471 -23.05859375 26.109375 C-26.92090681 26.48075126 -30.48979837 27.60307962 -33.30859375 30.421875 Z M-33.30859375 78.421875 C-34.31356227 81.43678057 -34.41194678 83.46369192 -34.37109375 86.609375 C-34.36207031 87.51042969 -34.35304688 88.41148437 -34.34375 89.33984375 C-34.33214844 90.02691406 -34.32054687 90.71398437 -34.30859375 91.421875 C-32.54217065 92.19115538 -32.54217065 92.19115538 -30.30859375 92.421875 C-27.93834205 91.34867976 -27.93834205 91.34867976 -25.68359375 89.671875 C-24.90757812 89.14078125 -24.1315625 88.6096875 -23.33203125 88.0625 C-21.08265264 86.40465762 -21.08265264 86.40465762 -19.30859375 83.421875 C-19.05843502 79.83830259 -19.05843502 79.83830259 -19.30859375 76.421875 C-20.51633628 74.99463094 -20.51633628 74.99463094 -24.05859375 75.171875 C-27.90433781 75.22020572 -30.26485331 75.93154191 -33.30859375 78.421875 Z " fill="#12ACF6" transform="translate(453.30859375,64.578125)"/>
<path d="M0 0 C4.02188343 1.91953527 7.04993271 4.07486365 9.0390625 8.10546875 C10.23514033 11.70828855 10.51093168 15.17545654 10.6875 18.9375 C10.7234024 19.69299133 10.75930481 20.44848267 10.79629517 21.22686768 C11.01726851 26.99134556 10.86434783 32.64059356 10.51171875 38.39453125 C9.98653751 48.30349271 9.94691034 58.19078285 10.0078125 68.109375 C10.01582304 69.63562505 10.0238032 71.16187525 10.03175354 72.68812561 C10.06706738 78.97448483 10.10937226 85.26071842 10.17138672 91.546875 C10.20924632 95.44962413 10.23210555 99.35222895 10.24569321 103.25513458 C10.25366026 104.72060511 10.26714187 106.18605792 10.28662491 107.65142059 C10.53849221 126.87175909 10.53849221 126.87175909 4.75 133.625 C1.19664703 135.40167648 -1.06930251 135.49133719 -5 135 C-9.16675387 133.20071992 -11.02342579 131.05717865 -13 127 C-13 126.34 -13 125.68 -13 125 C-13.66 125 -14.32 125 -15 125 C-15.37898438 125.89332031 -15.37898438 125.89332031 -15.765625 126.8046875 C-18.3413815 131.38562153 -23.23175629 134.15431822 -27.875 136.375 C-33.55809468 137.51161894 -38.81235125 137.78425144 -44.3125 135.8125 C-56.49614006 127.59562647 -62.27443262 113.95327777 -65 100 C-68.12005176 83.26517694 -65.16801322 64.39638582 -56.0625 49.9375 C-52.43163026 44.92876175 -48.17093086 40.54273271 -42 39 C-33.58587841 38.05213535 -27.9553959 39.85870078 -21.38208008 45.07910156 C-20.20295044 46.02994629 -20.20295044 46.02994629 -19 47 C-18.89510254 45.52575562 -18.89510254 45.52575562 -18.78808594 44.02172852 C-18.52138439 40.33578442 -18.23281231 36.65180992 -17.93798828 32.96801758 C-17.81395697 31.38090008 -17.69566759 29.79332203 -17.58349609 28.20532227 C-16.1930162 8.64631525 -16.1930162 8.64631525 -9.6875 1.4375 C-6.16871581 -0.44464038 -3.94254402 -0.492818 0 0 Z M-39 74 C-42.50236292 81.00472584 -40.76692626 94.75729046 -38.6875 102.0625 C-37.66370434 105.05805025 -36.49718301 107.01219263 -34 109 C-28.99422665 108.88876059 -25.92030325 106.98283943 -22 104 C-21.28199219 103.47535156 -20.56398438 102.95070312 -19.82421875 102.41015625 C-17.08308606 98.78857409 -17.59268345 95.6459643 -17.9375 91.25 C-17.99325195 90.44030762 -18.04900391 89.63061523 -18.10644531 88.79638672 C-18.64157346 82.8655831 -19.72369462 78.3606269 -24 74 C-24.804375 73.175 -25.60875 72.35 -26.4375 71.5 C-31.73364218 68.39981921 -35.26823882 69.30074518 -39 74 Z " fill="#B8F305" transform="translate(1086,51)"/>
<path d="M0 0 C5.08156066 4.00037754 6.94259923 7.61663062 7.79492188 13.90820312 C8.18349736 17.87167304 8.14285633 21.83351458 8.125 25.8125 C8.12886719 26.63169922 8.13273438 27.45089844 8.13671875 28.29492188 C8.12959336 33.03687194 7.95950509 37.73594773 7.62670898 42.46650696 C6.9789118 52.02366831 6.94856866 61.55818827 7.0078125 71.1328125 C7.01172626 71.85647444 7.01564003 72.58013638 7.01967239 73.32572746 C7.05660476 80.13719502 7.1018168 86.94854776 7.17138672 93.75976562 C7.20918352 97.52173329 7.23208893 101.28355161 7.24569321 105.045681 C7.25368139 106.46256632 7.26719477 107.87943282 7.28662491 109.29620743 C7.50917446 125.76834844 7.50917446 125.76834844 1.875 132.5625 C-1.66385241 134.33192621 -3.90833234 134.42746955 -7.77734375 133.8203125 C-12.28927245 132.15510156 -14.91033724 128.17932551 -17 124 C-17.52787109 124.68835938 -17.52787109 124.68835938 -18.06640625 125.390625 C-22.67156875 131.11401234 -27.80913786 135.41298813 -35.41796875 136.2734375 C-43.61137238 136.57390082 -47.83550716 134.75690418 -53.8359375 129.34375 C-65.38382454 117.44287078 -68.48272248 100.53571171 -68.28344727 84.54345703 C-67.88015139 70.32004836 -64.79373325 54.93253945 -55 44 C-49.58006688 39.71351297 -44.48125219 37.58781709 -37.55078125 37.64453125 C-31.63274453 38.46925 -26.00651796 41.59283024 -22 46 C-20.13710847 44.13710847 -20.71387858 41.00600919 -20.60546875 38.5078125 C-20.53654787 37.14839975 -20.46685973 35.78902573 -20.39648438 34.4296875 C-20.2902421 32.29317239 -20.18880578 30.15690095 -20.10131836 28.01953125 C-19.23030351 7.32868266 -19.23030351 7.32868266 -12.3125 0.25 C-7.89544064 -1.41681485 -4.49776409 -1.44393165 0 0 Z M-42 73 C-45.06103477 82.18310431 -44.02027102 96.24805197 -40 105 C-38.68571989 106.80997378 -38.68571989 106.80997378 -37 108 C-31.93695438 108.19855081 -29.31623425 106.72071786 -25.625 103.5 C-21.74321637 99.84303009 -20.82190948 98.83437631 -20.60620117 93.32299805 C-20.4684416 86.00019198 -20.47339973 80.57151813 -25.35546875 74.671875 C-25.89816406 74.12015625 -26.44085937 73.5684375 -27 73 C-27.825 72.154375 -28.65 71.30875 -29.5 70.4375 C-34.74705982 67.4204406 -38.36818484 68.29209146 -42 73 Z " fill="#12ACF6" transform="translate(765,52)"/>
<path d="M0 0 C8.27262947 7.29025472 12.43159564 18.02555185 13.12255859 28.93505859 C13.81874588 46.98107685 13.81874588 46.98107685 7.8125 54.875 C4.28455429 57.54055898 1.43780952 58.82596825 -3 59 C-7.15156467 58.28676523 -10.6922415 57.33192032 -13.69140625 54.27734375 C-15.34317246 51.40277749 -15.70070389 48.97000902 -16.125 45.6875 C-16.35703125 43.97046875 -16.35703125 43.97046875 -16.59375 42.21875 C-16.79484375 40.62546875 -16.79484375 40.62546875 -17 39 C-17.20541709 37.56208038 -17.41298918 36.12446223 -17.625 34.6875 C-17.810625 33.3571875 -17.810625 33.3571875 -18 32 C-21.28841143 31.41439551 -21.28841143 31.41439551 -25 32 C-32.28498203 38.14489201 -33.80953203 50.13877756 -35 59 C-35.28902426 63.54577895 -35.32520616 68.07111087 -35.3125 72.625 C-35.32861328 73.78773438 -35.34472656 74.95046875 -35.36132812 76.1484375 C-35.36536698 83.2891397 -35.36418487 90.95768656 -30.57202148 96.71582031 C-26.8667827 99.74261888 -20.49545241 98.40390879 -16 98 C-13.64233825 97.39311359 -11.45956738 96.61937689 -9.19140625 95.7421875 C-4.2748481 94.07704303 0.87811628 93.50338892 5.9375 94.6875 C9.61087899 97.02510481 10.74305698 99.04564023 11.875 103.25 C12.06246825 108.87404759 10.33143486 112.81644683 7.4375 117.5625 C-1.0820453 126.0820453 -10.81547734 131.33584466 -22.9375 131.5 C-35.03575316 131.28049227 -42.88564604 127.41403552 -51.33203125 118.92578125 C-63.03631191 106.09048665 -66.41191393 88.67053867 -66.3125 71.75 C-66.30758545 70.74710937 -66.3026709 69.74421875 -66.29760742 68.7109375 C-65.95703105 46.96993942 -58.65600927 21.76530078 -43 6 C-30.63755186 -4.43583285 -14.07791315 -11.70226531 0 0 Z " fill="#FE0396" transform="translate(96,63)"/>
<path d="M0 0 C4.92962428 2.64516425 6.65391385 6.19350294 8.25 11.375 C9.81141929 16.95772819 10.69330702 22.18167683 10.87890625 27.98828125 C10.92080078 29.23544922 10.96269531 30.48261719 11.00585938 31.76757812 C11.04517578 33.06115234 11.08449219 34.35472656 11.125 35.6875 C11.16818359 37.00041016 11.21136719 38.31332031 11.25585938 39.66601562 C11.36177227 42.90224288 11.46384885 46.13854458 11.5625 49.375 C12.15417969 48.96507812 12.74585938 48.55515625 13.35546875 48.1328125 C14.54076172 47.32457031 14.54076172 47.32457031 15.75 46.5 C16.52730469 45.96632812 17.30460937 45.43265625 18.10546875 44.8828125 C24.98695251 40.65983518 31.65041737 40.62191105 39.5625 41.375 C45.60457564 44.18769039 49.45559548 49.01010879 51.90966797 55.19506836 C54.7333672 64.62394287 54.88930173 74.553383 54.8125 84.3125 C54.80573242 85.56579102 54.79896484 86.81908203 54.79199219 88.11035156 C54.70604737 95.96730678 54.4412523 103.79213455 53.8125 111.625 C53.75094727 112.48601318 53.68939453 113.34702637 53.62597656 114.23413086 C52.99234185 120.88137969 51.20328498 127.26264627 46.8125 132.4375 C43.38028596 133.86758918 40.17441247 134.00096889 36.5625 133.375 C32.21945368 131.05870863 30.74675927 128.21050821 29.140625 123.765625 C26.88062098 114.42020296 27.24341688 104.63595141 27.04492188 95.08398438 C27.38072506 84.09532308 27.38072506 84.09532308 23.5625 74.375 C18.39566243 73.96975784 14.82110106 74.30484575 10.5625 77.375 C7.59184931 84.86438694 7.86064827 93.11494902 7.43945312 101.06445312 C6.76065051 111.95587161 5.90695125 123.44342524 -2.4375 131.375 C-6.07532632 132.58760877 -8.61485999 132.77044552 -12.4375 132.375 C-18.11642357 128.24487377 -19.75396188 122.81832328 -21.0625 116.2265625 C-22.72286502 105.59561423 -22.6923555 95.10329199 -22.4375 84.375 C-22.41816406 83.40739746 -22.39882812 82.43979492 -22.37890625 81.44287109 C-22.03148776 65.61744787 -20.70245799 50.04095946 -18.4375 34.375 C-18.32148437 33.56611328 -18.20546875 32.75722656 -18.0859375 31.92382812 C-16.38955718 20.55216235 -13.95698395 8.67028701 -5.4375 0.375 C-2.4375 -0.625 -2.4375 -0.625 0 0 Z " fill="#FE0396" transform="translate(137.4375,56.625)"/>
<path d="M0 0 C10.92386898 7.22782309 14.81454913 20.76551203 17.546875 32.95703125 C18.06855882 35.88383094 18.47985738 38.79782452 18.828125 41.75 C18.93898438 42.59691406 19.04984375 43.44382813 19.1640625 44.31640625 C19.93577152 51.4807859 19.96200201 58.67638706 20.015625 65.875 C20.02867676 66.88852539 20.04172852 67.90205078 20.05517578 68.94628906 C20.06551174 78.01535521 19.48966783 88.20127622 13.828125 95.75 C10.02798935 98.1525651 6.21506267 98.4262139 1.828125 97.75 C-3.08854696 95.33804772 -5.18562438 92.8259738 -7.171875 87.75 C-7.171875 87.09 -7.171875 86.43 -7.171875 85.75 C-7.71714844 86.07613281 -8.26242187 86.40226562 -8.82421875 86.73828125 C-18.11280204 92.12089618 -26.26965534 95.06064936 -37.171875 93.75 C-44.09835783 91.77100491 -49.76009484 86.72578305 -53.4609375 80.625 C-56.86935085 73.95529906 -58.48383946 67.9092116 -56.59375 60.4765625 C-52.26483875 49.26074698 -42.68254469 43.11752902 -32.18359375 38.41015625 C-18.10828777 32.36285791 -18.10828777 32.36285791 -10.171875 32.75 C-11.02852578 26.85624061 -11.02852578 26.85624061 -13.734375 21.6875 C-18.5486734 19.83584677 -22.9567532 19.88060633 -27.76953125 21.76953125 C-30.28476353 23.02525053 -32.73431782 24.34996716 -35.171875 25.75 C-39.4465806 28.13397043 -42.24112625 29.46906753 -47.171875 28.75 C-50.484375 27.3125 -50.484375 27.3125 -53.171875 24.75 C-54.85647332 20.21317171 -54.65060519 16.04178169 -52.734375 11.625 C-48.28634172 3.92530101 -40.24885839 -1.54742809 -31.9453125 -4.33203125 C-20.53894407 -7.10687243 -10.0759553 -5.79911096 0 0 Z M-25.796875 59.75 C-27.52434279 62.26268042 -27.57576729 63.76119707 -27.171875 66.75 C-26.05811357 68.07320713 -26.05811357 68.07320713 -23.234375 68.0625 C-18.10429086 68.03043697 -13.80370603 65.78039168 -9.171875 63.75 C-9.171875 60.12 -9.171875 56.49 -9.171875 52.75 C-15.54106983 52.75 -20.78853819 55.93412434 -25.796875 59.75 Z " fill="#B8F305" transform="translate(995.171875,93.25)"/>
<path d="M0 0 C1.11955078 0.60328125 1.11955078 0.60328125 2.26171875 1.21875 C12.45935925 7.28676749 16.57836234 16.99231159 20 28 C23.32292705 41.3468605 24.18015487 54.41899171 24.1875 68.125 C24.19974609 69.33542969 24.21199219 70.54585938 24.22460938 71.79296875 C24.24051979 81.54075219 23.65873509 89.84476413 18 98 C15.02691645 100.44217577 11.74294371 100.36247602 7.9609375 100.25 C5.00875004 99.8736255 3.27864114 98.88801695 1 97 C-1.53806697 93.58673752 -2 92.36087656 -2 88 C-2.95261719 88.49371094 -3.90523437 88.98742187 -4.88671875 89.49609375 C-6.15348171 90.14355037 -7.42041801 90.79066794 -8.6875 91.4375 C-9.31333984 91.76298828 -9.93917969 92.08847656 -10.58398438 92.42382812 C-18.22490332 96.30429482 -26.84880025 97.56153956 -35.27734375 95.421875 C-42.10421606 92.44779201 -47.7799517 86.1204663 -50.9375 79.4375 C-53.38491022 71.51940811 -53.58845318 65.57693065 -50 58 C-42.01304008 46.04885214 -28.10767815 39.35386401 -14.5625 35.6875 C-11.57797714 35.11153945 -9.02120603 34.81117462 -6 35 C-6.30921884 33.54096742 -6.62248799 32.08279278 -6.9375 30.625 C-7.11152344 29.81289062 -7.28554688 29.00078125 -7.46484375 28.1640625 C-7.92330693 25.970537 -7.92330693 25.970537 -9 24 C-13.63579824 22.45473392 -18.41886021 22.06711614 -23.0859375 23.75390625 C-25.79558885 25.11944201 -28.3915191 26.63681668 -30.99609375 28.19140625 C-36.16342894 31.08229358 -39.21049519 31.54386795 -45 30 C-47.5 28.5625 -47.5 28.5625 -49 26 C-50.13063335 20.48568296 -49.48707503 16.06455109 -46.5625 11.25 C-43.08068831 6.6266107 -39.06549944 3.71867752 -34 1 C-33.26136719 0.58621094 -32.52273438 0.17242187 -31.76171875 -0.25390625 C-22.54644097 -4.69892259 -9.04117925 -5.20015538 0 0 Z M-21.6875 62.5 C-23.26041667 64.94791667 -23.26041667 64.94791667 -22.75 67.8125 C-22.37875 68.8953125 -22.37875 68.8953125 -22 70 C-14.75420281 70.67090715 -10.24161903 68.58125682 -4 65 C-4.495 60.05 -4.495 60.05 -5 55 C-11.51567211 55 -16.95832417 58.10076667 -21.6875 62.5 Z " fill="#11ACF7" transform="translate(595,91)"/>
<path d="M0 0 C6.12646715 5.8399286 8.79056911 11.89003234 9.12890625 20.359375 C8.8820814 31.45278093 4.48698911 39.84530063 -3.24609375 47.671875 C-10.2728509 53.75473939 -18.54065284 58.28506545 -27.93359375 58.921875 C-28.69671875 58.839375 -29.45984375 58.756875 -30.24609375 58.671875 C-28.79407541 61.77033949 -28.79407541 61.77033949 -26.24609375 64.671875 C-21.19983653 66.07820898 -17.96686923 66.12208347 -13.15234375 63.76953125 C-11.71291269 62.94067853 -10.30030724 62.06499532 -8.90234375 61.16796875 C-3.56964955 57.75274021 1.21348529 54.76244504 7.75390625 55.671875 C10.86747584 56.91088311 11.56201517 57.86175824 13.75390625 60.671875 C15.05893994 66.00329172 13.87109709 70.9334371 11.203125 75.6328125 C4.43978402 85.14888794 -5.27584482 92.29408257 -16.61328125 95.26171875 C-25.64655144 96.66897894 -33.71817982 94.78373547 -41.24609375 89.671875 C-51.92243062 81.09267573 -57.2671469 69.23678477 -59.99609375 56.046875 C-60.11984375 54.37625 -60.11984375 54.37625 -60.24609375 52.671875 C-60.29765625 51.98480469 -60.34921875 51.29773438 -60.40234375 50.58984375 C-61.08036235 33.55462652 -55.45672995 16.41442575 -44.3671875 3.48046875 C-32.26922805 -9.37509286 -14.05584293 -11.47183948 0 0 Z M-26.24609375 20.671875 C-29.52577637 25.40919434 -30.78024616 28.96524199 -31.24609375 34.671875 C-21.95746915 32.86831316 -21.95746915 32.86831316 -15.24609375 26.671875 C-14.66194673 23.04494118 -14.66194673 23.04494118 -15.24609375 19.671875 C-15.90609375 19.011875 -16.56609375 18.351875 -17.24609375 17.671875 C-21.66068853 17.671875 -22.83128606 18.02539904 -26.24609375 20.671875 Z " fill="#B7F305" transform="translate(923.24609375,91.328125)"/>
<path d="M0 0 C4.78710662 4.55167515 8.17472919 10.63072975 8.80078125 17.28125 C9.08274279 28.55971153 6.20136807 36.87017212 -1.17578125 45.4609375 C-8.43762283 52.81057336 -17.65840082 58.29040006 -28.125 59 C-28.888125 58.9175 -29.65125 58.835 -30.4375 58.75 C-28.98548166 61.84846449 -28.98548166 61.84846449 -26.4375 64.75 C-21.39124278 66.15633398 -18.15827548 66.20020847 -13.34375 63.84765625 C-11.90431894 63.01880353 -10.49171349 62.14312032 -9.09375 61.24609375 C-3.7610558 57.83086521 1.02207904 54.84057004 7.5625 55.75 C10.67606959 56.98900811 11.37060892 57.93988324 13.5625 60.75 C14.86753369 66.08141672 13.67969084 71.0115621 11.01171875 75.7109375 C4.5009665 84.87161856 -5.5602372 92.89994859 -16.76171875 95.234375 C-26.0552627 96.27893862 -33.61659966 95.17347644 -41.27734375 89.56640625 C-52.14954858 80.4243172 -58.81764505 68.00080931 -60.2734375 53.8203125 C-60.32757812 53.13710937 -60.38171875 52.45390625 -60.4375 51.75 C-60.49164062 51.10804688 -60.54578125 50.46609375 -60.6015625 49.8046875 C-61.29826064 33.14726838 -55.35173749 16.14685495 -44.55859375 3.55859375 C-32.43917148 -9.31977473 -14.17236987 -11.49040006 0 0 Z M-26.4375 20.75 C-29.71718262 25.48731934 -30.97165241 29.04336699 -31.4375 34.75 C-23.52595169 32.68824381 -23.52595169 32.68824381 -16.4375 28.75 C-14.93087903 25.73675805 -15.25979627 23.06713623 -15.4375 19.75 C-16.0975 19.09 -16.7575 18.43 -17.4375 17.75 C-21.85209478 17.75 -23.02269231 18.10352404 -26.4375 20.75 Z " fill="#B8F305" transform="translate(1163.4375,91.25)"/>
<path d="M0 0 C6.16360258 5.03049585 10.09272161 10.85680679 10.9765625 18.87109375 C11.51435233 29.7542617 7.64974927 38.92284213 0.69140625 47.21875 C-6.45651962 54.46421092 -15.71902264 59.80298459 -26 60.5 C-26.763125 60.4175 -27.52625 60.335 -28.3125 60.25 C-26.86048166 63.34846449 -26.86048166 63.34846449 -24.3125 66.25 C-19.26624278 67.65633398 -16.03327548 67.70020847 -11.21875 65.34765625 C-9.77931894 64.51880353 -8.36671349 63.64312032 -6.96875 62.74609375 C-1.6360558 59.33086521 3.14707904 56.34057004 9.6875 57.25 C12.80106959 58.48900811 13.49560892 59.43988324 15.6875 62.25 C16.99253369 67.58141672 15.80469084 72.5115621 13.13671875 77.2109375 C6.61072493 86.39306358 -3.59093955 94.6114038 -14.890625 96.734375 C-24.3569448 97.67547112 -31.29403072 96.72252134 -39.1171875 91.06640625 C-49.42777354 82.53540535 -56.06496879 70.84794172 -57.796875 57.5234375 C-59.01207739 39.68855543 -56.14806546 20.7630856 -44.13671875 6.703125 C-31.86313936 -5.92112809 -15.51874213 -10.9097924 0 0 Z M-24.3125 22.25 C-27.59218262 26.98731934 -28.84665241 30.54336699 -29.3125 36.25 C-23.35689224 35.34517977 -17.25512101 34.19059696 -13.3125 29.25 C-12.57406668 26.24434561 -12.8468449 24.40610677 -13.3125 21.25 C-13.9725 20.59 -14.6325 19.93 -15.3125 19.25 C-19.72709478 19.25 -20.89769231 19.60352404 -24.3125 22.25 Z " fill="#FE0396" transform="translate(257.3125,89.75)"/>
<path d="M0 0 C10.17413739 7.95754973 14.82890076 20.28282698 16.7890625 32.71484375 C18.74660238 51.27522186 15.44253929 71.45140245 4.10546875 86.71484375 C-2.71615575 93.95940896 -9.69254812 97.61160978 -19.64453125 97.96484375 C-29.15244125 97.78199933 -34.82115385 94.67671525 -41.66796875 88.10546875 C-53.30303915 75.61307737 -55.56959785 59.23893173 -55.20703125 42.83203125 C-54.56922617 28.62492299 -49.73698142 13.97299215 -39.890625 3.46875 C-28.18300648 -6.81837469 -13.16757823 -8.93223348 0 0 Z M-23.98046875 26.625 C-28.86192358 37.78559118 -29.35335706 50.0893459 -25.89453125 61.71484375 C-24.34090964 65.51612284 -22.81222112 68.79715388 -19.89453125 71.71484375 C-16.8978189 71.56116619 -15.40349199 71.26472595 -13.33984375 69.03515625 C-7.23655087 59.23689687 -7.90548666 45.69059828 -10.14453125 34.83984375 C-11.37467315 30.05148767 -12.42186732 26.28964485 -15.89453125 22.71484375 C-20.05609433 21.46637483 -21.86854372 22.97634903 -23.98046875 26.625 Z " fill="#11ACF7" transform="translate(522.89453125,93.28515625)"/>
<path d="M0 0 C4.60931578 2.35825458 6.43053699 5.90820869 8.08935547 10.62915039 C11.7178959 24.0605868 11.20996673 38.41080503 10.6875 52.1875 C10.63251631 53.88872032 10.57857299 55.58997457 10.52563477 57.29125977 C10.36872 62.1949121 10.18765024 67.0974404 10 72 C9.94853652 73.37304571 9.89710244 74.74609252 9.84570312 76.11914062 C9.59302592 82.74759057 9.3136098 89.37415895 9 96 C10.32451172 95.60167969 10.32451172 95.60167969 11.67578125 95.1953125 C40.47642366 86.71907617 40.47642366 86.71907617 52.1875 91.25 C56.627418 94.01261564 56.627418 94.01261564 58 97 C58.50960804 101.51367118 58.48036864 103.93008803 56.625 108.0625 C46.33680957 119.575475 31.49296126 123.50946438 17 127 C15.70642578 127.34224609 15.70642578 127.34224609 14.38671875 127.69140625 C6.30958434 129.63263351 -5.51795745 131.19442515 -13.3125 127.5625 C-19.10470939 122.0396957 -19.63789888 113.25259955 -20.625 105.625 C-20.74617187 104.75617188 -20.86734375 103.88734375 -20.9921875 102.9921875 C-24.73095336 75.52038615 -23.96167097 46.71569201 -18.0625 19.5625 C-17.9171582 18.89049561 -17.77181641 18.21849121 -17.62207031 17.52612305 C-16.17322267 11.57528002 -13.8594269 6.01019125 -9.6875 1.5 C-6.14469788 -0.47737793 -4.00262232 -0.57180319 0 0 Z " fill="#B7F205" transform="translate(805,61)"/>
<path d="M0 0 C3.34636595 3.25830369 5.08433782 5.60485967 5.875 10.25 C5.1878924 14.45853402 3.56510141 16.64775259 0.375 19.3125 C-2.95710336 21.47754241 -6.31548545 23.50171418 -9.76171875 25.48046875 C-12.81692145 27.16498473 -12.81692145 27.16498473 -14.625 30.3125 C-15.32742124 35.44893715 -15.32742124 35.44893715 -13.5625 40.14453125 C-10.26258277 44.11698596 -6.30765266 47.34215985 -2.390625 50.68359375 C2.11494211 54.84027845 3.21870545 59.04622896 3.625 64.9375 C3.40725772 75.62666628 -1.53319147 83.91839486 -8.73046875 91.54296875 C-16.94682584 99.29397464 -25.64229269 103.48105088 -36.9375 103.625 C-38.05801758 103.66850586 -38.05801758 103.66850586 -39.20117188 103.71289062 C-44.48476504 103.77319502 -47.44564836 102.82163791 -51.625 99.3125 C-54.33931197 95.24103205 -54.12223638 92.08259817 -53.625 87.3125 C-52.26770847 83.04672662 -49.87265259 81.72984381 -46.0625 79.75 C-41.64372312 77.68357199 -37.13766589 75.88578625 -32.55859375 74.20703125 C-30.4455607 73.47361709 -30.4455607 73.47361709 -29.625 71.3125 C-28.77846462 66.23328773 -29.65106208 63.82230783 -32.625 59.625 C-33.95674113 57.85296895 -35.29020325 56.08223052 -36.625 54.3125 C-38.0988247 52.17727693 -39.55723643 50.03133256 -41 47.875 C-41.66773438 46.88628906 -42.33546875 45.89757812 -43.0234375 44.87890625 C-46.81866291 38.79728895 -46.55001588 31.25531581 -45.625 24.3125 C-42.67334175 14.57878729 -36.63880273 7.84483641 -27.96484375 2.75 C-19.30318185 -1.74028717 -9.28250679 -4.32116695 0 0 Z " fill="#FE0396" transform="translate(323.625,83.6875)"/>
<path d="M0 0 C4.0625 3.25 4.0625 3.25 4.8125 6.25 C5.43969298 11.89473684 5.43969298 11.89473684 4.8125 14.25 C0.58156938 19.27227135 -4.67158702 22.01229577 -10.32421875 25.1875 C-13.43239116 27.42640182 -14.29894512 28.57962951 -15.1875 32.25 C-14.99621749 37.60591022 -13.96988894 40.46761106 -10.1875 44.25 C-8.88164997 45.1761154 -7.56849613 46.09197908 -6.25 47 C-0.86636645 50.96476938 2.16687617 55.42388503 3.2890625 62.07421875 C3.80339008 72.42844503 0.2170166 80.86208116 -6.5 88.625 C-14.74667316 97.11662385 -23.0533105 103.20400476 -35.24365234 103.72241211 C-41.7629493 103.80679705 -47.1143907 103.71916772 -52.1875 99.25 C-54.69520551 95.59292946 -54.53648738 91.72878227 -53.8984375 87.4609375 C-52.56516573 83.3146088 -49.91732136 81.31088435 -46.1875 79.25 C-43.13827015 78.07966896 -40.1009816 77.09088892 -36.95703125 76.20703125 C-33.09792001 74.93364857 -33.09792001 74.93364857 -30.1875 72.25 C-29.33849186 68.38803647 -29.40042921 64.85953789 -31.15380859 61.27392578 C-32.47251192 59.36234078 -33.88234332 57.59124325 -35.375 55.8125 C-36.39021927 54.50893443 -37.40067356 53.20164345 -38.40625 51.890625 C-39.13134766 50.95379883 -39.13134766 50.95379883 -39.87109375 49.99804688 C-44.86289373 43.36946975 -47.00071301 37.53530135 -46.60546875 29.203125 C-45.22574633 19.45480583 -40.06983786 11.19209641 -32.5 5 C-23.51394072 -1.22897291 -10.33425736 -5.41420552 0 0 Z " fill="#FE0496" transform="translate(379.1875,83.75)"/>
<path d="M0 0 C5.14767912 3.4690881 6.46114044 8.25742651 8 14 C9.175625 12.4221875 9.175625 12.4221875 10.375 10.8125 C14.9003651 5.61044479 20.15220401 2.5206425 27.03125 1.58984375 C34.66685091 1.36810281 40.34416915 2.64402012 46.8125 6.8125 C51.51617587 11.51617587 52.79512287 16.54637035 53 23 C51.44091519 26.69256928 49.55437713 29.1292752 46 31 C40.09140641 32.38823267 35.79293555 31.82370193 30 30 C26.34024521 29.6845039 23.80977851 29.69151295 20.375 31 C15.45566027 35.14260188 12.55580036 40.81792105 11 47 C10.66376015 51.18394078 10.58642925 55.36696902 10.5 59.5625 C9.64363011 87.55013701 9.64363011 87.55013701 2.25 96 C-1.17540183 97.52240081 -4.36618819 97.60926186 -8 97 C-12.12606005 95.03074407 -13.51236387 92.3304598 -15.1875 88.25 C-19.81998597 73.57025556 -19.40140138 57.93103304 -19.42553711 42.69824219 C-19.43754802 39.11065601 -19.48698789 35.52473116 -19.53710938 31.9375 C-19.5465644 29.62761242 -19.55380383 27.31771447 -19.55859375 25.0078125 C-19.57812607 23.95030792 -19.59765839 22.89280334 -19.61778259 21.80325317 C-19.57388931 14.51842272 -18.01526932 9.12256002 -14 3 C-10.07367564 -0.70819523 -5.16822139 -0.96786691 0 0 Z " fill="#B8F305" transform="translate(1201,92)"/>
<path d="M0 0 C5.14767912 3.4690881 6.46114044 8.25742651 8 14 C8.56847656 13.38511719 9.13695312 12.77023438 9.72265625 12.13671875 C16.03143544 5.53303837 20.57156365 1.94189258 29.9375 1.625 C37.47613828 1.83231255 43.45217755 3.61068677 49 9 C52.12063777 13.01224856 52.98983793 17.00025984 53 22 C52.24787003 25.30937187 51.22897299 26.75021129 48.9375 29.25 C44.9925854 31.60016189 41.56279879 32.10226963 37 32 C34.6505947 31.39239518 32.31470912 30.72870472 30 30 C26.34024521 29.6845039 23.80977851 29.69151295 20.375 31 C14.7645101 35.72462308 11.41622107 42.69550969 10.71289062 49.96923828 C10.69419922 50.99259277 10.67550781 52.01594727 10.65625 53.0703125 C10.61177734 54.78734375 10.61177734 54.78734375 10.56640625 56.5390625 C10.54449219 57.72242188 10.52257812 58.90578125 10.5 60.125 C9.98943462 87.15493186 9.98943462 87.15493186 2.25 96 C-1.17804991 97.52357774 -4.37251978 97.7587359 -8 97 C-14.72849932 92.06576716 -16.19765572 85.01841966 -17.56079102 77.24707031 C-18.38294136 71.168916 -18.48754664 65.06251323 -18.625 58.9375 C-18.66099405 57.53051402 -18.69712891 56.12353164 -18.73339844 54.71655273 C-18.82098441 51.16209805 -18.89366627 47.60751542 -18.96032715 44.0526123 C-18.99851203 42.07698546 -19.04259357 40.10147528 -19.08691406 38.12597656 C-19.16071997 34.60478075 -19.21049629 31.08423008 -19.25 27.5625 C-19.27143066 26.52279053 -19.29286133 25.48308105 -19.31494141 24.41186523 C-19.35664789 15.01477739 -17.64983821 7.82034688 -11 1 C-7.5094435 -0.74527825 -3.80881386 -0.56109043 0 0 Z " fill="#11ACF7" transform="translate(646,92)"/>
<path d="M0 0 C0.69818848 -0.00563965 1.39637695 -0.0112793 2.11572266 -0.01708984 C5.80946983 0.03546166 8.61234497 0.28272832 11.75 2.3125 C9.44230031 3.46634985 8.30281812 3.378083 5.75 3.26953125 C-8.65517416 2.76181292 -8.65517416 2.76181292 -21.37890625 8.94921875 C-23.25 10.3125 -23.25 10.3125 -25.25 10.3125 C-25.4975 10.89 -25.745 11.4675 -26 12.0625 C-27.41683317 14.6127997 -29.12627537 16.33035701 -31.25 18.3125 C-30.66116251 14.33784691 -29.03913621 12.16966393 -26.25 9.3125 C-23.04022809 7.06281916 -19.70829098 5.15269153 -16.25 3.3125 C-15.63382813 2.96703125 -15.01765625 2.6215625 -14.3828125 2.265625 C-9.75278716 0.08436862 -5.04605746 0.03951936 0 0 Z " fill="#01A5F7" transform="translate(579.25,87.6875)"/>
<path d="M0 0 C0.7734375 -0.00257812 1.546875 -0.00515625 2.34375 -0.0078125 C4.5 0.125 4.5 0.125 7.5 1.125 C7.5 1.785 7.5 2.445 7.5 3.125 C6.54738281 3.09019531 5.59476563 3.05539063 4.61328125 3.01953125 C3.35902344 2.99246094 2.10476563 2.96539062 0.8125 2.9375 C-0.42886719 2.90269531 -1.67023437 2.86789063 -2.94921875 2.83203125 C-6.71845091 3.143024 -8.43399351 4.02022798 -11.5 6.125 C-12.16 6.125 -12.82 6.125 -13.5 6.125 C-13.7475 6.74375 -13.995 7.3625 -14.25 8 C-15.70628639 10.47568687 -16.87812506 11.07625002 -19.5 12.125 C-15.36073897 4.70882398 -8.69374345 -0.02897914 0 0 Z " fill="#02A6F1" transform="translate(725.5,89.875)"/>
</svg>
