<?xml version="1.0" encoding="UTF-8"?>
<svg version="1.1" xmlns="http://www.w3.org/2000/svg" width="1920" height="384">
<path d="M0 0 C633.6 0 1267.2 0 1920 0 C1920 126.72 1920 253.44 1920 384 C1286.4 384 652.8 384 0 384 C0 257.28 0 130.56 0 0 Z " fill="#262421" transform="translate(0,0)"/>
<path d="M0 0 C7.22354038 5.54134605 13.13099116 12.7989225 15.28125 21.75 C17.05261918 40.02949447 13.7913564 56.31868651 2.46875 71.13671875 C-2.02333346 76.50315417 -6.88003094 81.82481072 -12.71875 85.75 C-13.37875 85.75 -14.03875 85.75 -14.71875 85.75 C-14.71875 86.41 -14.71875 87.07 -14.71875 87.75 C-14.161875 87.82476562 -13.605 87.89953125 -13.03125 87.9765625 C-4.50236665 89.44606605 1.4650054 93.98518077 6.8984375 100.62109375 C14.09848455 111.70591195 16.09034273 124.42541918 13.59765625 137.2734375 C8.98583133 153.3861204 -0.31137124 164.35669578 -14.8203125 172.48828125 C-17.75694097 173.98633349 -20.7139132 175.3946268 -23.71875 176.75 C-24.69521484 177.21019531 -24.69521484 177.21019531 -25.69140625 177.6796875 C-42.89181143 185.01348663 -67.22561942 185.47168665 -84.84375 179.5625 C-88.56013183 177.21956363 -89.66650114 174.85658715 -90.71875 170.75 C-92.48872033 162.72666309 -93.28839104 154.69879175 -93.83203125 146.51171875 C-93.91632889 145.25654953 -94.00062653 144.00138031 -94.08747864 142.70817566 C-94.93280213 129.00328037 -94.99157391 115.30985894 -94.91638947 101.5814209 C-94.90606281 99.52522772 -94.89944978 97.46905334 -94.89398193 95.4128418 C-94.85113446 79.52397054 -94.76729917 63.63392242 -94.34375 47.75 C-94.3130542 46.49807861 -94.2823584 45.24615723 -94.25073242 43.95629883 C-93.29244439 15.3604284 -93.29244439 15.3604284 -87.05859375 9.0625 C-83.6756505 6.55676776 -80.05654751 4.59557704 -76.28125 2.75 C-75.58894287 2.4082373 -74.89663574 2.06647461 -74.18334961 1.71435547 C-51.27471273 -9.29946224 -22.53048439 -14.63018467 0 0 Z " fill="#13ACF5" transform="translate(679.71875,98.25)"/>
<path d="M0 0 C6.53789266 3.15219825 9.92767456 7.95306203 12.37365723 14.69155884 C13.48988488 18.80551363 13.38631033 22.86873693 13.328125 27.10546875 C13.32625183 28.06536209 13.32437866 29.02525543 13.32244873 30.01423645 C13.31575133 32.0439502 13.3018831 34.07365156 13.28125 36.10327148 C13.25054785 39.13343012 13.24031046 42.16306159 13.234375 45.19335938 C13.22518263 47.18490186 13.2147999 49.17643927 13.203125 51.16796875 C13.19887512 52.04067917 13.19462524 52.91338959 13.19024658 53.81254578 C13.13163587 59.26361841 12.9203389 64.69407895 12.62927723 70.13675117 C12.02960903 81.47616664 11.88976488 92.77131982 11.95540047 104.12500954 C11.97317878 107.30035995 11.98320647 110.47565765 11.99131775 113.65104675 C12.01545949 122.66072538 12.05159339 131.67033065 12.09594727 140.67993164 C12.12276683 146.23490126 12.13977684 151.78983208 12.15081596 157.34485435 C12.1569964 159.44552761 12.16696453 161.54619345 12.18089485 163.64682961 C12.2001765 166.57425532 12.20701456 169.50147428 12.21118164 172.42895508 C12.21994324 173.2835733 12.22870483 174.13819153 12.23773193 175.01870728 C12.22658906 181.89867951 11.42313512 188.44797385 7.625 194.375 C7.22539063 195.02210938 6.82578125 195.66921875 6.4140625 196.3359375 C3.71363668 199.51378667 1.2856478 199.97190349 -2.8125 200.375 C-7.23214461 200.21920548 -10.67930705 198.93962983 -14 196 C-16.24895496 193.13581368 -18.1402524 190.12644875 -20 187 C-20.66 186.01 -21.32 185.02 -22 184 C-22.54527344 184.65226563 -23.09054687 185.30453125 -23.65234375 185.9765625 C-28.613854 191.72682566 -33.37840814 196.26379454 -40 200 C-41.5778125 200.928125 -41.5778125 200.928125 -43.1875 201.875 C-51.45721954 204.31524511 -59.48699098 204.16159157 -67.375 200.5625 C-78.05320887 194.45864321 -83.45150121 184.56444077 -89 174 C-89.4125 173.24074219 -89.825 172.48148438 -90.25 171.69921875 C-102.12181551 147.8164649 -100.27110166 116.09559812 -92.1875 91.4375 C-87.4011838 77.71168553 -81.26422177 66.90637666 -68.078125 59.91015625 C-61.02063556 56.81918813 -53.58401785 57.20862545 -46.375 59.625 C-38.57225122 62.75491618 -33.05647815 67.36337243 -28 74 C-26.95000964 68.60499108 -26.64966165 63.24842918 -26.3515625 57.7734375 C-26.23225864 55.75127324 -26.11245076 53.72913867 -25.9921875 51.70703125 C-25.80730789 48.54793767 -25.6257535 45.38879202 -25.453125 42.22900391 C-23.78457842 11.98185697 -23.78457842 11.98185697 -17 4 C-16.34 3.21625 -15.68 2.4325 -15 1.625 C-10.17334749 -0.98943678 -5.36122923 -0.72016512 0 0 Z " fill="#B6F105" transform="translate(1630,78)"/>
<path d="M0 0 C5.44336308 2.33434546 8.46416835 5.96987317 10.74609375 11.3828125 C12.3428069 16.93107403 13.0438656 21.84198275 13.01171875 27.59765625 C13.01567657 28.74257034 13.01567657 28.74257034 13.01971436 29.91061401 C13.02352884 32.38068201 13.01087235 34.85029067 12.99609375 37.3203125 C12.99343506 38.60390152 12.99343506 38.60390152 12.99072266 39.91342163 C12.96693739 49.72541695 12.75699185 59.42800622 11.74609375 69.1953125 C10.42645902 82.06775985 10.5501496 94.95611112 10.55859375 107.8828125 C10.55786865 108.97550446 10.55714355 110.06819641 10.55639648 111.19400024 C10.55663386 114.35075151 10.56541836 117.5073388 10.578125 120.6640625 C10.57991508 122.08304085 10.57991508 122.08304085 10.58174133 123.53068542 C10.6163346 128.47641617 10.91137282 133.27448995 11.51603699 138.18130493 C11.91533137 142.0023167 11.92875187 145.82128196 11.94921875 149.66015625 C11.95491882 150.51154678 11.9606189 151.36293732 11.9664917 152.24012756 C11.97586883 154.02750432 11.98244635 155.81489779 11.98632812 157.60229492 C11.99605685 160.31004294 12.02715891 163.01703795 12.05859375 165.72460938 C12.19118428 187.40490921 12.19118428 187.40490921 4.74609375 196.3828125 C1.28228774 199.26931751 -1.74740067 199.9259744 -6.26953125 199.73046875 C-12.21779507 198.68835166 -15.83854536 193.93662703 -19.25390625 189.3828125 C-20.91206453 186.61921536 -21.25390625 185.66677466 -21.25390625 182.3828125 C-23.10494586 184.16265828 -24.90018027 185.92330994 -26.46875 187.9609375 C-31.7220465 194.72170169 -39.51319141 200.61850697 -48.1015625 202.1640625 C-58.6029086 203.23134994 -65.98616535 202.41065547 -74.40625 195.65625 C-89.19653182 181.85955717 -97.1643311 159.85800211 -98.47631836 140.01977539 C-99.34210888 113.71277685 -96.53272004 90.04492918 -80.94140625 68.1328125 C-74.45346979 61.49399379 -67.34344418 57.42639123 -58.00390625 57.0078125 C-48.49899457 57.18885844 -40.44702345 61.48223836 -33.56640625 67.8828125 C-31.62792545 69.97846742 -29.94076082 72.08830139 -28.25390625 74.3828125 C-28.19206146 73.34830208 -28.19206146 73.34830208 -28.12896729 72.29289246 C-27.73465144 65.74652921 -27.32429375 59.20138353 -26.89654922 52.65711498 C-26.67726581 49.2937668 -26.46388577 45.93027376 -26.26464844 42.56567383 C-26.03173812 38.68455411 -25.77759783 34.80529985 -25.51953125 30.92578125 C-25.41925629 29.14073433 -25.41925629 29.14073433 -25.31695557 27.31962585 C-24.67393733 18.12861275 -23.17566232 8.08826369 -16.25390625 1.3828125 C-11.21969177 -1.63986756 -5.5780873 -1.52744852 0 0 Z " fill="#13ABF5" transform="translate(1145.25390625,78.6171875)"/>
<path d="M0 0 C12.86942745 8.61833499 20.74126065 21.47434548 23.93896484 36.54003906 C24.09574707 37.35569336 24.2525293 38.17134766 24.4140625 39.01171875 C24.58244629 39.87506836 24.75083008 40.73841797 24.92431641 41.62792969 C27.59109107 56.3100508 27.45588197 70.51484411 19.1640625 83.44921875 C15.78701546 87.05188747 12.42353185 90.25645283 7.37109375 90.6875 C0.35799663 90.84083584 -4.24490075 90.85067321 -9.8359375 86.44921875 C-16.85322232 79.24227758 -16.40426078 70.0610395 -16.95898438 60.59570312 C-17.03052734 59.59474609 -17.10207031 58.59378906 -17.17578125 57.5625 C-17.23113037 56.65282471 -17.28647949 55.74314941 -17.34350586 54.8059082 C-17.91445138 52.07346543 -18.62654597 51.11211768 -20.8359375 49.44921875 C-25.35896894 48.90713258 -28.96830017 49.79849075 -32.5859375 52.51171875 C-33.6996875 53.96578125 -33.6996875 53.96578125 -34.8359375 55.44921875 C-35.24328125 55.94808594 -35.650625 56.44695312 -36.0703125 56.9609375 C-49.9447714 76.01690728 -49.57387769 108.22758476 -47.0859375 130.57421875 C-45.81203169 138.66571706 -44.08992452 147.32941442 -37.09375 152.4375 C-27.16424043 156.88688232 -15.92456947 152.32370622 -6.359375 148.94067383 C0.4368429 146.62040256 6.97501347 145.37794091 14.1640625 146.44921875 C18.46289723 148.87247906 21.32073059 151.84513628 23.1640625 156.44921875 C24.38326034 164.4830908 22.80567095 170.84736866 18.1640625 177.44921875 C9.07709816 188.69374655 -4.25291841 197.5786696 -18.8359375 199.44921875 C-35.57953041 200.79870236 -48.98798431 197.94814147 -62.43359375 187.4140625 C-80.66208158 171.82499373 -88.47607448 148.37393256 -90.6418457 125.0847168 C-93.2723872 89.365603 -85.43714142 50.1281842 -62.6171875 21.68359375 C-60.43524483 19.17896942 -58.18049759 16.80175353 -55.8359375 14.44921875 C-55.07796875 13.66804688 -54.32 12.886875 -53.5390625 12.08203125 C-40.32048079 -0.74776865 -17.68882064 -8.90691499 0 0 Z " fill="#FD0495" transform="translate(136.8359375,90.55078125)"/>
<path d="M0 0 C4.32807229 1.6517025 6.20499183 4.81345548 8.2109375 8.84375 C12.6173043 20.14324506 14.54069206 31.68128013 14.40625 43.76171875 C14.4034201 44.74497635 14.40059021 45.72823395 14.39767456 46.74128723 C14.38660641 49.83807286 14.36152803 52.9345539 14.3359375 56.03125 C14.32589039 58.14908432 14.31676759 60.26692324 14.30859375 62.38476562 C14.28671109 67.53787523 14.25227589 72.69076124 14.2109375 77.84375 C14.99557373 77.05299072 15.78020996 76.26223145 16.58862305 75.44750977 C26.78786396 65.32043553 36.57766926 61.54265226 50.82543945 61.52905273 C57.52262962 61.65087225 61.89811573 62.76477447 66.87109375 67.38671875 C78.00114697 79.33716901 79.35893857 95.23619576 79.4140625 110.7734375 C79.41976257 112.03600372 79.42546265 113.29856995 79.43133545 114.59939575 C79.44077092 117.27740051 79.44767292 119.95529378 79.45117188 122.63330078 C79.45762509 126.64241958 79.4917419 130.65115812 79.5234375 134.66015625 C79.57678485 147.05228468 79.36200761 159.33694157 78.0078125 171.6640625 C77.90784973 172.65260223 77.80788696 173.64114197 77.70489502 174.65963745 C76.71563176 182.48348103 74.15712708 189.29099198 69.0859375 195.40625 C64.95572452 198.57274662 60.17772686 198.39750868 55.2109375 197.84375 C50.16229384 195.90196398 48.57953291 193.02961355 46.4609375 188.28125 C42.77641007 179.22959428 41.9250661 169.80985914 41.90234375 160.12890625 C41.877191 158.12304388 41.85179287 156.11718457 41.82617188 154.11132812 C41.79748869 151.00692499 41.77341527 147.90257474 41.75463867 144.7980957 C42.63492342 126.71082445 42.63492342 126.71082445 36.2746582 110.57861328 C32.8455959 107.69597792 29.56422455 108.23550395 25.2578125 108.4140625 C20.48577251 109.0870425 17.56283567 110.38598278 14.2109375 113.84375 C9.02512501 122.90362527 9.43559206 133.42163337 9.1484375 143.53125 C7.97010857 181.68576665 7.97010857 181.68576665 -3.4140625 193.53515625 C-7.46941002 196.3329561 -12.42489653 196.61570659 -17.203125 196.40625 C-20.90327615 195.60138329 -22.44022592 194.15296933 -24.58203125 191.09765625 C-33.21669334 174.97403157 -32.99964346 157.05161929 -32.9765625 139.28125 C-32.97562592 138.35103027 -32.97468933 137.42081055 -32.97372437 136.46240234 C-32.91955322 111.4806984 -31.29112457 86.84688077 -28.4765625 62.03125 C-28.38186676 61.16677246 -28.28717102 60.30229492 -28.18960571 59.41162109 C-26.02526331 39.93742193 -23.18743004 16.54478812 -9.6015625 1.40625 C-6.09233818 -0.54331906 -3.91796139 -0.67685712 0 0 Z " fill="#FD0495" transform="translate(206.7890625,86.15625)"/>
<path d="M0 0 C0.928125 0.721875 1.85625 1.44375 2.8125 2.1875 C3.41320312 2.62191406 4.01390625 3.05632812 4.6328125 3.50390625 C18.79115551 14.58072754 25.03035392 33.0868385 27.8125 50.1875 C28.20042494 55.11394913 28.24321831 59.9977839 28.1875 64.9375 C28.17734863 66.2486377 28.16719727 67.55977539 28.15673828 68.91064453 C27.76528211 93.49955411 21.9701795 117.45349969 3.8125 135.1875 C-5.57617534 144.06592124 -15.83990977 146.8831985 -28.53930664 146.71972656 C-41.77572943 146.13274551 -50.44714592 139.57388026 -59.1875 130.1875 C-75.45155528 110.73616649 -78.97905614 84.66383907 -77.1875 60.1875 C-74.28597453 38.45987626 -66.36770915 15.98939028 -48.51953125 2.11328125 C-33.3933728 -8.06327387 -15.94102777 -9.06450599 0 0 Z " fill="#13ABF5" transform="translate(780.1875,138.8125)"/>
<path d="M0 0 C17.41072236 14.41188556 22.21929184 40.80016262 24.5234375 62.18359375 C25.49442274 72.53630536 25.73981054 82.85155471 25.76367188 93.24316406 C25.77345111 95.81216957 25.80463426 98.38039695 25.8359375 100.94921875 C25.91817348 113.70394262 24.97753305 126.29824787 17.5234375 137.18359375 C14.80084944 139.89207513 13.21337405 141.06615774 9.40234375 141.71484375 C-1.93571743 141.6080069 -1.93571743 141.6080069 -6.4765625 137.18359375 C-10.64199613 131.66720867 -11.60596355 128.04184964 -11.4765625 121.18359375 C-12.32476563 121.77527344 -13.17296875 122.36695313 -14.046875 122.9765625 C-27.84192168 132.37802896 -41.56955402 137.74871641 -58.4765625 135.18359375 C-69.9769808 131.74970121 -77.27159071 123.80981734 -83.25 113.7734375 C-87.46210099 104.87973381 -88.30738248 94.22599581 -85.44921875 84.79296875 C-77.60882676 67.85250961 -59.41554367 57.52571465 -42.4765625 51.18359375 C-34.29160578 48.45874599 -26.04335453 46.24317066 -17.4765625 45.18359375 C-17.13083103 39.42140263 -17.13209417 35.142633 -20.4765625 30.18359375 C-25.62751933 25.41895868 -30.09125896 24.60785842 -36.9453125 24.6328125 C-44.64821068 25.83426012 -51.25200087 30.62069303 -57.8203125 34.60546875 C-63.20713625 37.65211497 -68.35905947 38.11756368 -74.4765625 37.18359375 C-78.65347206 35.13177853 -80.73969894 33.4482141 -82.4765625 29.18359375 C-83.75347759 21.52210323 -81.7611385 15.51423205 -77.4765625 9.18359375 C-59.11112659 -14.65577338 -23.4489091 -17.19833239 0 0 Z " fill="#B6F105" transform="translate(1495.4765625,143.81640625)"/>
<path d="M0 0 C0.94101562 0.30679688 1.88203125 0.61359375 2.8515625 0.9296875 C14.74024407 5.29388706 23.82434165 13.80605736 29.5546875 25.05078125 C33.54145239 33.80777976 36.0031779 42.6207827 38 52 C38.14566406 52.66821777 38.29132813 53.33643555 38.44140625 54.02490234 C41.7913151 69.61631368 42.18674563 85.15240265 42.18530273 101.04443359 C42.18750832 103.76024635 42.20580094 106.47566379 42.22460938 109.19140625 C42.29977655 131.4642909 42.29977655 131.4642909 37.1875 141.5 C36.70667969 142.4796875 36.22585938 143.459375 35.73046875 144.46875 C33.72765394 147.39837528 32.23545281 148.56675117 29 150 C23.47999662 150.8246573 18.5519271 150.74825056 13.5 148.3125 C7.81144205 143.0505839 5.89683421 138.40052739 4 131 C3.31035156 131.45890625 2.62070312 131.9178125 1.91015625 132.390625 C-12.15445425 141.57410182 -25.11376532 145.86706533 -42 144 C-45.86649024 142.90535574 -48.77885292 141.37646272 -52 139 C-52.62777344 138.56558594 -53.25554688 138.13117188 -53.90234375 137.68359375 C-62.05257559 131.42378768 -67.74929631 121.96169446 -70 112 C-71.25440928 101.29225894 -69.15336629 93.07268947 -62.875 84.375 C-49.52623546 68.31697247 -27.26436268 58.59777 -7 55 C-4.59637955 54.81573608 -2.41021096 54.83566743 0 55 C-0.25437737 47.96646575 -0.71249216 42.71667712 -5 37 C-10.68379174 32.87166934 -16.22255351 32.96689735 -23 34 C-28.85000232 36.23842532 -34.18794606 39.19671462 -39.4609375 42.578125 C-45.46806541 46.35155553 -50.9524665 47.28136973 -58 46 C-61.21813458 44.3421731 -63.35747552 42.28504897 -65 39 C-65.91040035 31.0714501 -65.5046368 24.90615555 -60.87890625 18.2734375 C-53.99133522 9.93961974 -45.76808109 5.24406282 -36 1 C-34.75089844 0.45472656 -34.75089844 0.45472656 -33.4765625 -0.1015625 C-23.49854159 -3.74541314 -9.96479038 -3.41752739 0 0 Z " fill="#13ACF5" transform="translate(885,135)"/>
<path d="M0 0 C8.97172822 6.46874607 15.04488381 15.35836772 17.1875 26.25 C18.53999632 41.12745956 14.37588122 54.28786238 5.08203125 65.875 C-5.5167086 78.13378344 -19.59560847 86.80348619 -35.8125 89.25 C-37.8121057 89.2897118 -39.81312471 89.29998438 -41.8125 89.25 C-40.50957177 94.05454785 -39.45090212 97.30732472 -35.3125 100.25 C-30.24225257 102.98013323 -25.42945854 103.20590996 -19.8125 102.25 C-12.19065946 99.69307436 -5.39740118 94.53711459 1.28125 90.140625 C6.52640427 86.72845475 10.97862804 86.31909623 17.1875 87.25 C20.67779792 89.22277708 23.38594633 91.64689265 25.1875 95.25 C26.27578376 105.04455381 22.00472482 113.30454814 16.125 120.9375 C5.35207686 133.31566004 -10.24948097 142.98012045 -26.81640625 144.53125 C-41.436726 144.97938241 -52.86228156 138.77214384 -63.36328125 128.9140625 C-78.45046036 112.50344663 -84.81849811 90.18160517 -84.1640625 68.23046875 C-82.85610202 44.45664029 -73.74373551 20.61640259 -56.4375 3.96484375 C-40.29493313 -9.87533778 -18.12096319 -11.09075674 0 0 Z " fill="#B6F105" transform="translate(1739.8125,134.75)"/>
<path d="M0 0 C8.97172822 6.46874607 15.04488381 15.35836772 17.1875 26.25 C18.53999632 41.12745956 14.37588122 54.28786238 5.08203125 65.875 C-5.5167086 78.13378344 -19.59560847 86.80348619 -35.8125 89.25 C-37.8121057 89.2897118 -39.81312471 89.29998438 -41.8125 89.25 C-40.50957177 94.05454785 -39.45090212 97.30732472 -35.3125 100.25 C-30.24225257 102.98013323 -25.42945854 103.20590996 -19.8125 102.25 C-12.19065946 99.69307436 -5.39740118 94.53711459 1.28125 90.140625 C6.52640427 86.72845475 10.97862804 86.31909623 17.1875 87.25 C20.67779792 89.22277708 23.38594633 91.64689265 25.1875 95.25 C26.27578376 105.04455381 22.00472482 113.30454814 16.125 120.9375 C5.35207686 133.31566004 -10.24948097 142.98012045 -26.81640625 144.53125 C-41.436726 144.97938241 -52.86228156 138.77214384 -63.36328125 128.9140625 C-78.45046036 112.50344663 -84.81849811 90.18160517 -84.1640625 68.23046875 C-82.85610202 44.45664029 -73.74373551 20.61640259 -56.4375 3.96484375 C-40.29493313 -9.87533778 -18.12096319 -11.09075674 0 0 Z " fill="#B6F105" transform="translate(1379.8125,134.75)"/>
<path d="M0 0 C8.99176879 6.48319561 15.00716807 15.34834036 17.1875 26.25 C18.45850713 41.56898067 13.80880977 55.26015279 4.12109375 67.09375 C-7.44234415 79.98873529 -22.45467164 88.09216886 -39.828125 89.171875 C-40.48296875 89.19765625 -41.1378125 89.2234375 -41.8125 89.25 C-40.05775354 94.7913046 -38.9276225 98.05304843 -33.8125 101.25 C-27.60418133 103.31943956 -21.05911042 103.23141925 -15.125 100.375 C-11.97059051 98.64208396 -8.99238171 96.70798995 -6.015625 94.69140625 C7.30680215 85.75791696 7.30680215 85.75791696 14.83984375 86.5078125 C18.82358127 87.76723035 21.55475052 90.05427264 24.1875 93.25 C26.28785475 97.45070949 25.62932971 101.70036312 24.38671875 106.05859375 C18.27272078 122.21551622 5.48755121 132.83758981 -9.87890625 140.03125 C-21.75292391 144.96426399 -32.79412137 146.04569806 -44.99609375 141.51171875 C-49.34000097 139.56569651 -53.05696209 137.15842409 -56.8125 134.25 C-57.47765625 133.76015625 -58.1428125 133.2703125 -58.828125 132.765625 C-72.71862404 121.71885017 -80.45735738 103.30333532 -83.37890625 86.19140625 C-86.29129008 59.71757488 -79.98426817 32.50756524 -63.4375 11.3125 C-46.82692266 -7.79676248 -22.27921998 -13.63577678 0 0 Z " fill="#FD0495" transform="translate(383.8125,134.75)"/>
<path d="M0 0 C5.68250347 2.90011006 9.03382286 8.08317855 11 14 C13.88089861 25.56235091 15.16121231 36.99976311 15.1328125 48.8984375 C15.13376923 49.81348053 15.13472595 50.72852356 15.13571167 51.67129517 C15.13638773 53.59906076 15.13457383 55.52682871 15.13037109 57.45458984 C15.12507713 60.33306304 15.13030351 63.21137572 15.13671875 66.08984375 C15.14035818 75.91692691 14.93854156 85.69704173 14.3901825 95.50894165 C13.85147177 105.25012962 13.65164483 114.99723244 13.4375 124.75 C13.39412527 126.63412024 13.35050641 128.51823488 13.30664062 130.40234375 C13.20163087 134.9348366 13.09986125 139.46739092 13 144 C13.69448242 143.79842285 14.38896484 143.5968457 15.10449219 143.38916016 C18.31769752 142.46081789 21.53379009 141.54287644 24.75 140.625 C25.84183594 140.30789062 26.93367188 139.99078125 28.05859375 139.6640625 C39.48374939 136.41904788 50.36567515 134.64019735 62.25 134.625 C63.27351563 134.60050781 64.29703125 134.57601562 65.3515625 134.55078125 C71.74805659 134.52611611 76.70116406 135.23799898 82 139 C85.8669909 143.16445174 87.44672833 146.01250041 87.33203125 151.7890625 C86.31232929 158.57907792 80.86091865 163.75009321 75.8203125 167.9921875 C64.7759682 175.85478164 51.87428998 180.15688434 39 184 C37.13408203 184.57041016 37.13408203 184.57041016 35.23046875 185.15234375 C18.82695592 189.86191135 -3.79050168 195.75152136 -19.8125 187.5625 C-39.95998876 163.96115602 -33.63034004 105.32025903 -31.46170044 75.83625793 C-31.10053958 71.3240568 -30.68665572 66.81796455 -30.25 62.3125 C-30.17158875 61.4838443 -30.09317749 60.6551886 -30.01239014 59.80142212 C-25.44554842 12.75215441 -25.44554842 12.75215441 -12 1 C-8.23060548 -0.88469726 -4.09553806 -0.63244441 0 0 Z " fill="#B6F105" transform="translate(1207,93)"/>
<path d="M0 0 C1.49225098 -0.02791626 1.49225098 -0.02791626 3.01464844 -0.05639648 C9.30440951 -0.00199227 13.12885637 0.78971448 18.25 4.5 C21.33879339 7.90559272 22.50527073 10.48223264 22.6875 15 C22.44004667 19.22791696 21.82247148 22.01959741 19.25 25.5 C13.75612235 30.03167309 7.56200496 33.54238482 1.44921875 37.16015625 C-2.75477784 39.72138331 -5.91160582 41.8678889 -7.75 46.5 C-8.10335815 49.37730058 -8.10335815 49.37730058 -8.0625 52.4375 C-8.07925781 53.45714844 -8.09601562 54.47679687 -8.11328125 55.52734375 C-7.41964742 61.2032077 -4.24068698 64.24122357 -0.0625 67.875 C0.82308594 68.66003906 1.70867187 69.44507813 2.62109375 70.25390625 C4.20836133 71.61004125 5.81972718 72.93956104 7.47265625 74.21484375 C14.18193224 79.5021152 18.48877874 86.22177989 19.72265625 94.77734375 C20.1935166 111.99445498 12.55236091 125.62240476 1.0390625 137.84765625 C-10.90889963 149.41852323 -25.46066359 155.41580027 -42.0625 155.875 C-48.43811009 155.69809628 -53.72245458 155.31461915 -58.52734375 150.84765625 C-61.86833656 147.12932779 -63.59766464 144.44227582 -64 139.3125 C-63.65425524 134.03989245 -62.86368174 129.75355773 -59.15625 125.80078125 C-53.92793677 121.54741987 -48.08270291 119.57571929 -41.75 117.5 C-32.72788782 114.50751299 -32.72788782 114.50751299 -26.75 107.5 C-25.35649437 101.34535014 -27.21082972 97.12803668 -30.25683594 91.86157227 C-32.64907328 88.07803535 -35.39231064 84.61573459 -38.1875 81.125 C-48.66727931 67.7366254 -52.82495768 57.61695061 -51.75 40.5 C-50.09237718 29.00309309 -42.52968302 18.7829708 -33.75 11.5 C-30.21919425 8.87742282 -26.60372186 6.6171351 -22.75 4.5 C-21.59177734 3.84451172 -21.59177734 3.84451172 -20.41015625 3.17578125 C-13.83288772 0.13765883 -7.1239747 0.08874271 0 0 Z " fill="#FD0495" transform="translate(552.75,124.5)"/>
<path d="M0 0 C1.49225098 -0.02791626 1.49225098 -0.02791626 3.01464844 -0.05639648 C9.30440951 -0.00199227 13.12885637 0.78971448 18.25 4.5 C21.33879339 7.90559272 22.50527073 10.48223264 22.6875 15 C22.44004667 19.22791696 21.82247148 22.01959741 19.25 25.5 C13.75612235 30.03167309 7.56200496 33.54238482 1.44921875 37.16015625 C-2.75477784 39.72138331 -5.91160582 41.8678889 -7.75 46.5 C-8.10335815 49.37730058 -8.10335815 49.37730058 -8.0625 52.4375 C-8.07925781 53.45714844 -8.09601563 54.47679687 -8.11328125 55.52734375 C-7.41964742 61.2032077 -4.24068698 64.24122357 -0.0625 67.875 C0.82308594 68.66003906 1.70867187 69.44507813 2.62109375 70.25390625 C4.20836133 71.61004125 5.81972718 72.93956104 7.47265625 74.21484375 C14.18193224 79.5021152 18.48877874 86.22177989 19.72265625 94.77734375 C20.1935166 111.99445498 12.55236091 125.62240476 1.0390625 137.84765625 C-10.90889963 149.41852323 -25.46066359 155.41580027 -42.0625 155.875 C-48.43811009 155.69809628 -53.72245458 155.31461915 -58.52734375 150.84765625 C-61.86833656 147.12932779 -63.59766464 144.44227582 -64 139.3125 C-63.65425524 134.03989245 -62.86368174 129.75355773 -59.15625 125.80078125 C-53.92793677 121.54741987 -48.08270291 119.57571929 -41.75 117.5 C-32.72788782 114.50751299 -32.72788782 114.50751299 -26.75 107.5 C-25.35649437 101.34535014 -27.21082972 97.12803668 -30.25683594 91.86157227 C-32.64907328 88.07803535 -35.39231064 84.61573459 -38.1875 81.125 C-48.66727931 67.7366254 -52.82495768 57.61695061 -51.75 40.5 C-50.09237718 29.00309309 -42.52968302 18.7829708 -33.75 11.5 C-30.21919425 8.87742282 -26.60372186 6.6171351 -22.75 4.5 C-21.59177734 3.84451172 -21.59177734 3.84451172 -20.41015625 3.17578125 C-13.83288772 0.13765883 -7.1239747 0.08874271 0 0 Z " fill="#FD0495" transform="translate(469.75,124.5)"/>
<path d="M0 0 C7.01980538 5.35562738 8.65822764 13.89599166 10.9375 22.0078125 C12.04158203 20.77804688 12.04158203 20.77804688 13.16796875 19.5234375 C14.15344842 18.43471711 15.13913661 17.34618544 16.125 16.2578125 C16.60775391 15.71898437 17.09050781 15.18015625 17.58789062 14.625 C24.45764053 7.06366453 31.4742293 2.71763444 41.8125 1.734375 C52.14936732 1.39842681 61.2463593 3.74524514 69.5 10.1953125 C74.87289303 15.44325453 77.08067866 21.842619 77.4375 29.2578125 C77.20590879 33.87516228 76.19681492 36.58553184 72.9375 40.0078125 C66.71677106 44.89880331 59.5401356 44.83979904 51.9375 44.0078125 C49.8311431 43.37117613 47.90722478 42.5766604 45.89453125 41.6953125 C41.24286226 40.06119325 36.33353584 40.09018175 31.734375 41.8515625 C23.61426288 46.43849606 18.06729552 55.12558069 15.34667969 63.91699219 C13.28985939 72.93979704 13.54913035 82.17760201 13.4375 91.3828125 C12.99448554 127.76452336 12.99448554 127.76452336 4.125 138.125 C-0.11877257 141.82061862 -3.17520103 143.40581862 -8.97265625 143.26953125 C-12.6411431 142.81011327 -14.37267191 141.51831872 -17.0625 139.0078125 C-27.89175445 122.42551662 -27.35572459 100.46980071 -27.6875 81.3828125 C-27.70485199 80.49004608 -27.72220398 79.59727966 -27.74008179 78.67745972 C-27.8492164 73.06041228 -27.93899742 67.44326738 -28.01959229 61.82574463 C-28.0621422 59.03131085 -28.11277065 56.23712921 -28.16552734 53.44287109 C-28.24767318 48.99442643 -28.30648928 44.54623717 -28.34759521 40.097229 C-28.36563654 38.43369012 -28.39024444 36.77020739 -28.42193604 35.10687256 C-28.62935669 23.65264312 -28.0978403 13.72509246 -20.625 4.4453125 C-15.23359604 -1.11670551 -7.38891111 -3.55451405 0 0 Z " fill="#B6F105" transform="translate(1802.0625,139.9921875)"/>
<path d="M0 0 C4.83768896 2.06918973 7.09558196 6.46948899 9.23828125 11.03515625 C11.0903591 15.81256733 11.08468025 19.9191853 11 25 C11.66 25 12.32 25 13 25 C13.2578125 24.26652344 13.515625 23.53304687 13.78125 22.77734375 C17.72232271 13.79624537 26.12352787 7.79103869 34.9921875 4.19140625 C45.11981854 1.14471227 55.52476011 2.68454421 65 7 C71.45603326 10.61880471 76.42341895 15.80536758 78.609375 23.0078125 C79.78657619 29.01153857 79.39642442 33.91649272 76.37109375 39.234375 C73.79960636 42.54580605 71.03631181 43.98613969 67 45 C60.12449818 45.74677735 54.34972664 45.45415277 48.0234375 42.69140625 C43.03853415 40.98807055 37.53616594 40.80830757 32.73046875 43.06640625 C24.20485273 49.0490087 18.84066404 58.0972867 16 68 C14.36804549 78.41414153 14.71288665 89.22123199 14.59863281 99.73999023 C14.26760256 127.96031893 14.26760256 127.96031893 6 139 C2.35263199 142.47368381 -0.26559375 143.83637677 -5.3125 144.3125 C-9.7654615 143.93513038 -11.60424213 142.86752887 -15 140 C-18.7076943 135.23193399 -20.24203693 130.68681775 -21.6875 124.9375 C-21.89955078 124.16728516 -22.11160156 123.39707031 -22.33007812 122.60351562 C-27.32179518 103.34525079 -25.60298384 81.6606086 -25.94671631 61.88751221 C-25.99901148 59.05356895 -26.0600007 56.21994196 -26.12353516 53.38623047 C-26.22124104 48.94861302 -26.29131762 44.51134367 -26.34103394 40.07293701 C-26.36338043 38.42130444 -26.39433193 36.76976205 -26.43460083 35.11846924 C-26.72415048 22.79734893 -25.36808973 12.66724522 -17 3 C-11.69473987 -0.97241153 -6.393766 -0.90224106 0 0 Z " fill="#13ACF5" transform="translate(968,139)"/>
<path d="M0 0 C2.72717956 0.07424264 3.89646665 0.32815797 6.00390625 2.09765625 C9.75130809 6.82182449 11.81596134 11.8128698 13.25 17.625 C13.45496094 18.43453125 13.65992188 19.2440625 13.87109375 20.078125 C17.1234119 35.06121829 17.13124956 56.95344464 9.25 70.625 C7.69280324 72.58287897 6.18205105 74.00625453 4.25 75.625 C3.92 75.955 3.59 76.285 3.25 76.625 C-0.67245122 76.47698297 -2.99072589 76.31919347 -5.9375 73.625 C-12.72538171 62.38988544 -15.3078646 50.86772651 -15.1875 37.8125 C-15.18065186 36.67119629 -15.17380371 35.52989258 -15.16674805 34.35400391 C-14.96339081 23.6590891 -13.29439022 2.2157317 0 0 Z " fill="#252523" transform="translate(756.75,172.375)"/>
<path d="M0 0 C8.85106408 3.29745525 13.44973333 10.98098844 18.04907227 18.77856445 C21.42789607 26.67173975 20.32937714 38.68725581 19 47 C17.05200422 51.81919138 13.41422238 54.4487184 9 57 C8.27425781 57.47953125 7.54851562 57.9590625 6.80078125 58.453125 C2.61503135 60.92016816 -1.12573085 61.82770608 -6 61 C-12.24781833 57.07695128 -13.331549 49.8128416 -15 43 C-16.15689292 36.8522573 -16.25795752 30.86465999 -16.3125 24.625 C-16.34150391 23.52671875 -16.37050781 22.4284375 -16.40039062 21.296875 C-16.46463332 13.05404294 -15.00019522 8.28599317 -10.25 1.5 C-6.92607579 -0.71594947 -3.81195478 -0.60460405 0 0 Z " fill="#252522" transform="translate(1098,180)"/>
<path d="M0 0 C7.94079167 3.42275503 12.8577117 9.76050022 16.93505859 17.24633789 C19.04699292 22.70725198 18.79854295 28.34232136 18.75 34.125 C18.80414062 35.97931641 18.80414062 35.97931641 18.859375 37.87109375 C18.859375 47.94574862 18.859375 47.94574862 14.71875 52.1875 C12.79980469 53.74658203 12.79980469 53.74658203 11 55 C9.84757812 55.86238281 9.84757812 55.86238281 8.671875 56.7421875 C8.03765625 57.11601562 7.4034375 57.48984375 6.75 57.875 C5.78320312 58.45894531 5.78320312 58.45894531 4.796875 59.0546875 C0.7969783 61.15898098 -2.54140094 61.53810678 -7 61 C-15.13772048 53.60207229 -16.50660633 42.30422349 -17.12988281 31.81396484 C-17.5593493 21.58702299 -17.86261068 11.73539162 -11.9375 2.9375 C-8.40677117 -0.59322883 -4.78523504 -0.6079246 0 0 Z " fill="#272520" transform="translate(1584,180)"/>
<path d="M0 0 C2.54424416 3.81636625 2.78449808 6.5969162 2 11 C-1.39565305 20.386463 -7.27232675 29.57093246 -15.96875 34.77734375 C-18.99488682 35.99793759 -20.80153617 36.10578182 -24 36 C-24.05898369 32.54174064 -24.09392131 29.0836138 -24.125 25.625 C-24.14175781 24.65949219 -24.15851562 23.69398438 -24.17578125 22.69921875 C-24.28470253 6.46994868 -24.28470253 6.46994868 -19.6875 1.5 C-13.16661558 -2.1395634 -6.97192289 -3.78475814 0 0 Z " fill="#252624" transform="translate(652,137)"/>
<path d="M0 0 C0 5.61 0 11.22 0 17 C-18.20928534 26.96063471 -18.20928534 26.96063471 -27 25 C-27.99 24.34 -28.98 23.68 -30 23 C-30.5866406 19.15424495 -30.84768886 16.59232536 -29.00390625 13.12890625 C-21.77722422 3.93689427 -11.33197099 -0.33826779 0 0 Z " fill="#252624" transform="translate(887,218)"/>
<path d="M0 0 C1.216875 0.04125 2.43375 0.0825 3.6875 0.125 C4.5195582 5.84540011 4.80786664 11.34740116 4.6875 17.125 C2.417884 18.27329977 0.14689222 19.41871978 -2.125 20.5625 C-3.08889648 21.05073242 -3.08889648 21.05073242 -4.07226562 21.54882812 C-8.85617281 23.95317526 -12.4605021 25.28867745 -17.8125 25.375 C-18.7715625 25.40078125 -19.730625 25.4265625 -20.71875 25.453125 C-23.3125 25.125 -23.3125 25.125 -25.1171875 23.77734375 C-26.3125 22.125 -26.3125 22.125 -26.9375 19.4375 C-25.80838734 13.4532029 -21.65703865 9.77782694 -16.796875 6.3515625 C-6.11097019 -0.20715153 -6.11097019 -0.20715153 0 0 Z " fill="#282720" transform="translate(1476.3125,217.875)"/>
<path d="M0 0 C2.7973173 2.20394696 3.00235944 3.19542456 3.5 6.75 C2.68429795 13.97478954 -2.66115609 18.92871255 -8.14453125 23.37109375 C-12.54547691 26.44887927 -16.53078963 27.79107643 -21.9375 27.625 C-22.11229953 24.06312343 -22.21851143 20.50235227 -22.3125 16.9375 C-22.38791016 15.42639648 -22.38791016 15.42639648 -22.46484375 13.88476562 C-22.60990538 6.55915311 -22.60990538 6.55915311 -20.65869141 3.84838867 C-14.64056636 -1.23544501 -7.30282963 -3.41834578 0 0 Z " fill="#252624" transform="translate(649.9375,209.375)"/>
<path d="M0 0 C2.36497439 1.86708505 3.66030715 3.32061431 5 6 C5.36318782 10.35825385 5.37574579 13.06063552 3.75 17.125 C-3.26198836 24.45571511 -13.32292732 27.04399595 -23 29 C-23.33561514 20.19655681 -20.12068459 12.43943834 -14.56640625 5.66015625 C-10.14708738 0.97633949 -6.47655165 -0.95948913 0 0 Z " fill="#2B2324" transform="translate(363,162)"/>
<path d="M0 0 C2.36497439 1.86708505 3.66030715 3.32061431 5 6 C5.363125 11.53765627 5.3433895 14.37869273 2 19 C-4.45131116 24.29306418 -14.55321056 29 -23 29 C-23.83094962 21.31371604 -20.50900484 13.73471733 -16.125 7.5625 C-11.58808513 2.02496231 -7.41740044 -1.09887414 0 0 Z " fill="#292920" transform="translate(1719,162)"/>
<path d="M0 0 C2.36497439 1.86708505 3.66030715 3.32061431 5 6 C5.363125 11.53765627 5.3433895 14.37869273 2 19 C-4.45131116 24.29306418 -14.55321056 29 -23 29 C-23.83094962 21.31371604 -20.50900484 13.73471733 -16.125 7.5625 C-11.58808513 2.02496231 -7.41740044 -1.09887414 0 0 Z " fill="#292920" transform="translate(1359,162)"/>
</svg>
