<?xml version="1.0" encoding="UTF-8"?>
<svg version="1.1" xmlns="http://www.w3.org/2000/svg" width="1024" height="1024">
<path d="M0 0 C1.47038521 -0.00230979 2.94076926 -0.00548977 4.41115093 -0.00945449 C8.41567368 -0.01773994 12.42010009 -0.01370593 16.42462301 -0.00748205 C20.75734171 -0.00293276 25.09004453 -0.00995354 29.42276001 -0.01544189 C37.89636106 -0.02431122 46.36992657 -0.02242488 54.84352899 -0.01661661 C61.73336595 -0.01209042 68.62319298 -0.01149136 75.51303101 -0.01366425 C76.49554484 -0.01397071 77.47805868 -0.01427718 78.49034566 -0.01459293 C80.48662321 -0.01523241 82.48290076 -0.01588084 84.47917831 -0.01653811 C103.17575061 -0.0222342 121.87230326 -0.01569485 140.56887233 -0.00493738 C156.59353215 0.00399747 172.61816298 0.00244523 188.64282227 -0.0067749 C207.27484139 -0.01749029 225.90684331 -0.02168494 244.53886509 -0.01555037 C246.52758852 -0.01491331 248.51631196 -0.01428457 250.5050354 -0.01366425 C251.48339456 -0.01335569 252.46175372 -0.01304714 253.46976012 -0.01272924 C260.34722508 -0.01100611 267.22467908 -0.01390917 274.10214233 -0.01862335 C282.48931962 -0.02424629 290.8764595 -0.02268609 299.26363254 -0.01206186 C303.53866684 -0.00682414 307.81363887 -0.00471586 312.08867264 -0.01136017 C316.00930693 -0.01736128 319.92982179 -0.01397658 323.85044539 -0.00340506 C325.26144851 -0.00118855 326.67246192 -0.0022675 328.0834583 -0.00715664 C346.10304529 -0.06475864 360.43841251 2.10365842 373.82543945 14.97662354 C386.74165962 28.44738625 388.16444908 42.85958502 388.14274597 60.80187988 C388.14461647 62.2729367 388.14691812 63.74399301 388.14961129 65.21504855 C388.15570616 69.239984 388.15559844 73.2648986 388.15441692 77.2898376 C388.15421233 81.63762018 388.15973724 85.98539617 388.16447449 90.33317566 C388.17276886 98.84474674 388.17552878 107.35631089 388.17608687 115.86788568 C388.17656259 122.78880416 388.17862017 129.70972036 388.18178749 136.63063812 C388.19059068 156.26710996 388.19520738 175.90357635 388.19445702 195.54005018 C388.19439708 197.12683026 388.19439708 197.12683026 388.19433594 198.7456665 C388.19429506 199.80481643 388.19425418 200.86396635 388.19421206 201.95521173 C388.19380566 219.11772764 388.20337448 236.28022161 388.2174743 253.44273117 C388.23184879 271.07918397 388.2387439 288.71562607 388.23788053 306.35208488 C388.23754893 316.24793916 388.24027955 326.14377044 388.25105858 336.03961945 C388.26017768 344.46531772 388.26232724 352.89098254 388.25554916 361.31668362 C388.2522911 365.61194527 388.25220137 369.90714281 388.2609024 374.2023983 C388.26879999 378.14169215 388.26730295 382.08087139 388.25861827 386.02016255 C388.25709043 387.43801637 388.25887216 388.85587888 388.26447835 390.27372244 C388.3285334 407.63681996 386.67382146 423.18442361 374.30029297 436.1585083 C364.1423564 446.31305494 353.17684943 450.74673785 338.83016592 450.793603 C337.39695279 450.78564873 335.96374175 450.7773112 334.53053284 450.76863098 C332.98278469 450.77396439 331.43504174 450.78103463 329.88730854 450.78967804 C325.65962596 450.80822707 321.43229552 450.80202729 317.20459878 450.79152501 C312.63530047 450.78451093 308.06607291 450.80054762 303.49679565 450.81352234 C294.55533002 450.83513056 285.61399181 450.83504362 276.67250866 450.82689679 C269.40312437 450.82058927 262.13377715 450.82174073 254.86439323 450.82816887 C253.31068513 450.82952135 253.31068513 450.82952135 251.72558899 450.83090116 C249.62115963 450.83275241 247.51673028 450.83461498 245.41230094 450.83648872 C225.69186081 450.85305608 205.9714923 450.84435698 186.25105648 450.82750314 C168.22142434 450.81280678 150.19195885 450.8274356 132.16234816 450.8562733 C113.63424047 450.88568689 95.10620965 450.89663387 76.57807964 450.8870911 C74.48121609 450.88606858 72.38435252 450.88507397 70.28748894 450.88410759 C69.255881 450.8836312 68.22427306 450.88315481 67.16140427 450.88266398 C59.90425548 450.88050247 52.64717968 450.89028993 45.39004707 450.90487862 C36.54086876 450.9224201 27.69190289 450.92225846 18.84273285 450.89952696 C14.33077098 450.88840138 9.81918313 450.88518398 5.30723763 450.90382767 C1.17110569 450.92069811 -2.96432788 450.91419343 -7.10041512 450.88961088 C-8.59086568 450.88474863 -10.08137329 450.88818554 -11.57177585 450.90109832 C-26.35198063 451.0198399 -38.0090432 446.5037659 -48.95581055 436.44927979 C-60.22124012 424.56757945 -62.29562856 410.97845348 -62.25166321 395.31259155 C-62.2546861 393.786636 -62.25857628 392.26068197 -62.26325577 390.7347306 C-62.27352669 386.55350299 -62.27135627 382.37236121 -62.26707518 378.19112659 C-62.26460632 373.67705027 -62.27362411 369.16299454 -62.28111267 364.64892578 C-62.29385719 355.81001887 -62.29565367 346.97114234 -62.29331241 338.13222779 C-62.29152883 330.94714577 -62.29327975 323.76207296 -62.29753685 316.57699203 C-62.29813204 315.55407952 -62.29872723 314.53116701 -62.29934045 313.47725715 C-62.30055221 311.39915674 -62.30176635 309.32105632 -62.30298283 307.24295591 C-62.3138574 287.75771775 -62.31169626 268.27249691 -62.30559798 248.78725778 C-62.3004288 230.96628676 -62.31168445 213.14537041 -62.3306962 195.32441022 C-62.35007365 177.02016262 -62.35833077 158.71594088 -62.35457295 140.41168296 C-62.35266078 130.13751608 -62.35515006 119.86339572 -62.36928749 109.58923721 C-62.38120105 100.84281767 -62.38260643 92.0964733 -62.37049732 83.35005273 C-62.36460851 78.88907242 -62.36350931 74.4282296 -62.37549973 69.96725845 C-62.38635784 65.87999894 -62.38325605 61.79299172 -62.36923804 57.70574401 C-62.36659092 56.23071416 -62.36895813 54.75566454 -62.3769739 53.28065409 C-62.45884184 37.08601363 -58.58133132 25.47236538 -47.45581055 13.55084229 C-43.67316351 10.02596676 -39.58584963 7.57843742 -34.9909668 5.25396729 C-33.3512793 4.38771729 -33.3512793 4.38771729 -31.6784668 3.50396729 C-21.43986932 0.03325628 -10.70342568 -0.03708767 0 0 Z " fill="#B7F304" transform="translate(112.990966796875,521.7460327148438)"/>
<path d="M0 0 C1.3093269 -0.00706559 2.6186538 -0.01413118 3.96765727 -0.02141088 C5.40870741 -0.01915984 6.84975725 -0.01671337 8.29080677 -0.01409245 C9.83097382 -0.01854738 11.37113858 -0.02386227 12.9113 -0.02996117 C17.13652353 -0.04412093 21.36167343 -0.04580485 25.58691728 -0.04536426 C30.14672733 -0.04701425 34.7065072 -0.06008415 39.26630116 -0.07155704 C49.23331623 -0.09439182 59.20030999 -0.10232597 69.16734767 -0.10738349 C75.39298078 -0.11064218 81.61860771 -0.11716568 87.84423733 -0.12438488 C105.0878549 -0.14394856 122.33146674 -0.16035422 139.57509613 -0.16326141 C140.67821815 -0.16344898 141.78134016 -0.16363655 142.91789012 -0.16382981 C145.15409648 -0.16419605 147.39030285 -0.16455975 149.62650921 -0.16492092 C150.73653505 -0.16510373 151.8465609 -0.16528654 152.99022388 -0.16547489 C154.65729942 -0.16574572 154.65729942 -0.16574572 156.35805324 -0.16602201 C174.36529783 -0.16956345 192.37242282 -0.196585 210.37962594 -0.23397278 C228.87595487 -0.27206822 247.37222448 -0.29141898 265.86859351 -0.29172093 C276.25019194 -0.2923052 286.63164768 -0.30077824 297.01320934 -0.32971859 C305.85331823 -0.35424893 314.69323237 -0.36150414 323.53336611 -0.34647106 C328.04126208 -0.33930905 332.54877361 -0.34012899 337.05662632 -0.36288166 C341.1891977 -0.38353979 345.32109076 -0.38080813 349.45365534 -0.36000682 C350.94288772 -0.35652494 352.43216973 -0.36136645 353.92133709 -0.37571125 C368.82030744 -0.50989738 381.0565838 4.19265964 391.95628834 14.38506222 C405.08275504 27.98761839 405.48667937 44.05745625 405.46500111 61.89699459 C405.46687216 63.36550235 405.46917403 64.83400962 405.47186643 66.3025161 C405.47795431 70.31572126 405.47785441 74.32890549 405.47667205 78.34211421 C405.47646729 82.67895338 405.48199397 87.01578596 405.48672962 91.35262203 C405.49501975 99.84032544 405.4977837 108.32802189 405.498342 116.81572901 C405.49881785 123.71660928 405.50087606 130.61748727 405.50404263 137.51836681 C405.51284404 157.09865864 405.5174627 176.678945 405.51671215 196.25923882 C405.51665222 197.84108439 405.51665222 197.84108439 405.51659107 199.45488644 C405.51655019 200.51074255 405.51650931 201.56659867 405.51646719 202.65445043 C405.51606067 219.76907941 405.52563314 236.88368639 405.53972944 253.998309 C405.55410088 271.5861981 405.56099923 289.17407647 405.56013566 306.76197159 C405.559804 316.63039239 405.56253766 326.49879012 405.57331371 336.36720562 C405.58242872 344.76802177 405.58458566 353.16880438 405.57780429 361.56962334 C405.5745444 365.8526165 405.57446323 370.13554536 405.58315754 374.41853237 C405.59104675 378.34539799 405.58956653 382.27214856 405.58087341 386.19901146 C405.57934376 387.61345288 405.58113423 389.02790299 405.58673348 390.44233416 C405.64562056 406.38382537 404.08269113 420.85061177 393.33128834 433.26006222 C392.8066399 433.86721066 392.28199146 434.47435909 391.74144459 435.09990597 C382.74465303 444.774103 371.31082702 449.18532949 358.33128834 450.26006222 C353.56482587 450.4068113 348.79922449 450.39958578 344.03098011 450.39377499 C342.57458613 450.39564499 341.11819265 450.39794645 339.66179997 450.40064031 C335.67267108 450.40674153 331.6835632 450.40662669 327.69443071 450.40544593 C323.38681077 450.4052415 319.07919751 450.41076486 314.7715807 450.4155035 C306.3360708 450.42380194 297.9005679 450.426558 289.46505427 450.42711588 C282.60467444 450.42759152 275.74429691 450.42964868 268.88391781 450.43281651 C249.41768172 450.44162169 229.95145113 450.44623622 210.48521303 450.44548603 C209.43628068 450.44544608 208.38734832 450.44540612 207.30663013 450.44536495 C206.25641117 450.44532407 205.20619221 450.44528319 204.12414844 450.44524107 C187.11488336 450.44483487 170.10564045 450.45439818 153.09638178 450.46850332 C135.61589268 450.48288436 118.13541437 450.48977252 100.65491921 450.48890954 C90.84729454 450.48857812 81.03969311 450.49130107 71.23207378 450.50208759 C62.879238 450.51121546 54.52643596 450.5133492 46.17359733 450.50657817 C41.91657468 450.50332419 37.65961669 450.50321544 33.40260029 450.51193142 C29.49585243 450.51984751 25.58921996 450.51831343 21.68247474 450.50964729 C20.27868725 450.50812343 18.87489092 450.50988574 17.47111385 450.51550736 C-1.41020838 450.58603511 -17.70775995 448.84193426 -31.91089916 435.08428097 C-32.78101635 434.18129269 -32.78101635 434.18129269 -33.66871166 433.26006222 C-34.78246166 432.11537472 -34.78246166 432.11537472 -35.91871166 430.94756222 C-43.70821118 418.98511652 -44.96897514 407.26402178 -44.92940807 393.32578182 C-44.93243189 391.81276299 -44.93632253 390.29974569 -44.94100064 388.78673106 C-44.95125974 384.64582845 -44.94910415 380.50501262 -44.94482005 376.36410296 C-44.94234901 371.89158775 -44.9513717 367.41909324 -44.95885754 362.94658566 C-44.97159629 354.1906983 -44.97339923 345.43484163 -44.97105727 336.67894658 C-44.96927295 329.56017184 -44.97102621 322.44140641 -44.97528172 315.32263279 C-44.9758769 314.3087593 -44.97647209 313.29488581 -44.97708532 312.25028888 C-44.97829709 310.19047246 -44.97951123 308.13065604 -44.98072769 306.07083962 C-44.99160016 286.76055613 -44.98944219 267.4502901 -44.98334285 248.14000563 C-44.97817456 230.48534553 -44.98942734 212.83074063 -45.00844107 195.17609145 C-45.02782659 177.03678431 -45.03607417 158.89750326 -45.03231782 140.75818568 C-45.03040678 130.57898506 -45.0328838 120.39983139 -45.04703236 110.22063923 C-45.05895624 101.55445008 -45.06033976 92.88833681 -45.04824219 84.22214659 C-45.04236046 79.80344167 -45.04123449 75.38487546 -45.05324459 70.96617985 C-45.06412683 66.91524661 -45.06097237 62.86456752 -45.04698291 58.81364606 C-45.0443424 57.35408819 -45.04668208 55.89451026 -45.05471877 54.43497213 C-45.12242158 41.2139325 -43.50994286 30.15165796 -35.66871166 19.26006222 C-34.83919994 18.10183956 -34.83919994 18.10183956 -33.99293041 16.92021847 C-25.85678162 6.72825478 -13.08620486 0.02265401 0 0 Z " fill="#FE0395" transform="translate(95.66871166229248,51.7399377822876)"/>
<path d="M0 0 C1.47038521 -0.00230979 2.94076926 -0.00548977 4.41115093 -0.00945449 C8.41567368 -0.01773994 12.42010009 -0.01370593 16.42462301 -0.00748205 C20.75734171 -0.00293276 25.09004453 -0.00995354 29.42276001 -0.01544189 C37.89636106 -0.02431122 46.36992657 -0.02242488 54.84352899 -0.01661661 C61.73336595 -0.01209042 68.62319298 -0.01149136 75.51303101 -0.01366425 C76.49554484 -0.01397071 77.47805868 -0.01427718 78.49034566 -0.01459293 C80.48662321 -0.01523241 82.48290076 -0.01588084 84.47917831 -0.01653811 C103.17575061 -0.0222342 121.87230326 -0.01569485 140.56887233 -0.00493738 C156.59353215 0.00399747 172.61816298 0.00244523 188.64282227 -0.0067749 C207.27484139 -0.01749029 225.90684331 -0.02168494 244.53886509 -0.01555037 C246.52758852 -0.01491331 248.51631196 -0.01428457 250.5050354 -0.01366425 C251.48339456 -0.01335569 252.46175372 -0.01304714 253.46976012 -0.01272924 C260.34722508 -0.01100611 267.22467908 -0.01390917 274.10214233 -0.01862335 C282.48931962 -0.02424629 290.8764595 -0.02268609 299.26363254 -0.01206186 C303.53866684 -0.00682414 307.81363887 -0.00471586 312.08867264 -0.01136017 C316.00930693 -0.01736128 319.92982179 -0.01397658 323.85044539 -0.00340506 C325.26144851 -0.00118855 326.67246192 -0.0022675 328.0834583 -0.00715664 C346.11156285 -0.06478587 361.61878028 2.16135826 375.11450195 15.15631104 C383.62459041 24.57882135 388.12618901 35.00696839 388.14046097 47.7059269 C388.14430211 48.99236237 388.14814326 50.27879785 388.1521008 51.60421622 C388.15132065 53.02462687 388.15044188 54.44503746 388.1494751 55.865448 C388.15206015 57.38000132 388.1550737 58.89455396 388.1584785 60.40910566 C388.16653533 64.56816479 388.16833734 68.72720666 388.16907597 72.88627267 C388.17092882 77.37315091 388.17847734 81.86002024 388.18521118 86.34689331 C388.19878578 96.156947 388.20481789 105.9669966 388.20922184 115.77705812 C388.2119858 121.90435529 388.21622344 128.03165089 388.22072601 134.15894699 C388.23291765 151.12887536 388.2432171 168.09880247 388.2466011 185.06873512 C388.24682067 186.15458659 388.24704024 187.24043806 388.24726646 188.35919412 C388.24748473 189.44762087 388.24770301 190.53604762 388.2479279 191.65745699 C388.24837137 193.86296694 388.24881793 196.06847688 388.24926758 198.27398682 C388.24948901 199.36799232 388.24971044 200.46199782 388.24993858 201.589155 C388.25388573 219.31190132 388.27133773 237.0346065 388.2946271 254.75733693 C388.31835353 272.95982621 388.33080355 291.16229486 388.33196902 309.36479986 C388.33288507 319.58205555 388.33861961 329.79925765 388.35678864 340.01649857 C388.37220705 348.71752311 388.37729981 357.41847749 388.36905053 366.11951311 C388.36515018 370.55642814 388.36604354 374.99320194 388.38010788 379.43009949 C388.39288364 383.49779992 388.39161722 387.56525353 388.37951717 391.63295381 C388.37756651 393.09866032 388.3806092 394.56438453 388.38936153 396.03006621 C388.48453509 413.05613971 384.86193264 425.64426694 373.13012695 438.21881104 C362.08205722 448.819261 349.27498363 450.85928166 334.44151306 450.76190186 C332.89631472 450.7665193 331.35112079 450.77287786 329.80593592 450.78081083 C325.58997488 450.79741136 321.37437895 450.78930042 317.15841711 450.77686596 C312.60006845 450.76777961 308.04178061 450.78180285 303.48344421 450.79278564 C294.56583965 450.81053689 285.64837004 450.80674616 276.73076027 450.79513508 C269.48141544 450.78608822 262.23210833 450.78488218 254.98275948 450.78923035 C253.9495762 450.78984328 252.91639293 450.79045621 251.85190107 450.79108772 C249.75278451 450.79236666 247.65366797 450.79366352 245.55455143 450.79497808 C225.88897621 450.80637379 206.22347568 450.79328572 186.55791271 450.77177662 C169.69514662 450.75390391 152.83249067 450.75701314 135.96972656 450.77545166 C116.37122856 450.79687162 96.77279593 450.80527804 77.17428786 450.79300261 C75.08335564 450.79172845 72.99242341 450.79047097 70.90149117 450.78923035 C69.35845683 450.78830469 69.35845683 450.78830469 67.78425009 450.78736034 C60.54566933 450.78391102 53.30713015 450.78972672 46.06855583 450.79914856 C37.24428041 450.8103823 28.42014726 450.80729944 19.59588807 450.78602558 C15.09624525 450.77553411 10.5968394 450.77136083 6.09719849 450.78462219 C1.97357718 450.79659131 -2.14958876 450.78990965 -6.27316909 450.76871198 C-7.76020573 450.76426501 -9.24728129 450.7664691 -10.73429263 450.77621514 C-25.93945466 450.86818246 -37.19324425 446.91044111 -48.2409668 436.37896729 C-61.85443322 422.09022971 -62.14779633 405.26135962 -62.12467957 386.49714661 C-62.12655176 385.03999982 -62.12885408 383.58285354 -62.13154489 382.12570804 C-62.13761848 378.15315685 -62.13753459 374.18062684 -62.13635051 370.20807207 C-62.13614538 365.91146741 -62.14167582 361.61486935 -62.14640808 357.31826782 C-62.15469004 348.91338826 -62.15746178 340.50851571 -62.15802046 332.1036324 C-62.15849665 325.2695515 -62.1605565 318.43547291 -62.16372108 311.60139275 C-62.1725198 292.20399545 -62.17714151 272.80660368 -62.17639061 253.40920437 C-62.17635065 252.36499518 -62.1763107 251.32078598 -62.17626953 250.24493408 C-62.17622865 249.19944312 -62.17618777 248.15395216 -62.17614565 247.07677966 C-62.17573907 230.12784973 -62.18531366 213.17894201 -62.1994079 196.2300185 C-62.21378246 178.80591304 -62.22067753 161.38181841 -62.21981412 143.95770687 C-62.2194826 134.18374024 -62.22221033 124.40979692 -62.23299217 114.63583565 C-62.24211123 106.3163436 -62.24426076 97.99688542 -62.23748275 89.67739052 C-62.23422507 85.43678991 -62.23413368 81.19625424 -62.242836 76.95565987 C-62.25073491 73.06644664 -62.24923524 69.17734949 -62.24055187 65.28813898 C-62.23902435 63.88854429 -62.2408045 62.48894078 -62.24641194 61.08935649 C-62.31687863 42.23824555 -59.72295826 27.57721737 -46.6784668 13.56646729 C-42.8964754 9.89324998 -38.6694035 7.60620541 -33.9909668 5.25396729 C-33.0834668 4.69709229 -32.1759668 4.14021729 -31.2409668 3.56646729 C-21.45773169 -0.38445459 -10.38848231 -0.03599638 0 0 Z " fill="#FC6109" transform="translate(584.990966796875,521.7460327148438)"/>
<path d="M0 0 C1.30795255 -0.00644889 2.6159051 -0.01289778 3.96349257 -0.0195421 C5.40817407 -0.01660004 6.85285519 -0.01346462 8.2975359 -0.01015663 C9.83755221 -0.01389406 11.37756663 -0.01849595 12.91757804 -0.02388728 C17.14699557 -0.03612154 21.37633403 -0.0358563 25.60576522 -0.03349853 C30.16829738 -0.03309046 34.73080414 -0.04412859 39.29332447 -0.05361366 C48.23176518 -0.07022749 57.17017952 -0.0757234 66.10863438 -0.07683842 C73.37527778 -0.07778881 80.64191248 -0.08189865 87.90855312 -0.08823967 C108.51362198 -0.10585392 129.11867 -0.11507837 149.72374644 -0.11357872 C150.83460041 -0.11349881 151.94545438 -0.1134189 153.08997059 -0.11333656 C154.20218209 -0.1132548 155.31439359 -0.11317304 156.46030847 -0.1130888 C174.48120749 -0.11227608 192.5020229 -0.13140985 210.52289774 -0.1596133 C229.02935986 -0.18834797 247.5357812 -0.20215324 266.04226619 -0.20042574 C276.43108959 -0.199762 286.81982536 -0.20524757 297.20862865 -0.22678185 C306.05499427 -0.24500139 314.90123254 -0.24933467 323.7476088 -0.235763 C328.25937107 -0.22923699 332.77088909 -0.22910283 337.28262806 -0.2464695 C341.4175752 -0.26222176 345.55208486 -0.25931477 349.68702147 -0.24190123 C351.17828162 -0.23883604 352.66957459 -0.24244557 354.16079601 -0.25362138 C368.75372343 -0.35569288 380.69118457 3.37597771 391.70935535 13.28851891 C403.57831369 25.74415579 405.75914667 39.66754131 405.71223927 56.1915493 C405.71526309 57.70456813 405.71915372 59.21758544 405.72383183 60.73060006 C405.73409093 64.87150267 405.73193534 69.0123185 405.72765124 73.15322816 C405.7251802 77.62574337 405.73420289 82.09823788 405.74168873 86.57074547 C405.75442748 95.32663282 405.75623043 104.08248949 405.75388847 112.83838455 C405.75210414 119.95715928 405.7538574 127.07592471 405.75811291 134.19469833 C405.7587081 135.20857182 405.75930329 136.22244532 405.75991651 137.26704225 C405.76112829 139.32685867 405.76234242 141.38667508 405.76355889 143.4464915 C405.77443136 162.756775 405.77227338 182.06704102 405.76617404 201.3773255 C405.76100575 219.03198559 405.77225854 236.68659049 405.79127226 254.34123967 C405.81065778 272.48054682 405.81890537 290.61982787 405.81514901 308.75914544 C405.81323797 318.93834607 405.81571499 329.11749973 405.82986355 339.29669189 C405.84178744 347.96288104 405.84317095 356.62899432 405.83107338 365.29518453 C405.82519166 369.71388945 405.82406568 374.13245566 405.83607578 378.55115128 C405.84695803 382.60208451 405.84380356 386.6527636 405.8298141 390.70368507 C405.82717359 392.16324293 405.82951327 393.62282087 405.83754996 395.08235899 C405.9215998 411.49565636 402.60764954 424.18544711 391.3616991 436.44476891 C377.8310264 449.28368943 361.30106611 450.57305398 343.46057606 450.51123619 C341.99019085 450.51354598 340.5198068 450.51672596 339.04942513 450.52069068 C335.04490238 450.52897613 331.04047596 450.52494212 327.03595304 450.51871824 C322.70323435 450.51416895 318.37053153 450.52118973 314.03781605 450.52667809 C305.564215 450.53554741 297.09064948 450.53366107 288.61704707 450.5278528 C281.72721011 450.52332661 274.83738307 450.52272755 267.94754505 450.52490044 C266.96503122 450.5252069 265.98251738 450.52551337 264.9702304 450.52582912 C262.97395285 450.52646861 260.9776753 450.52711703 258.98139775 450.5277743 C240.28482545 450.53347039 221.5882728 450.52693104 202.89170372 450.51617357 C186.86704391 450.50723872 170.84241308 450.50879097 154.81775379 450.51801109 C136.18573467 450.52872648 117.55373274 450.53292113 98.92171097 450.52678657 C96.93298753 450.5261495 94.9442641 450.52552076 92.95554066 450.52490044 C91.9771815 450.52459189 90.99882234 450.52428333 89.99081594 450.52396543 C83.11335098 450.5222423 76.23589698 450.52514536 69.35843372 450.52985954 C60.97125643 450.53548248 52.58411655 450.53392228 44.19694352 450.52329805 C39.92190922 450.51806033 35.64693719 450.51595205 31.37190342 450.52259636 C27.45126913 450.52859747 23.53075427 450.52521277 19.61013067 450.51464126 C18.19912755 450.51242474 16.78811414 450.51350369 15.37711775 450.51839283 C-2.77405413 450.57641546 -16.69139668 448.30650305 -30.2945509 435.60101891 C-34.94231026 430.76799357 -38.37327874 426.27883241 -40.79845715 420.00726891 C-41.05369152 419.40269859 -41.3089259 418.79812828 -41.57189465 418.17523766 C-45.39344428 408.5409099 -44.69312475 397.92606275 -44.67544079 387.73422813 C-44.6765947 386.27809497 -44.67818405 384.8219621 -44.68016803 383.36582983 C-44.68432426 379.38682715 -44.68228747 375.40784861 -44.67918181 371.42884588 C-44.67691275 367.12881848 -44.68041485 362.82879513 -44.68316174 358.52876854 C-44.68760252 350.11325376 -44.68665041 341.69774791 -44.68374909 333.28223278 C-44.68148812 326.43999122 -44.68118555 319.59775216 -44.68227291 312.75551033 C-44.68242614 311.78062739 -44.68257938 310.80574444 -44.68273725 309.80131959 C-44.68305699 307.82066271 -44.6833812 305.84000582 -44.68370984 303.85934894 C-44.68655976 285.29683283 -44.68328542 266.73432167 -44.67790948 248.17180638 C-44.67344329 232.25823412 -44.67421679 216.34466916 -44.67882824 200.43109703 C-44.68418504 181.93681702 -44.68628364 163.44254134 -44.68321598 144.94826066 C-44.68289744 142.97439345 -44.68258307 141.00052623 -44.68227291 139.02665901 C-44.6820415 137.57002026 -44.6820415 137.57002026 -44.68180541 136.08395446 C-44.68094347 129.25414782 -44.68239621 122.42434394 -44.68475246 115.59453773 C-44.687563 107.26509405 -44.68678584 98.93565978 -44.68147172 90.60621716 C-44.6788514 86.35969701 -44.67780124 82.11319254 -44.68112087 77.86667252 C-44.68411842 73.97314283 -44.68243385 70.07964325 -44.67714332 66.18611626 C-44.6760338 64.78378864 -44.67657744 63.38145843 -44.67901911 61.97913249 C-44.71044623 42.41623352 -43.13502096 27.4218968 -29.42345715 12.56976891 C-21.63914676 5.03571554 -10.8762451 0.01358564 0 0 Z " fill="#12ACF7" transform="translate(567.5484571456909,51.74273109436035)"/>
<path d="M0 0 C0.66 0.33 1.32 0.66 2 1 C2.06868772 47.54935797 2.12153977 94.09871057 2.15319599 140.64810924 C2.15694804 146.14545182 2.16083102 151.64279429 2.16479492 157.14013672 C2.16558185 158.23454461 2.16636878 159.32895251 2.16717956 160.45652428 C2.18022845 178.16994878 2.20387947 195.88334403 2.23145839 213.59675118 C2.25952693 231.7764468 2.27617933 249.95612712 2.28226548 268.13584352 C2.28637891 279.35094145 2.29936434 290.56595671 2.3237494 301.78102919 C2.33962446 309.47479424 2.34439634 317.16851662 2.34050413 324.86229685 C2.33858535 329.29917397 2.34149763 333.73590674 2.35761642 338.1727581 C2.37228654 342.24069199 2.37290656 346.30838535 2.36269668 350.37633064 C2.36143605 351.84221899 2.36518116 353.30812276 2.37464955 354.77398106 C2.47458662 371.2115249 -0.82660435 383.90933133 -12.08984375 396.1875 C-25.62647874 409.03207799 -42.1636185 410.31571529 -60.01115417 410.25396729 C-61.48367746 410.25627705 -62.95619958 410.25945702 -64.42871934 410.26342177 C-68.43903389 410.27170726 -72.44925223 410.26767323 -76.45956695 410.26144934 C-80.79836329 410.25690018 -85.13714377 410.26392068 -89.47593689 410.26940918 C-97.96056294 410.27827797 -106.44515351 410.2763926 -114.92978092 410.2705839 C-121.82679469 410.26605839 -128.72379854 410.26545834 -135.62081337 410.26763153 C-136.60419337 410.267938 -137.58757338 410.26824446 -138.60075277 410.26856022 C-140.59872752 410.26919969 -142.59670227 410.26984812 -144.59467701 410.2705054 C-163.30546519 410.27620109 -182.01623373 410.26966228 -200.72701869 410.25890467 C-216.77139142 410.24996566 -232.81573521 410.25152555 -248.86010742 410.26074219 C-267.51077558 410.27145104 -286.16142657 410.27565624 -304.81209737 410.26951766 C-306.80160955 410.26888059 -308.79112174 410.26825184 -310.78063393 410.26763153 C-311.75941522 410.26732298 -312.73819651 410.26701443 -313.74663785 410.26669653 C-320.6345292 410.26497175 -327.52240964 410.26787992 -334.4102993 410.27259064 C-342.80524791 410.27820611 -351.20015913 410.2766688 -359.59510347 410.26602915 C-363.87584186 410.26078208 -368.15651796 410.2586993 -372.43725586 410.26532745 C-376.35958371 410.27130874 -380.28179181 410.26797601 -384.20410887 410.25737235 C-385.61909627 410.2551476 -387.03409388 410.25625372 -388.44907465 410.26112393 C-396.21266165 410.28578522 -403.45863904 409.93168499 -411 408 C-411 407.67 -411 407.34 -411 407 C-410.23049147 407.00075944 -409.46098294 407.00151888 -408.66815597 407.00230134 C-363.04048849 407.04707702 -317.41282341 407.081383 -271.78513836 407.10213066 C-266.30410587 407.10463201 -260.82307343 407.10722066 -255.34204102 407.10986328 C-254.25088604 407.1103879 -253.15973107 407.11091252 -252.0355108 407.11145304 C-234.37773595 407.12015088 -216.71997414 407.13591744 -199.06220702 407.15430559 C-180.93787617 407.17302191 -162.81355214 407.18412039 -144.68921202 407.18817699 C-133.50945284 407.19091845 -122.32973054 407.19957095 -111.14998271 407.21583293 C-103.47910917 407.22642119 -95.80825464 407.22959645 -88.13737432 407.22700275 C-83.71458157 407.22572434 -79.2918532 407.22765641 -74.86907196 407.23841095 C-70.81284744 407.24820171 -66.75673009 407.24859742 -62.70050045 407.24179779 C-61.23998056 407.2409584 -59.77945375 407.24344587 -58.31894729 407.24976636 C-40.66434218 407.32167049 -25.62666599 405.42181142 -12.33203125 392.8359375 C-5.22268947 384.1904063 -0.88792336 373.81573263 -0.8613348 362.6219511 C-0.85586036 361.32662289 -0.85038591 360.03129468 -0.84474558 358.6967141 C-0.84366943 357.26116294 -0.84268473 355.82561171 -0.84178162 354.39006042 C-0.83721497 352.8636925 -0.83221479 351.33732581 -0.82681805 349.81096059 C-0.81323925 345.61507933 -0.80581932 341.41920617 -0.79939139 337.22330868 C-0.79138633 332.69914559 -0.77768891 328.17499935 -0.76467896 323.65084839 C-0.74291773 315.81192235 -0.72477194 307.97299461 -0.70907402 300.13405418 C-0.68637219 288.80022852 -0.65822978 277.46642151 -0.62875474 266.13261167 C-0.58108269 247.7447474 -0.53781745 229.3568755 -0.49731445 210.96899414 C-0.45795756 193.10570685 -0.41653087 175.24242634 -0.37231445 157.37915039 C-0.36822804 155.72781876 -0.36822804 155.72781876 -0.36405908 154.0431269 C-0.35037957 148.5203577 -0.33665931 142.99758859 -0.32291877 137.47481954 C-0.20896007 91.64989383 -0.10214936 45.82495345 0 0 Z " fill="#00A2F5" transform="translate(971,92)"/>
<path d="M0 0 C0.66 0 1.32 0 2 0 C2.06868744 46.67675209 2.12153963 93.35349883 2.15319599 140.03029151 C2.15694805 145.54265536 2.16083102 151.05501911 2.16479492 156.56738281 C2.16558185 157.66478132 2.16636878 158.76217983 2.16717956 159.89283285 C2.18022852 177.65475625 2.20387957 195.41665048 2.23145839 213.17855659 C2.25952675 231.40797276 2.27617929 249.63737367 2.28226548 267.86681056 C2.28637895 279.11261787 2.29936459 290.35834271 2.3237494 301.60412464 C2.33962423 309.31891444 2.34439639 317.0336617 2.34050413 324.74846664 C2.33858532 329.1974952 2.34149804 333.64637981 2.35761642 338.09538269 C2.37228603 342.17441891 2.37290688 346.25321525 2.36269668 350.33226284 C2.361436 351.80218883 2.36518154 353.2721302 2.37464955 354.74202624 C2.47797464 371.78426014 -1.13539828 384.37775676 -12.87890625 396.96484375 C-23.92306127 407.56153761 -36.82979927 409.60615665 -51.60357666 409.48101807 C-53.15248672 409.48276564 -54.70139561 409.48627396 -56.25029826 409.49137473 C-60.47612723 409.50026206 -64.70154587 409.48439782 -68.92732263 409.46426249 C-73.49566075 409.44691117 -78.06397765 409.4528396 -82.63233948 409.45587158 C-90.53722825 409.45796411 -98.44198447 409.44546526 -106.3468399 409.42292023 C-117.77576592 409.39034568 -129.20462815 409.37998763 -140.63359556 409.37496826 C-159.17845546 409.36622416 -177.72324479 409.33963261 -196.26806641 409.30175781 C-214.27750293 409.26501481 -232.28692026 409.23671425 -250.29638672 409.21972656 C-251.40738339 409.21867567 -252.51838006 409.21762477 -253.66304329 409.21654204 C-259.23685413 409.2113217 -264.81066511 409.20626692 -270.38447618 409.20129442 C-316.58969966 409.15985995 -362.79484618 409.08943563 -409 409 C-409 408.34 -409 407.68 -409 407 C-407.82238036 406.99910437 -407.82238036 406.99910437 -406.62097043 406.99819064 C-360.08318262 406.962291 -313.54545968 406.90564324 -267.00773181 406.82207905 C-261.41897316 406.81206168 -255.83021422 406.80221753 -250.24145508 406.79248047 C-248.57253424 406.78956841 -248.57253424 406.78956841 -246.86989782 406.78659752 C-228.85835605 406.75558264 -210.84682701 406.73859829 -192.83526357 406.72680578 C-174.35156128 406.71439158 -155.86792582 406.68688406 -137.38426572 406.64538693 C-125.98031013 406.6202593 -114.57646536 406.60688219 -103.17248169 406.60857043 C-95.3506632 406.6086002 -87.52895754 406.59395945 -79.70718303 406.56783572 C-75.19548107 406.55319877 -70.68401052 406.54497914 -66.17228889 406.55419731 C-62.037074 406.56250309 -57.90232341 406.55227796 -53.76717726 406.52766338 C-52.27574997 406.52199413 -50.78427846 406.52297287 -49.2928647 406.53148755 C-35.47970139 406.60355637 -24.09003496 403.6218955 -13.83984375 393.96484375 C-2.61801714 382.07180508 -0.69797871 369.83537548 -0.7215271 354.02929688 C-0.7165202 352.5003381 -0.71064324 350.97138197 -0.70397437 349.44242954 C-0.68820811 345.25330995 -0.68474555 341.06425749 -0.68332577 336.87511182 C-0.67962583 332.35303678 -0.66446737 327.83099831 -0.65071106 323.3089447 C-0.62845309 315.47825505 -0.613431 307.64757844 -0.60334396 299.81686401 C-0.58874937 288.4950138 -0.56321033 277.17320901 -0.53501268 265.85138547 C-0.4895589 247.48182761 -0.45293823 229.1122632 -0.421875 210.74267578 C-0.39168368 192.89989066 -0.35733071 175.05712153 -0.31738281 157.21435547 C-0.31492126 156.11425589 -0.31245972 155.01415631 -0.30992357 153.88072038 C-0.29754886 148.361763 -0.28509235 142.84280582 -0.27259517 137.32384872 C-0.16904853 91.5492548 -0.07983828 45.774641 0 0 Z " fill="#FC4800" transform="translate(971,563)"/>
<path d="M0 0 C1.47038521 -0.00230979 2.94076926 -0.00548977 4.41115093 -0.00945449 C8.41567368 -0.01773994 12.42010009 -0.01370593 16.42462301 -0.00748205 C20.75734171 -0.00293276 25.09004453 -0.00995354 29.42276001 -0.01544189 C37.89636106 -0.02431122 46.36992657 -0.02242488 54.84352899 -0.01661661 C61.73336595 -0.01209042 68.62319298 -0.01149136 75.51303101 -0.01366425 C76.49554484 -0.01397071 77.47805868 -0.01427718 78.49034566 -0.01459293 C80.48662321 -0.01523241 82.48290076 -0.01588084 84.47917831 -0.01653811 C103.17575061 -0.0222342 121.87230326 -0.01569485 140.56887233 -0.00493738 C156.59353215 0.00399747 172.61816298 0.00244523 188.64282227 -0.0067749 C207.27484139 -0.01749029 225.90684331 -0.02168494 244.53886509 -0.01555037 C246.52758852 -0.01491331 248.51631196 -0.01428457 250.5050354 -0.01366425 C251.48339456 -0.01335569 252.46175372 -0.01304714 253.46976012 -0.01272924 C260.34722508 -0.01100611 267.22467908 -0.01390917 274.10214233 -0.01862335 C282.48931962 -0.02424629 290.8764595 -0.02268609 299.26363254 -0.01206186 C303.53866684 -0.00682414 307.81363887 -0.00471586 312.08867264 -0.01136017 C316.00930693 -0.01736128 319.92982179 -0.01397658 323.85044539 -0.00340506 C325.26144851 -0.00118855 326.67246192 -0.0022675 328.0834583 -0.00715664 C346.10284999 -0.06475801 361.63377362 2.15469088 375.11450195 15.16021729 C380.44725973 21.05373928 385.30382764 28.38160158 387.0090332 36.25396729 C386.3490332 37.24396729 385.6890332 38.23396729 385.0090332 39.25396729 C384.72930664 38.41994385 384.44958008 37.58592041 384.16137695 36.72662354 C378.96707206 22.14582556 371.10516362 13.6779567 357.55981445 6.55084229 C347.75612512 2.97017687 337.47470863 2.96279301 327.1585083 2.99327087 C325.69112382 2.99024414 324.22374092 2.98635206 322.75636077 2.98167831 C318.7553749 2.97145666 314.75447922 2.97356514 310.75348616 2.9778589 C306.42614257 2.98033682 302.0988201 2.97129874 297.77148438 2.96382141 C289.30543258 2.95110151 280.83941254 2.94927737 272.3733528 2.95162167 C265.48780768 2.95340818 258.60227218 2.95164808 251.71672821 2.94739723 C250.73494505 2.94680204 249.7531619 2.94620685 248.74162774 2.94559363 C246.74680585 2.94438181 244.75198395 2.94316768 242.75716206 2.94195125 C224.06813551 2.93108596 205.37912702 2.9332333 186.69009945 2.9393361 C169.6170857 2.94450327 152.54412904 2.93325327 135.47112659 2.91423788 C117.91479137 2.89483502 100.35848314 2.88660784 82.80213714 2.89036113 C72.95596548 2.8922696 63.10984238 2.88982031 53.2636795 2.87564659 C44.88057763 2.86370052 36.49755422 2.86236389 28.1144512 2.87443676 C23.8430726 2.88030311 19.57183729 2.88148752 15.30046844 2.86943436 C11.37958947 2.85849947 7.45897211 2.86176802 3.53810498 2.87569604 C2.13038222 2.87832225 0.72263844 2.87604288 -0.68506357 2.86796018 C-15.05442125 2.79127438 -28.77466376 4.10251953 -40.9909668 12.25396729 C-41.9190918 12.87271729 -42.8472168 13.49146729 -43.8034668 14.12896729 C-48.92260948 19.10184875 -52.61030677 25.01274878 -55.9909668 31.25396729 C-56.9361642 28.74098736 -57.17753544 27.66925815 -56.05737305 25.17584229 C-49.93374141 16.33236387 -43.66713143 10.03727886 -33.9909668 5.25396729 C-33.0834668 4.69709229 -32.1759668 4.14021729 -31.2409668 3.56646729 C-21.45773169 -0.38445459 -10.38848231 -0.03599638 0 0 Z " fill="#FD5500" transform="translate(584.990966796875,521.7460327148438)"/>
<path d="M0 0 C1.30795255 -0.00644889 2.6159051 -0.01289778 3.96349257 -0.0195421 C5.40817407 -0.01660004 6.85285519 -0.01346462 8.2975359 -0.01015663 C9.83755221 -0.01389406 11.37756663 -0.01849595 12.91757804 -0.02388728 C17.14699557 -0.03612154 21.37633403 -0.0358563 25.60576522 -0.03349853 C30.16829738 -0.03309046 34.73080414 -0.04412859 39.29332447 -0.05361366 C48.23176518 -0.07022749 57.17017952 -0.0757234 66.10863438 -0.07683842 C73.37527778 -0.07778881 80.64191248 -0.08189865 87.90855312 -0.08823967 C108.51362198 -0.10585392 129.11867 -0.11507837 149.72374644 -0.11357872 C150.83460041 -0.11349881 151.94545438 -0.1134189 153.08997059 -0.11333656 C154.20218209 -0.1132548 155.31439359 -0.11317304 156.46030847 -0.1130888 C174.48120749 -0.11227608 192.5020229 -0.13140985 210.52289774 -0.1596133 C229.02935986 -0.18834797 247.5357812 -0.20215324 266.04226619 -0.20042574 C276.43108959 -0.199762 286.81982536 -0.20524757 297.20862865 -0.22678185 C306.05499427 -0.24500139 314.90123254 -0.24933467 323.7476088 -0.235763 C328.25937107 -0.22923699 332.77088909 -0.22910283 337.28262806 -0.2464695 C341.4175752 -0.26222176 345.55208486 -0.25931477 349.68702147 -0.24190123 C351.17828162 -0.23883604 352.66957459 -0.24244557 354.16079601 -0.25362138 C368.75372343 -0.35569288 380.69118457 3.37597771 391.70935535 13.28851891 C397.38796199 19.24781713 403.43264491 27.86525497 404.45154285 36.25726891 C403.79154285 36.91726891 403.13154285 37.57726891 402.45154285 38.25726891 C402.17181629 37.42324547 401.89208973 36.58922203 401.6038866 35.72992516 C396.28852275 20.80930572 388.30222497 12.34341767 374.2210741 5.45648766 C369.71956803 3.50731648 366.06663144 3.13040815 361.15197468 3.12025452 C359.19694405 3.1126427 359.19694405 3.1126427 357.20241785 3.10487711 C355.75254126 3.10427545 354.30266463 3.10377637 352.85278797 3.10336876 C351.3152116 3.09935347 349.77763628 3.09491514 348.24006224 3.0900892 C344.00807915 3.07812505 339.77610746 3.07247561 335.54411077 3.06790805 C330.98221082 3.0619513 326.42032449 3.05034158 321.85843372 3.03961754 C310.83733409 3.01509436 299.81622994 3.00046607 288.79511142 2.98755747 C285.68197745 2.98384534 282.56884393 2.97987212 279.45571041 2.97580481 C260.12185453 2.950567 240.78799794 2.92851476 221.45412922 2.91607666 C216.97572801 2.91314698 212.49732682 2.91018532 208.01892567 2.90717125 C206.90584547 2.9064252 205.79276528 2.90567915 204.64595538 2.90491049 C186.61912591 2.89225983 168.59239513 2.85904067 150.56561178 2.81736942 C132.05582342 2.77493261 113.54608556 2.75137956 95.03624868 2.7461561 C84.64453763 2.74274386 74.25298078 2.73101081 63.86131763 2.69805336 C55.01016501 2.67002767 46.15919822 2.65906458 37.30800468 2.67024882 C32.79404775 2.67542909 28.28047983 2.6725899 23.76657963 2.64778328 C19.62834734 2.62523163 15.49078214 2.62607609 11.35253769 2.64498715 C9.86119273 2.64777892 8.36980197 2.64223459 6.87853044 2.62717421 C-1.53720925 2.54742929 -8.39463549 3.37848408 -16.08178377 7.08723772 C-18.26038439 8.12062572 -20.19679051 8.7754687 -22.54845715 9.25726891 C-22.54845715 8.59726891 -22.54845715 7.93726891 -22.54845715 7.25726891 C-21.00947154 6.46040284 -19.46711931 5.6700375 -17.92345715 4.88226891 C-16.63568371 4.22097984 -16.63568371 4.22097984 -15.32189465 3.54633141 C-10.12115044 1.1290841 -5.74880776 0.0071809 0 0 Z " fill="#03A4F5" transform="translate(567.5484571456909,51.74273109436035)"/>
<path d="M0 0 C2.07322655 2.07322655 2.6738974 3.38640274 3.75 6.0625 C9.93703634 20.18163421 19.23978599 26.64375901 33 33 C30.55313713 33.8826583 29.29318267 34.08949787 26.7734375 33.3203125 C19.83474496 29.86226703 14.4826565 25.45328512 9 20 C8.071875 19.0925 7.14375 18.185 6.1875 17.25 C2.81561803 12.24034678 0.97998872 6.67877616 -1 1 C-0.67 0.67 -0.34 0.34 0 0 Z " fill="#00A1F5" transform="translate(526,465)"/>
<path d="M0 0 C3.77321981 4.64396285 3.77321981 4.64396285 5.14453125 6.796875 C11.00104065 15.64356593 20.89922598 22.02918411 31 25 C31 25.33 31 25.66 31 26 C24.87298579 26.78551464 20.88282138 24.3804148 16 21 C1.8543264 9.54874042 1.8543264 9.54874042 0.1875 2.625 C0.125625 1.75875 0.06375 0.8925 0 0 Z " fill="#FC4B00" transform="translate(529,944)"/>
<path d="M0 0 C0.33 0.99 0.66 1.98 1 3 C0.175 3.556875 -0.65 4.11375 -1.5 4.6875 C-8.0388407 10.10539658 -12.63499643 19.00001342 -15 27 C-15.33 27 -15.66 27 -16 27 C-16.38701654 20.03370232 -13.88866385 15.64311962 -10 10 C-6.83901092 6.46740655 -3.50306604 3.19152855 0 0 Z " fill="#01ACF7" transform="translate(542,61)"/>
<path d="M0 0 C0.33 0.99 0.66 1.98 1 3 C-5.17203426 9.79268575 -12.14053087 16.65173808 -21.625 17.875 C-23.295625 17.936875 -23.295625 17.936875 -25 18 C-22.1588184 16.10587894 -19.40010384 14.75549027 -16.3125 13.3125 C-9.65872244 10.02190455 -4.14976106 6.22464158 0 0 Z " fill="#FE0086" transform="translate(489,481)"/>
<path d="M0 0 C4.17004797 1.39498921 6.837108 3.3463358 10.0625 6.3125 C10.89910156 7.07175781 11.73570312 7.83101562 12.59765625 8.61328125 C14.94679116 10.94713724 16.98736589 13.37381461 19 16 C18.01 16 17.02 16 16 16 C14.23828125 14.20703125 14.23828125 14.20703125 12.3125 11.8125 C9.02878456 7.93783763 5.92965118 5.36610131 1.46875 2.97265625 C0.9840625 2.65167969 0.499375 2.33070313 0 2 C0 1.34 0 0.68 0 0 Z " fill="#ABF000" transform="translate(474,528)"/>
<path d="M0 0 C0.33 0.99 0.66 1.98 1 3 C0.071875 3.763125 -0.85625 4.52625 -1.8125 5.3125 C-3.98276101 7.11848552 -6.05568065 8.9476629 -8 11 C-8 8 -8 8 -6.25 5.95703125 C-5.5075 5.24933594 -4.765 4.54164062 -4 3.8125 C-2.88625 2.73935547 -2.88625 2.73935547 -1.75 1.64453125 C-1.1725 1.10183594 -0.595 0.55914062 0 0 Z " fill="#009BF5" transform="translate(542,61)"/>
<path d="" fill="#FF00FF" transform="translate(0,0)"/>
</svg>
